<svg xmlns="http://www.w3.org/2000/svg" viewBox="0 0 1227.39 281.25"><defs><style>.cls-1{font-size:34px;font-family:IdentikalSans;}.cls-1,.cls-41{fill:#fff;}.cls-2{letter-spacing:-0.04em;}.cls-3{letter-spacing:-0.03em;}.cls-4{letter-spacing:0em;}.cls-5{letter-spacing:-0.01em;}.cls-6{letter-spacing:-0.04em;}.cls-7{letter-spacing:-0.05em;}.cls-8{letter-spacing:-0.02em;}.cls-9{letter-spacing:-0.06em;}.cls-10{letter-spacing:-0.01em;}.cls-11{letter-spacing:0em;}.cls-12{letter-spacing:-0.02em;}.cls-13{letter-spacing:-0.02em;}.cls-14{letter-spacing:-0.02em;}.cls-15,.cls-40{letter-spacing:-0.01em;}.cls-16{letter-spacing:-0.09em;}.cls-17{letter-spacing:-0.05em;}.cls-18{letter-spacing:-0.04em;}.cls-19{letter-spacing:-0.1em;}.cls-20{letter-spacing:-0.02em;}.cls-21{letter-spacing:-0.08em;}.cls-22{letter-spacing:-0.05em;}.cls-23{letter-spacing:-0.08em;}.cls-24{letter-spacing:-0.02em;}.cls-25{letter-spacing:0em;}.cls-26{letter-spacing:-0.04em;}.cls-27{letter-spacing:-0.02em;}.cls-28{letter-spacing:-0.08em;}.cls-29{letter-spacing:-0.04em;}.cls-30{letter-spacing:-0.06em;}.cls-31{letter-spacing:-0.03em;}.cls-32{letter-spacing:-0.01em;}.cls-33{letter-spacing:-0.03em;}.cls-34{letter-spacing:-0.05em;}.cls-35{letter-spacing:-0.06em;}.cls-36{letter-spacing:-0.01em;}.cls-37{letter-spacing:-0.06em;}.cls-38{letter-spacing:-0.01em;}.cls-39{letter-spacing:-0.04em;}.cls-40{font-family:IdentikalSansLightItalic, IdentikalSans;}.cls-41{stroke:#fff;stroke-miterlimit:10;}</style></defs><title>1</title><g id="Layer_2" data-name="Layer 2"><g id="Layer_1-2" data-name="Layer 1"><text class="cls-1" transform="translate(0 151.78)">I <tspan class="cls-2" x="12.34" y="0">c</tspan><tspan class="cls-3" x="27.27" y="0">o</tspan><tspan class="cls-4" x="44.68" y="0">mp</tspan><tspan class="cls-5" x="87.21" y="0">l</tspan><tspan class="cls-6" x="92.55" y="0">e</tspan><tspan class="cls-7" x="108.32" y="0">t</tspan><tspan class="cls-5" x="121.07" y="0">e</tspan><tspan class="cls-8" x="137.94" y="0">l</tspan><tspan x="142.87" y="0">y </tspan><tspan class="cls-9" x="167.75" y="0">r</tspan><tspan x="178.5" y="0">e</tspan><tspan class="cls-2" x="195.63" y="0">c</tspan><tspan class="cls-3" x="210.56" y="0">o</tspan><tspan class="cls-10" x="227.97" y="0">m</tspan><tspan x="253.74" y="0">me</tspan><tspan class="cls-5" x="296.92" y="0">n</tspan><tspan class="cls-11" x="312.83" y="0">d </tspan><tspan class="cls-12" x="336.12" y="0">th</tspan><tspan class="cls-13" x="366.21" y="0">i</tspan><tspan x="371.31" y="0">s </tspan><tspan class="cls-8" x="392.02" y="0">s</tspan><tspan x="405.24" y="0">a</tspan><tspan class="cls-14" x="420.98" y="0">l</tspan><tspan class="cls-15" x="425.78" y="0">o</tspan><tspan x="443.87" y="0">n </tspan><tspan class="cls-16" x="466.85" y="0">t</tspan><tspan x="478.24" y="0">o </tspan><tspan class="cls-9" x="503.54" y="0">e</tspan><tspan class="cls-17" x="518.63" y="0">v</tspan><tspan class="cls-4" x="536.18" y="0">e</tspan><tspan class="cls-18" x="553.31" y="0">r</tspan><tspan class="cls-19" x="564.87" y="0">y</tspan><tspan class="cls-15" x="579.56" y="0">o</tspan><tspan x="597.65" y="0">ne! </tspan><tspan class="cls-20" x="643.41" y="0">T</tspan><tspan class="cls-5" x="663.44" y="0">h</tspan><tspan class="cls-9" x="680.23" y="0">e</tspan><tspan x="695.33" y="0">y </tspan><tspan class="cls-3" x="720.22" y="0">h</tspan><tspan class="cls-21" x="736.2" y="0">a</tspan><tspan class="cls-22" x="749.36" y="0">v</tspan><tspan class="cls-4" x="766.9" y="0">e </tspan><tspan class="cls-23" x="790.84" y="0">g</tspan><tspan class="cls-24" x="805.97" y="0">o</tspan><tspan class="cls-13" x="823.65" y="0">o</tspan><tspan x="841.6" y="0">d </tspan><tspan class="cls-13" x="864.89" y="0">c</tspan><tspan x="880.49" y="0">u</tspan><tspan class="cls-3" x="896.68" y="0">s</tspan><tspan class="cls-16" x="909.5" y="0">t</tspan><tspan class="cls-3" x="920.89" y="0">o</tspan><tspan class="cls-25" x="938.29" y="0">mer se</tspan><tspan class="cls-17" x="1032.1" y="0">r</tspan><tspan class="cls-26" x="1043.11" y="0">v</tspan><tspan x="1060.93" y="0">i</tspan><tspan class="cls-10" x="1066.57" y="0">c</tspan><tspan x="1082.45" y="0">e a</tspan><tspan class="cls-10" x="1122.13" y="0">n</tspan><tspan x="1138.04" y="0">d </tspan><tspan class="cls-27" x="1161.33" y="0">t</tspan><tspan class="cls-10" x="1175.03" y="0">h</tspan><tspan x="1191.83" y="0">eir</tspan><tspan x="74.89" y="40.8"> </tspan><tspan class="cls-28" x="81.69" y="40.8">w</tspan><tspan class="cls-14" x="104.16" y="40.8">o</tspan><tspan class="cls-2" x="121.84" y="40.8">r</tspan><tspan class="cls-4" x="133.4" y="40.8">k </tspan><tspan class="cls-13" x="157" y="40.8">i</tspan><tspan x="162.09" y="40.8">s p</tspan><tspan class="cls-10" x="199.29" y="40.8">h</tspan><tspan x="216.09" y="40.8">e</tspan><tspan class="cls-24" x="233.22" y="40.8">n</tspan><tspan class="cls-3" x="248.59" y="40.8">o</tspan><tspan class="cls-4" x="266" y="40.8">me</tspan><tspan class="cls-29" x="309.18" y="40.8">n</tspan><tspan class="cls-4" x="324" y="40.8">al! </tspan><tspan class="cls-12" x="357.8" y="40.8">t</tspan><tspan class="cls-10" x="371.5" y="40.8">h</tspan><tspan class="cls-30" x="388.3" y="40.8">e</tspan><tspan x="403.39" y="40.8">y </tspan><tspan class="cls-31" x="428.28" y="40.8">p</tspan><tspan class="cls-17" x="443.68" y="40.8">a</tspan><tspan x="457.65" y="40.8">y </tspan><tspan class="cls-32" x="482.54" y="40.8">c</tspan><tspan class="cls-14" x="498.28" y="40.8">l</tspan><tspan class="cls-33" x="503.08" y="40.8">o</tspan><tspan x="520.62" y="40.8">se </tspan><tspan class="cls-34" x="558.46" y="40.8">a</tspan><tspan class="cls-35" x="572.57" y="40.8">t</tspan><tspan class="cls-7" x="584.78" y="40.8">t</tspan><tspan class="cls-4" x="597.53" y="40.8">e</tspan><tspan class="cls-7" x="614.67" y="40.8">n</tspan><tspan class="cls-26" x="629.22" y="40.8">t</tspan><tspan class="cls-29" x="642.1" y="40.8">i</tspan><tspan class="cls-15" x="646.39" y="40.8">o</tspan><tspan x="664.48" y="40.8">n </tspan><tspan class="cls-16" x="687.46" y="40.8">t</tspan><tspan x="698.85" y="40.8">o </tspan><tspan class="cls-36" x="724.15" y="40.8">d</tspan><tspan class="cls-6" x="740.23" y="40.8">e</tspan><tspan class="cls-37" x="756" y="40.8">t</tspan><tspan class="cls-4" x="768.34" y="40.8">ail a</tspan><tspan class="cls-5" x="817.88" y="40.8">n</tspan><tspan class="cls-4" x="833.79" y="40.8">d </tspan><tspan class="cls-8" x="857.08" y="40.8">t</tspan><tspan class="cls-38" x="870.79" y="40.8">h</tspan><tspan x="887.58" y="40.8">eir </tspan><tspan class="cls-10" x="929.94" y="40.8">p</tspan><tspan class="cls-39" x="946.16" y="40.8">r</tspan><tspan x="957.72" y="40.8">i</tspan><tspan class="cls-10" x="963.37" y="40.8">c</tspan><tspan class="cls-36" x="979.24" y="40.8">e</tspan><tspan class="cls-25" x="995.97" y="40.8">s a</tspan><tspan class="cls-30" x="1032.42" y="40.8">r</tspan><tspan x="1043.16" y="40.8">e </tspan><tspan class="cls-8" x="1067.1" y="40.8">g</tspan><tspan class="cls-30" x="1084.4" y="40.8">r</tspan><tspan class="cls-8" x="1095.15" y="40.8">e</tspan><tspan class="cls-7" x="1111.6" y="40.8">a</tspan><tspan x="1125.72" y="40.8">t. </tspan><tspan x="610.3" y="81.6"> </tspan><tspan class="cls-40"><tspan x="587.7" y="122.4">R</tspan><tspan class="cls-11" x="604.23" y="122.4">udi</tspan></tspan></text><path class="cls-41" d="M596.3,13.42H584.8l-4.49-12-4.5,12h-11.5L573,21l-4.66,12.42,12-6,12,6L587.65,21Z"/><path class="cls-41" d="M630.23,13.42H618.74l-4.5-12-4.5,12h-11.5L606.9,21l-4.66,12.42,12-6,12,6L621.58,21Z"/><path class="cls-41" d="M562.11,13.42h-11.5l-4.5-12-4.5,12H530.12L538.77,21l-4.65,12.42,12-6,12,6L553.45,21Z"/><path class="cls-41" d="M664,13.42H652.49l-4.5-12-4.5,12H632L640.65,21,636,33.42l12-6,12,6L655.33,21Z"/><path class="cls-41" d="M697.27,13.42H685.78l-4.5-12-4.5,12h-11.5L673.94,21l-4.66,12.42,12-6,12,6L688.62,21Z"/></g></g></svg>