<svg xmlns="http://www.w3.org/2000/svg" viewBox="0 0 1080.89 239.95"><defs><style>.cls-1{font-size:34px;font-family:IdentikalSans;}.cls-1,.cls-30{fill:#fff;}.cls-2{letter-spacing:0.61em;}.cls-3{letter-spacing:-0.04em;}.cls-4{letter-spacing:-0.01em;}.cls-5{letter-spacing:-0.04em;}.cls-6{letter-spacing:-0.02em;}.cls-7{letter-spacing:0em;}.cls-8{letter-spacing:-0.01em;}.cls-9{letter-spacing:-0.03em;}.cls-10{letter-spacing:-0.05em;}.cls-11{letter-spacing:-0.02em;}.cls-12{letter-spacing:-0.04em;}.cls-13{letter-spacing:-0.03em;}.cls-14{letter-spacing:-0.02em;}.cls-15{letter-spacing:-0.02em;}.cls-16{letter-spacing:-0.01em;}.cls-17{letter-spacing:-0.1em;}.cls-18{letter-spacing:-0.08em;}.cls-19{letter-spacing:-0.05em;}.cls-20{letter-spacing:-0.05em;}.cls-21{letter-spacing:-0.01em;}.cls-22{letter-spacing:-0.09em;}.cls-23{letter-spacing:-0.08em;}.cls-24{letter-spacing:-0.01em;}.cls-25{letter-spacing:-0.04em;}.cls-26{font-family:IdentikalSansLightItalic, IdentikalSans;}.cls-27{letter-spacing:-0.12em;}.cls-28{letter-spacing:-0.04em;}.cls-29{letter-spacing:0em;}.cls-30,.cls-31{stroke:#fff;stroke-miterlimit:10;}.cls-31{fill:none;}</style></defs><title>2</title><g id="Layer_2" data-name="Layer 2"><g id="Layer_1-2" data-name="Layer 1"><text class="cls-1" transform="translate(0 151.28)"><tspan class="cls-2">	</tspan><tspan x="27.64" y="0">I </tspan><tspan class="cls-3" x="39.98" y="0">w</tspan><tspan x="63.82" y="0">ill </tspan><tspan class="cls-4" x="87.48" y="0">d</tspan><tspan class="cls-5" x="103.56" y="0">e</tspan><tspan class="cls-6" x="119.2" y="0">f</tspan><tspan class="cls-7" x="133.25" y="0">i</tspan><tspan class="cls-8" x="138.75" y="0">n</tspan><tspan class="cls-9" x="154.67" y="0">i</tspan><tspan class="cls-10" x="159.36" y="0">t</tspan><tspan class="cls-8" x="172.11" y="0">e</tspan><tspan class="cls-11" x="188.97" y="0">l</tspan><tspan x="193.9" y="0">y </tspan><tspan class="cls-12" x="218.79" y="0">c</tspan><tspan class="cls-13" x="233.72" y="0">o</tspan><tspan x="251.12" y="0">me </tspan><tspan class="cls-9" x="301.1" y="0">b</tspan><tspan x="316.64" y="0">a</tspan><tspan class="cls-4" x="332.38" y="0">c</tspan><tspan x="348.12" y="0">k. </tspan><tspan class="cls-11" x="377.33" y="0">G</tspan><tspan class="cls-14" x="395.69" y="0">o</tspan><tspan class="cls-15" x="413.37" y="0">o</tspan><tspan x="431.32" y="0">d </tspan><tspan class="cls-16" x="454.61" y="0">p</tspan><tspan class="cls-12" x="470.83" y="0">r</tspan><tspan x="482.39" y="0">i</tspan><tspan class="cls-8" x="488.03" y="0">c</tspan><tspan class="cls-4" x="503.91" y="0">e</tspan><tspan x="520.64" y="0">s, </tspan><tspan class="cls-17" x="546.95" y="0">e</tspan><tspan class="cls-18" x="560.55" y="0">x</tspan><tspan class="cls-16" x="577.79" y="0">ce</tspan><tspan x="610.53" y="0">l</tspan><tspan class="cls-16" x="616.14" y="0">l</tspan><tspan x="621.48" y="0">e</tspan><tspan class="cls-19" x="638.62" y="0">n</tspan><tspan x="653.17" y="0">t se</tspan><tspan class="cls-20" x="705.39" y="0">r</tspan><tspan class="cls-3" x="716.41" y="0">v</tspan><tspan x="734.22" y="0">i</tspan><tspan class="cls-16" x="739.87" y="0">c</tspan><tspan x="755.74" y="0">e a</tspan><tspan class="cls-8" x="795.42" y="0">n</tspan><tspan x="811.33" y="0">d </tspan><tspan class="cls-21" x="834.62" y="0">p</tspan><tspan class="cls-22" x="850.84" y="0">r</tspan><tspan class="cls-23" x="860.63" y="0">of</tspan><tspan class="cls-24" x="888.41" y="0">e</tspan><tspan x="905.14" y="0">s</tspan><tspan class="cls-14" x="919.05" y="0">s</tspan><tspan class="cls-25" x="932.14" y="0">i</tspan><tspan class="cls-24" x="936.42" y="0">o</tspan><tspan class="cls-25" x="954.51" y="0">n</tspan><tspan x="969.33" y="0">al </tspan><tspan class="cls-10" x="997.48" y="0">t</tspan><tspan class="cls-11" x="1010.23" y="0">e</tspan><tspan x="1026.69" y="0">am. </tspan><tspan x="537.04" y="40.8"> </tspan><tspan class="cls-26"><tspan class="cls-27" x="509.16" y="81.6">T</tspan><tspan class="cls-28" x="525.11" y="81.6">r</tspan><tspan class="cls-29" x="535.38" y="81.6">i</tspan><tspan x="539.29" y="81.6">ne</tspan></tspan></text><path class="cls-30" d="M522.69,13.42h-11.5l-4.5-12-4.5,12H490.7L499.35,21,494.7,33.42l12-6,12,6L514,21Z"/><path class="cls-30" d="M556.62,13.42h-11.5l-4.49-12-4.5,12h-11.5L533.29,21l-4.66,12.42,12-6,12,6L548,21Z"/><path class="cls-30" d="M488.5,13.42H477l-4.5-12-4.5,12H456.5L465.16,21,460.5,33.42l12-6,12,6L479.84,21Z"/><path class="cls-30" d="M590.37,13.42h-11.5l-4.49-12-4.5,12h-11.5L567,21l-4.66,12.42,12-6,12,6L581.72,21Z"/><path class="cls-31" d="M623.66,13.42h-11.5l-4.49-12-4.5,12h-11.5L600.33,21l-4.66,12.42,12-6,12,6L615,21Z"/><path class="cls-30" d="M522.69,13.42h-11.5l-4.5-12-4.5,12H490.7L499.35,21,494.7,33.42l12-6,12,6L514,21Z"/><path class="cls-30" d="M556.62,13.42h-11.5l-4.49-12-4.5,12h-11.5L533.29,21l-4.66,12.42,12-6,12,6L548,21Z"/><path class="cls-30" d="M488.5,13.42H477l-4.5-12-4.5,12H456.5L465.16,21,460.5,33.42l12-6,12,6L479.84,21Z"/><path class="cls-30" d="M590.37,13.42h-11.5l-4.49-12-4.5,12h-11.5L567,21l-4.66,12.42,12-6,12,6L581.72,21Z"/><path class="cls-31" d="M623.66,13.42h-11.5l-4.49-12-4.5,12h-11.5L600.33,21l-4.66,12.42,12-6,12,6L615,21Z"/></g></g></svg>