<svg xmlns="http://www.w3.org/2000/svg" viewBox="0 0 1135.28 281.25"><defs><style>.cls-1{font-size:34px;font-family:IdentikalSans;}.cls-1,.cls-40{fill:#fff;}.cls-2{letter-spacing:-0.02em;}.cls-3{letter-spacing:0em;}.cls-4{letter-spacing:-0.06em;}.cls-5{letter-spacing:-0.19em;}.cls-6{letter-spacing:-0.01em;}.cls-7{letter-spacing:-0.01em;}.cls-8{letter-spacing:-0.02em;}.cls-9{letter-spacing:-0.05em;}.cls-10{letter-spacing:-0.04em;}.cls-11{letter-spacing:-0.01em;}.cls-12{letter-spacing:-0.03em;}.cls-13{letter-spacing:-0.04em;}.cls-14{letter-spacing:-0.04em;}.cls-15{letter-spacing:-0.09em;}.cls-16{letter-spacing:-0.09em;}.cls-17{letter-spacing:-0.02em;}.cls-18{letter-spacing:-0.05em;}.cls-19{letter-spacing:-0.03em;}.cls-20{letter-spacing:-0.02em;}.cls-21{letter-spacing:-0.06em;}.cls-22{letter-spacing:-0.05em;}.cls-23{letter-spacing:0em;}.cls-24{letter-spacing:0em;}.cls-25{letter-spacing:-0.12em;}.cls-26{letter-spacing:-0.02em;}.cls-27{letter-spacing:-0.01em;}.cls-28{letter-spacing:0em;}.cls-29{letter-spacing:-0.05em;}.cls-30{letter-spacing:-0.02em;}.cls-31{letter-spacing:-0.12em;}.cls-32{letter-spacing:-0.05em;}.cls-33{letter-spacing:-0.1em;}.cls-34{letter-spacing:-0.05em;}.cls-35{letter-spacing:-0.04em;}.cls-36{font-family:IdentikalSansLightItalic, IdentikalSans;}.cls-37{letter-spacing:-0.08em;}.cls-38{letter-spacing:-0.06em;}.cls-39{letter-spacing:0em;}.cls-40,.cls-41{stroke:#fff;stroke-miterlimit:10;}.cls-41{fill:none;}</style></defs><title>3</title><g id="Layer_2" data-name="Layer 2"><g id="Layer_1-2" data-name="Layer 1"><text class="cls-1" transform="translate(0 151.78)"><tspan class="cls-2">H</tspan><tspan class="cls-3" x="18.19" y="0">air </tspan><tspan class="cls-4" x="59.16" y="0">b</tspan><tspan x="73.74" y="0">y </tspan><tspan class="cls-5" x="98.63" y="0">T</tspan><tspan class="cls-6" x="112.81" y="0">o</tspan><tspan class="cls-7" x="130.9" y="0">n</tspan><tspan x="146.81" y="0">i </tspan><tspan class="cls-8" x="159.25" y="0">i</tspan><tspan x="164.35" y="0">s a </tspan><tspan class="cls-9" x="207.6" y="0">v</tspan><tspan class="cls-3" x="225.15" y="0">e</tspan><tspan class="cls-10" x="242.28" y="0">r</tspan><tspan class="cls-3" x="253.84" y="0">y </tspan><tspan class="cls-7" x="278.73" y="0">n</tspan><tspan x="294.64" y="0">i</tspan><tspan class="cls-11" x="300.29" y="0">c</tspan><tspan class="cls-3" x="316.16" y="0">e add</tspan><tspan class="cls-12" x="388.82" y="0">i</tspan><tspan class="cls-13" x="393.51" y="0">t</tspan><tspan class="cls-14" x="406.4" y="0">i</tspan><tspan class="cls-6" x="410.68" y="0">o</tspan><tspan x="428.77" y="0">n </tspan><tspan class="cls-15" x="451.75" y="0">t</tspan><tspan x="463.14" y="0">o </tspan><tspan class="cls-12" x="488.44" y="0">d</tspan><tspan class="cls-16" x="503.98" y="0">o</tspan><tspan class="cls-17" x="519.48" y="0">w</tspan><tspan class="cls-18" x="543.99" y="0">n</tspan><tspan class="cls-15" x="558.55" y="0">to</tspan><tspan class="cls-2" x="585.44" y="0">w</tspan><tspan x="609.95" y="0">n. It </tspan><tspan class="cls-19" x="665.27" y="0">h</tspan><tspan class="cls-6" x="681.25" y="0">a</tspan><tspan class="cls-3" x="696.58" y="0">s a </tspan><tspan class="cls-20" x="739.83" y="0">g</tspan><tspan class="cls-21" x="757.14" y="0">r</tspan><tspan class="cls-20" x="767.88" y="0">e</tspan><tspan class="cls-22" x="784.34" y="0">a</tspan><tspan class="cls-23" x="798.45" y="0">t </tspan><tspan class="cls-22" x="819.63" y="0">a</tspan><tspan class="cls-19" x="833.74" y="0">tm</tspan><tspan class="cls-12" x="871.99" y="0">o</tspan><tspan class="cls-24" x="889.53" y="0">sp</tspan><tspan class="cls-11" x="919.93" y="0">h</tspan><tspan x="936.73" y="0">e</tspan><tspan class="cls-21" x="953.86" y="0">r</tspan><tspan x="964.61" y="0">e </tspan><tspan class="cls-25" x="988.54" y="0">f</tspan><tspan class="cls-26" x="999.32" y="0">o</tspan><tspan x="1017" y="0">r </tspan><tspan class="cls-27" x="1036.58" y="0">c</tspan><tspan class="cls-28" x="1052.32" y="0">lie</tspan><tspan class="cls-29" x="1080.71" y="0">n</tspan><tspan class="cls-20" x="1095.27" y="0">t</tspan><tspan class="cls-24" x="1108.97" y="0">s. </tspan><tspan class="cls-6" x="297.75" y="40.8">W</tspan><tspan class="cls-19" x="325.22" y="40.8">h</tspan><tspan class="cls-18" x="341.2" y="40.8">a</tspan><tspan class="cls-23" x="355.31" y="40.8">t a </tspan><tspan class="cls-20" x="399.04" y="40.8">g</tspan><tspan class="cls-21" x="416.34" y="40.8">r</tspan><tspan class="cls-30" x="427.09" y="40.8">e</tspan><tspan class="cls-18" x="443.54" y="40.8">a</tspan><tspan class="cls-23" x="457.65" y="40.8">t </tspan><tspan class="cls-30" x="478.83" y="40.8">s</tspan><tspan x="492.06" y="40.8">a</tspan><tspan class="cls-17" x="507.8" y="40.8">l</tspan><tspan class="cls-6" x="512.6" y="40.8">o</tspan><tspan class="cls-23" x="530.69" y="40.8">n </tspan><tspan class="cls-31" x="553.67" y="40.8">f</tspan><tspan class="cls-17" x="564.45" y="40.8">o</tspan><tspan x="582.13" y="40.8">r </tspan><tspan class="cls-20" x="601.71" y="40.8">f</tspan><tspan x="615.75" y="40.8">i</tspan><tspan class="cls-32" x="621.4" y="40.8">r</tspan><tspan class="cls-19" x="632.41" y="40.8">s</tspan><tspan x="645.23" y="40.8">t </tspan><tspan class="cls-33" x="666.41" y="40.8">r</tspan><tspan class="cls-18" x="675.8" y="40.8">at</tspan><tspan class="cls-3" x="702.66" y="40.8">e se</tspan><tspan class="cls-34" x="757.63" y="40.8">r</tspan><tspan class="cls-35" x="768.65" y="40.8">v</tspan><tspan x="786.47" y="40.8">i</tspan><tspan class="cls-7" x="792.11" y="40.8">c</tspan><tspan x="807.99" y="40.8">e. </tspan><tspan x="564.24" y="81.6"> </tspan><tspan class="cls-36"><tspan x="531.65" y="122.4"> </tspan><tspan class="cls-37" x="538.45" y="122.4">K</tspan><tspan class="cls-38" x="553.69" y="122.4">e</tspan><tspan class="cls-13" x="568.65" y="122.4">v</tspan><tspan class="cls-39" x="584.29" y="122.4">i</tspan><tspan class="cls-23" x="588.2" y="122.4">n</tspan></tspan></text><path class="cls-40" d="M550.25,13.42h-11.5l-4.5-12-4.5,12H518.26L526.91,21l-4.66,12.42,12-6,12,6L541.59,21Z"/><path class="cls-40" d="M584.18,13.42h-11.5l-4.5-12-4.49,12h-11.5L560.84,21l-4.65,12.42,12-6,12,6L575.52,21Z"/><path class="cls-40" d="M516.06,13.42h-11.5l-4.5-12-4.5,12h-11.5L492.72,21l-4.66,12.42,12-6,12,6L507.4,21Z"/><path class="cls-40" d="M617.93,13.42h-11.5l-4.5-12-4.49,12h-11.5L594.59,21l-4.65,12.42,12-6,12,6L609.27,21Z"/><path class="cls-41" d="M651.22,13.42h-11.5l-4.5-12-4.49,12h-11.5L627.88,21l-4.65,12.42,12-6,12,6L642.56,21Z"/></g></g></svg>