<svg xmlns="http://www.w3.org/2000/svg" viewBox="0 0 103 103"><defs><style>.cls-1{fill:#f7f7f7;}.cls-2{fill:none;stroke:#f7f7f7;stroke-miterlimit:10;}</style></defs><title>fb</title><g id="Layer_2" data-name="Layer 2"><g id="Layer_1-2" data-name="Layer 1"><path class="cls-1" d="M69.46,15.23l-9.35,0c-10.5,0-17.29,7-17.29,17.75v8.18h-9.4A1.47,1.47,0,0,0,32,42.61V54.46a1.47,1.47,0,0,0,1.47,1.47h9.4V85.84a1.47,1.47,0,0,0,1.47,1.47H56.55A1.47,1.47,0,0,0,58,85.84V55.93H69a1.47,1.47,0,0,0,1.47-1.47V42.61a1.48,1.48,0,0,0-.43-1,1.46,1.46,0,0,0-1-.43H58V34.2c0-3.33.8-5,5.14-5h6.3a1.46,1.46,0,0,0,1.46-1.47v-11A1.46,1.46,0,0,0,69.46,15.23Z"/><circle class="cls-2" cx="51.5" cy="51.5" r="51"/></g></g></svg>