<svg xmlns="http://www.w3.org/2000/svg" viewBox="0 0 103 103"><defs><style>.cls-1{fill:#f7f7f7;}.cls-2{fill:none;stroke:#f7f7f7;stroke-miterlimit:10;}</style></defs><title>ig</title><g id="Layer_2" data-name="Layer 2"><g id="Layer_1-2" data-name="Layer 1"><path class="cls-1" d="M66.24,19.28h-29A17.88,17.88,0,0,0,19.38,37.14v29A17.88,17.88,0,0,0,37.24,84h29A17.89,17.89,0,0,0,84.11,66.14v-29A17.89,17.89,0,0,0,66.24,19.28ZM78.36,66.14A12.13,12.13,0,0,1,66.24,78.26h-29A12.13,12.13,0,0,1,25.13,66.14v-29A12.13,12.13,0,0,1,37.24,25h29A12.13,12.13,0,0,1,78.36,37.14v29Z"/><path class="cls-1" d="M51.74,35A16.68,16.68,0,1,0,68.42,51.64,16.69,16.69,0,0,0,51.74,35Zm0,27.61A10.94,10.94,0,1,1,62.68,51.64,10.94,10.94,0,0,1,51.74,62.57Z"/><path class="cls-1" d="M69.12,30.09a4.2,4.2,0,1,0,3,1.23A4.23,4.23,0,0,0,69.12,30.09Z"/><circle class="cls-2" cx="51.5" cy="51.5" r="51"/></g></g></svg>