<svg xmlns="http://www.w3.org/2000/svg" viewBox="0 0 309.91 373.53"><title>man</title><g id="Layer_2" data-name="Layer 2"><g id="Layer_1-2" data-name="Layer 1"><path d="M302.48,59.38c-1,2.63-1.71,4.93-5.07,5.24,1.83,1.21,3.14,2.42,5.11,1.47a1.65,1.65,0,0,1,2.22.71,3.32,3.32,0,0,1,.24,2.36,4,4,0,0,0-.24,3c.37,1,.83,1.48,1.79,1.38A3.82,3.82,0,0,1,311,76.28a3.22,3.22,0,0,0,.57.89c2.83,3.41,3.05,7.35,2.22,11.44a21.52,21.52,0,0,1-3.41,8.61,35.2,35.2,0,0,1-3.75,4c-.93.91-2,1.72-3.09,2.68.51,1.1,1.09,2.15,1.48,3.26.19.53.26,1.48,0,1.73-1.11.92-1,2.18-1.07,3.31-.33,4.37-.38,8.76-.85,13.11-.73,6.8-1.71,13.57-2.59,20.36l-.38,3.11c.73-.51,1.17-.79,1.57-1.12,5-4.1,10.85-2.77,13.68,3.08,1.73,3.57,2.18,7.43,2.63,11.3a96.23,96.23,0,0,1-.05,18.2c-.42,5.46-3,9.72-7.13,13.23a36.46,36.46,0,0,1-17.55,7.93,5.66,5.66,0,0,1-5.21-1.74c-1.09-1.08-2.05-2.29-3.35-3.76-.54,4.51-1.83,8.58-1.52,12.93a15.27,15.27,0,0,0-.71,2.55c-.36,3.23-.61,6.47-.91,9.71a14.52,14.52,0,0,1-3.65,8.63c-2.66,3-5.25,6.07-7.89,9.09-.92,1.05-1.67,2.09-1.35,3.6a2.68,2.68,0,0,1-.31,1.77l-.87-2.25c-1.16,1.33-.95,3-1.15,4.38a151,151,0,0,0-1.66,20.91c0,2.32,0,2.35,2.27,2.57a6,6,0,0,1,5.79,6.75A85,85,0,0,0,274.49,302c.55,2.55,1.3,5.06,2.09,7.55s1.7,4.86.19,6.93c1.13,1.9,2.14,3.49,3,5.14a2.48,2.48,0,0,0,2,1.42,13.13,13.13,0,0,1,5.78,2.48c3.69,2.5,7.27,5.15,10.88,7.75a39.35,39.35,0,0,0,11.23,5.9c10.53,3.26,21.14,6.24,31.68,9.46a76.29,76.29,0,0,1,7.62,3.14c1.95.83,3.83,1.8,5.8,2.55,1.17.45,2,1,2.08,2.33a1.94,1.94,0,0,0,1.48,1.85c1.45.54,2.86,1.19,4.34,1.67a15.54,15.54,0,0,1,5.59,2.9,76.47,76.47,0,0,1,5.87,5.8,11.43,11.43,0,0,1,2.59,5.72c1.07,5.4,2,10.83,3,16.24a2.51,2.51,0,0,1,.09,1,1.12,1.12,0,0,1-.63.72,1,1,0,0,1-.81-.44,8.27,8.27,0,0,1-.5-1.83c-1-5.13-1.93-10.27-2.91-15.4a12.24,12.24,0,0,0-3.65-6.57c-1.47-1.42-2.94-2.84-4.46-4.21-2.45-2.22-5.72-2.68-8.63-3.91-1.53-.65-2.8-1.26-3-3.16a1.63,1.63,0,0,0-1-1.14c-2.57-.47-4.75-1.82-7-3-3.67-2-7.69-2.78-11.62-3.95-8.81-2.61-17.62-5.23-26.35-8.07-6.48-2.1-11.9-6.13-17.25-10.23-2.35-1.8-4.89-3.35-7.38-5a6,6,0,0,0-2-.78,2.2,2.2,0,0,0-1.29.31c-.94.48-1.81,1.1-2.77,1.51-.34.15-.87-.12-1.31-.2a5.26,5.26,0,0,1,.49-1.24,5.56,5.56,0,0,1,1.18-.85c-.77-1.82-1.54-3.6-2.49-5.83-1.93,2.16-3.48,4.06-5.2,5.78a37.18,37.18,0,0,1-9.72,6.76,52.25,52.25,0,0,1-16.06,5.21,64,64,0,0,1-18.59-.25c-9-1.31-17.61-4.11-26.26-6.76-7-2.15-13.53-5.33-18.94-10.4-2.15-2-4.05-4.3-6.13-6.53-3.38.81-4.75,3.57-2.85,6.18-.42.86-1,.59-1.55.19-1.23-1-2.29-.57-3.43.18-3.23,2.15-6.44,4.34-9.76,6.34a62.08,62.08,0,0,1-13.81,5.74c-10.12,3.16-20.55,4.47-31,5.59-6,.64-12.06,1.41-18.07,2.2a14,14,0,0,0-3,1,7.55,7.55,0,0,1-1.34.6c-3.23.55-5.07,2.83-6.84,5.27-4.54,6.29-7,13.55-9.59,20.71-.9,2.46-1.64,5-2.38,7.48-.24.8-.2,1.68-.38,2.5-.14.63,0,1.51-1.15,1.58-.75-.55-.41-1.37-.33-2.08a50.63,50.63,0,0,1,3.24-12.71,89.7,89.7,0,0,1,7.82-16.44A25.88,25.88,0,0,1,86,341a6.14,6.14,0,0,1,3.71-1.85,2.55,2.55,0,0,0,1.18-.42,14,14,0,0,1,6.45-1.86c8.71-1,17.42-2,26.12-3.12a107.83,107.83,0,0,0,28.87-7.37,69,69,0,0,0,14.79-9.07,15.37,15.37,0,0,0,4.43-4.34c.35-.61,1.18-1,1.82-1.4.45-.29,1-.5,1.54-.8a10.07,10.07,0,0,1,.63-7.9,64.32,64.32,0,0,0,5.05-22.63c.23-3.87.39-7.76.77-11.62a8.89,8.89,0,0,1,4.86-7.51,27.41,27.41,0,0,1,4.23-1.29,6,6,0,0,0,.14-1.48c-.8-7.87-1.6-15.73-2.49-23.59a5.65,5.65,0,0,0-1.84-3.45,29.1,29.1,0,0,1-3.13-4.4c-.83-1.2-1.68-2.39-2.61-3.7l-1.77.95c.38-.95.62-1.53.8-2-1.2-2.21-2.44-4.29-3.46-6.47s-1.81-4.37-2.69-6.57a1.47,1.47,0,0,1,0-.59c.32-5.12-.79-10.08-1.34-15.55-.67.72-1.05,1.09-1.39,1.49a6.69,6.69,0,0,1-7.22,2.32,15.24,15.24,0,0,1-6.63-3.17c-3.72-3.16-7.52-6.23-10.26-10.36a20.23,20.23,0,0,1-3.11-14.77c.51-3.35.85-6.73,1.41-10.06.7-4.11,1.4-8.21,3.59-11.9,2.33-3.94,4.59-5,9-3.86l2.3.6c-.69-2-1.24-3.82-1.89-5.57a71.64,71.64,0,0,1-3.8-17.34,98.61,98.61,0,0,1-.69-16.91c.07-1.13.18-2.26.26-3.38a2.88,2.88,0,0,0-.39-2.21,2.19,2.19,0,0,1,0-1.78c.8-2,1.68-4,2.59-6,.55-1.18,1.21-2.31,1.82-3.46l-.43-.31L153.59,90c-1.31-1.66.12-2.65.53-3.8.08-.2.59-.27.64-.46,1-4.7,4.66-7.15,8.6-9.73l-3.78-.58c.9-2.12,2.58-2.64,4.16-3a9.72,9.72,0,0,1,6.22.76,1.65,1.65,0,0,1,.71.44,5,5,0,0,1,.39,1.08c-.36.1-.76.37-1.08.29-1-.26-2-.71-3-1a17.18,17.18,0,0,0-2.42-.21c.47,1.47,1.24,2.08,2.66,2a12.86,12.86,0,0,1,2.95.27,7.08,7.08,0,0,1,1.58.8,7.43,7.43,0,0,1-1.59.44c-1.19,0-2.39-.18-3.59-.21a8.46,8.46,0,0,0-5.6,2.21c-1.52,1.25-2.9,2.66-4.3,4-.17.16-.06.59-.09,1,1.25,0,1.9-1.65,3.4-.74-.45,1.44-.62,3.15-1.45,4.4-2.45,3.66-2.88,7.77-3.05,11.92-.41,9.7-.34,19.4,1.92,28.9,1.29,5.43,2.94,10.77,4.45,16.15a5.1,5.1,0,0,0,.65,1l.88-1.54c.92.3,1,1.06,1.12,1.7,1.37,6.53,4.13,12.59,6.38,18.82,0,.13.17.22.45.56a7.34,7.34,0,0,0,.14-1.42,135.73,135.73,0,0,1-.44-17.58c.11-2.53.46-5.05.58-7.58.11-2.32,0-4.64.1-7a8.09,8.09,0,0,1,1.78-5.43c1.37-1.67,1.91-4.06,2.65-6.19,1-2.93,1.93-5.9,2.79-8.88,1-3.59,2-7.2,3-10.8.55-2,1.12-4.09,1.67-6.13.11-.41.39-.91.25-1.21a4.69,4.69,0,0,1,.29-4.17c-1-.82-1.79-1.56-2.66-2.21a2.18,2.18,0,0,0-1.19-.34,3.38,3.38,0,0,1-3.13-2.44,12.62,12.62,0,0,1-.59-1.59c-.27-1.08-.57-2-2-2.1-.4,0-1-.86-1.05-1.4a55.28,55.28,0,0,1-.83-6.9c-.07-2.24.11-4.47-.16-6.74-.35-3,1-5.78,2.18-8.52,1.46-3.57,4.14-6.18,6.89-8.73a43.13,43.13,0,0,0,6.61-7.42c1.06-1.57,1.89-3.3,2.8-5a9.34,9.34,0,0,1,.53-1.15c.27-.35.73-.85,1-.8.72.12.67.79.54,1.37s-.32,1.09-.44,1.64-.14.93-.2,1.41c.27,0,.47.1.52,0,3.26-3.43,6.57-6.81,9.72-10.34a36.9,36.9,0,0,0,2.7-4.25c.23-.34.72-.5,1.09-.74.17.42.58.93.46,1.26-.58,1.73-1.27,3.43-2,5.11-1.77,4.14-3.57,8.26-5.35,12.39l.45.3c.77-.89,1.58-1.75,2.29-2.69a48.85,48.85,0,0,1,7.81-8c3.07-2.53,6.23-4.91,10-6.23,2.68-.93,5.17-2.46,8.1-2.68s5.61-.5,8.41-.76c.21,0,.47-.09.63,0,.44.27.83.61,1.24.92-.33.38-.61,1-1,1.1a22.82,22.82,0,0,0-7.73,3.82c-.44.31-.81.72-1.6,1.42l4.12-.72a32.49,32.49,0,0,1,12.84.49c1.79.4,3.62.65,5.4,1.08.55.13,1.4.64,1.41,1,.06,1.23.92,1.22,1.7,1.52,1.92.72,3.82,1.47,5.71,2.27a16.06,16.06,0,0,1,6.72,5.66c.42.57.84,1.13,1.25,1.71a5.79,5.79,0,0,0,4.72,2.8,5.15,5.15,0,0,1,4.76,3.29A2.27,2.27,0,0,0,278,49a9.7,9.7,0,0,0,1.87.39c4,.69,6.86,3.15,9.32,6.18.36.44.72.87,1.06,1.33,2.74,3.72,5,4.2,10.09,2.94C300.92,59.65,301.51,59.57,302.48,59.38ZM200.21,297.49c1,.37.95,1.3,1.06,2.12a102.13,102.13,0,0,1,.22,21.55c-.17,2-.5,4-.75,6,8,4.07,32.33,8.94,37.77,7.69-.59-5.92-1.22-11.8-1.74-17.69-.64-7.2,0-14.39.06-21.58,0-5-.24-10-.38-15.09l-14.56-.76c-.24,6-.53,11.74-.68,17.51S221,308.82,221,314.6s.21,11.48.11,17.36a1.57,1.57,0,0,1-1.41-1.83c0-2.54-.06-5.08-.07-7.62,0-4.31,0-8.62,0-12.93,0-1.74.2-3.49.16-5.24s.76-3.37-.13-5c.19-4.8.36-9.59.58-14.39.08-1.74.3-3.47.47-5.32-.66-.08-1.13-.15-1.61-.19a98.28,98.28,0,0,1-14.87-2.23c-2.32-.56-2.52-.44-2.92,1.86a14.39,14.39,0,0,0-.18,1.47,90.06,90.06,0,0,0-.09,15.23,1.63,1.63,0,0,1-.75,1.81c-.24-.28-.64-.54-.67-.83-.15-1.68-.28-3.38-.3-5.07,0-5.13-.06-10.27,1.1-15.45-1.25-.48-2.46-.86-3.58-1.41a38.59,38.59,0,0,1-5.17-2.84,15.63,15.63,0,0,1-2.49-3,12.76,12.76,0,0,0-.65,2.12,45.11,45.11,0,0,0-.35,5.06c0,6.91,1,13.78.52,20.73a40.81,40.81,0,0,1-5.26,17.48c-.44.78-.84,1.59-1.28,2.42a41.14,41.14,0,0,0,16.75,9.93c.25-1,.46-1.73.64-2.48a9,9,0,0,0,.18-1A114,114,0,0,0,200,300c-.06-.71-.59-1.47.57-1.75Zm-19-99.18c-1.18.47-1.71-.69-2.56-1.18a3.69,3.69,0,0,0,.36,2.94,6.57,6.57,0,0,1-.43,5.72c-.18.34-.6.55-.91.82a8.44,8.44,0,0,1,.49-1.94c.31-1.48,1.24-3,.06-4.45a4.12,4.12,0,0,1-.68-2.35,13.46,13.46,0,0,0-1-4,51.23,51.23,0,0,0-3.36-5.05c.28,1.68.52,3,.71,4.29.29,2,.57,3.91.8,5.87.2,1.75.32,3.5.51,5.25,0,.11.29.2.66.44V203c1.09.35.82,1,.66,1.61-.21.75-.63,1.43-.8,2.18-.31,1.33-.34,2.63.87,3.61,1-.56,2-1,2.81-1.61s1.53-1.29,2.29-1.94l.3.38a6.4,6.4,0,0,1-5.45,3.86,6.78,6.78,0,0,0,1.6,4.34l4-1.82-.07.06.68.78-4.09,2.27,1.72,2.85,4.59-3.67c-.32,1.87-.32,1.87-2.23,3.92-1.37,1.48-1.29,2,.73,3.32.72-1.28,1.54-2.51,2.12-3.83s1.06-3,1.65-4.54a7.51,7.51,0,0,1,.95-1.4l.42.16v9.64l1,.52-2.2,1.61c.2-1.63.37-2.79.46-3.95s.43-2.48-.4-3.88c-1.14,1-1,2.43-1.6,3.46s-1.44,2.23-2.2,3.4c.65,1,1.22,2,1.89,2.87.94,1.24,1.86,1.35,3,.31a20.81,20.81,0,0,0,1.78-2l1.6.61,0-.06c-1,1-2.08,1.91-3.09,2.9s-1,1.31.31,2.37c1.78-1,2.22-3.32,4.27-4a21.68,21.68,0,0,1-2.87,3.82c-.77.79-.85,1.53-.08,2.16a32.4,32.4,0,0,1,3.81,4.05c.06.07.26,0,.43.05C197,235,198,232.1,199,229.12c.4.81,1,1.76.76,2.38-1,2.5-1.91,5.11-4.7,6.61l4.75,5.06c2.34-3.77,2.37-7.86,3-11.81,1.06,4.6-.32,8.92-1.7,13.19.85.68,1.52,1.21,2.32,1.83.19-2.15-.8-4,.17-6.1.33,2.14.71,4,.9,5.91.23,2.21,1.74,3.4,3.61,4.84l-1.4-4.67a41.84,41.84,0,0,1,2.61,4.55c.85,1.49,1.13,3.51,3.31,4.07-1.74-3.83-1.83-4.42-1-5.94.25,1.27.5,2.53.84,4.29.54-.91.8-1.33,1-1.76l.42.09c-.09.93-.16,1.86-.28,2.78A2.09,2.09,0,0,0,215,257l1.82.75-2.48-6.8,2.44-1.16c-.48.67-.68.92-.84,1.19-.48.85-.27,2.41.53,2.53,1.33.2,1.21,1.11,1.49,1.95a15.63,15.63,0,0,0,1.12,2.51,1.51,1.51,0,0,0,1.94,1l1.4-3.31a4.25,4.25,0,0,1,.35,2.16c-.13,2-.08,2.08,2.15,1.87.1-1,.2-2.08.3-3.14h.43c.08,1.07.17,2.15.27,3.39a33.37,33.37,0,0,0,9.24.31,45.93,45.93,0,0,1,.57-5.59c.28-1.28-.08-1.68-1.18-2.21s-2.37-1.12-2.7-2.67l5,3.06c-.62,2.29-1.27,4.66-.36,7.06,1.52.05,1.5-.93,1.62-1.85a6.25,6.25,0,0,1,.91-3.34c.19,1.84-.7,3.26.09,4.81l3.16-1.16c-.12-1.12-.16-2.1-.35-3s-1.48-1.24-1.42-2.51l4.6,3.08-1.95.46.34,1.41c1.92-.69,1.92-.69,3.31-4.06l.74,1.55c1.08-.65,1.87-1.27,1.79-2.53s-1.1-1.47-2-1.85l-.94,1.34-.4-.13c.13-1,.26-2,.41-3.09l3.21,1.93a12.67,12.67,0,0,0,1.17-4.74c-1.39-1.19-3.17-1.88-3.37-4,1.62,1.47,2.89,3.4,5.38,3.56.37-1,.71-1.88,1-2.78.39,2.3-.76,4.48.35,7.16,1.58-3.35,1.8-6.86,4.18-9.39l-2.63,7.69c1.6-.57,2.27-1.25,2.25-2.63a12.17,12.17,0,0,1,.54-2.53l.4.05.19,2a9.82,9.82,0,0,0,1.84-3.81,1.61,1.61,0,0,0-.5-2,6.83,6.83,0,0,1-2.53-5.75,25,25,0,0,0-.24-3.17l1.39.72c.14-.17.36-.31.4-.49.49-2.43,2-4.71,1-7.38a6.86,6.86,0,0,1-.15-2.32,6.24,6.24,0,0,1,.38-1.34,4.1,4.1,0,0,1,.35.91,12.81,12.81,0,0,0,.71,5.21,1.12,1.12,0,0,1-.07,1c-1.5,1.84-1.74,4.11-2.29,6.28a5.94,5.94,0,0,0,.69,4.47,1.86,1.86,0,0,0,2.58,1.06L261,244.28l.47.23a6,6,0,0,0,1-1.81,32.78,32.78,0,0,0,.17-4c-.48-1-.95-2,.2-3.27.39,1.95,0,4.06,2.19,4.81,1.23-1.48,1.47-1.77,1.06-2.38a18.75,18.75,0,0,1-2.44-5.82c-.1-.41-.6-.72-.95-1.12.29-1.24.29-2.64.92-3.66a3.79,3.79,0,0,0,.41-3.2,17.68,17.68,0,0,1,0-7.35,3.44,3.44,0,0,1,1.09-2.28,2.73,2.73,0,0,1,.08.81,16.81,16.81,0,0,0-.19,9.61,2.7,2.7,0,0,1-.07,1.19c-.22,1.45-.58,2.89-.66,4.35a3.46,3.46,0,0,0,2.32,3.61c.33.55-.33,1.44.7,1.85a7,7,0,0,1,.64-1.37,8,8,0,0,1,1.17-1.09c-.17-.79-.3-1.46-.44-2.11,1.67-.85,1.73-1.19.4-2.1a11.74,11.74,0,0,1-1.64-.91,3.24,3.24,0,0,1-1.13-1.83,12.31,12.31,0,0,1,.88-3.14c.23.63.51,1,.46,1.33-.3,2.47,1,3.79,3.11,4.65.17.07.28.28.4.41-1.08,2.2-1.08,2.2-.21,3.63.51-.44,1.05-.84,1.51-1.31.84-.85.89-2.81.05-3.47a8.89,8.89,0,0,1-3.14-6.15c-.26-1.86-.46-3.72-.71-5.73,1.6.65,2.21,2.54,4,3-2.34-6.78-2.34-6.78-1.18-8,0,4,2.59,6.93,3.5,10.72l-4.76-2.87c-.11,2.71,2.25,4.13,2.12,6.42l1.34-.18.73,3.07h.43l.7-1.61,1,.82c.83-1.52.93-2.83-.42-4.25-.11.82-.19,1.43-.27,2l-.47,0c0-.66,0-1.32,0-2,.08-1.75.09-1.75,2-1.91l-.61-3.53c1.07-.9,1.08-.9.86-2.19-.09-.56-.27-1.1-.38-1.65-.33-1.55-.71-3.1-.94-4.66a6.25,6.25,0,0,1,.2-2.1c.13-.62.56-1.05,1.23-.84a1,1,0,0,1,.67,1.45l-1-.26c-.23,2.89-.23,2.9.66,4.42.16-1.17.28-2.09.41-3l.44,0,.72,6.25a57.34,57.34,0,0,0,1.07-6.24c.29-1.71.08-3.05-1.64-3.87-.42-.2-.67-.72-1.06-1-.68-.52-.26-1,0-1.46h0c.36.13.82.16,1.06.4.62.64,1.14,1.37,1.76,2.14,1.11-2.69,1.08-2.77-.89-4.41a4.56,4.56,0,0,1-1.93-2.8c1.16.75,1.69,2.41,3.27,2.36,1.26-2-.9-3.67-.12-6,.21.87.31,1.28.46,1.88.36-.3.69-.43.73-.63.62-3.16,1.2-6.32,1.79-9.48l-.42-.16c-.35.51-.7,1-1,1.52-1.54,2.45-3.07,4.91-4.61,7.37-.45.7-.86,1.46-1.88,1.43a2.42,2.42,0,0,1,.5-2.55c1-1.61,2.08-3.19,3.09-4.81,2.59-4.13,5.09-8.31,6.31-13.12a42.78,42.78,0,0,1,1.85-5.19c.15-.37.73-.88,1-.82.71.14.65.79.45,1.37-.55,1.68-1.1,3.35-1.66,5s-1.65,3.49-1.63,5.22a36.1,36.1,0,0,1-1,7.5,4.85,4.85,0,0,0,0,2.88c1.23,2.3,2.51,4.62,4.63,6.27a3.6,3.6,0,0,0,3.1,1c6.32-1.32,12.19-3.51,17.07-7.95,2.89-2.64,5.21-5.53,5.75-9.58a78.08,78.08,0,0,0-.58-26.37,18.94,18.94,0,0,0-2.61-6,5.7,5.7,0,0,0-7.83-1.85,22,22,0,0,0-4.45,3.84A51.43,51.43,0,0,0,296,157c-.68.94-1.41,1.52-2.38,1.33-2.07,3.26-4,6.36-6,9.45a2.63,2.63,0,0,1-.7.78,1.14,1.14,0,0,1-1.89-.8,3.77,3.77,0,0,1,.11-1.25,135.93,135.93,0,0,0,2.55-20.39,44.55,44.55,0,0,0-.17-4.71c-2.4-.27-2.85-1.8-3-3.76a64.89,64.89,0,0,0-.94-7.34c-.93-5.06-1.8-10.14-3-15.14a68.24,68.24,0,0,0-5.44-14.44,5.7,5.7,0,0,0-3.51-3.12A19.57,19.57,0,0,1,267,95.56a84,84,0,0,1-7.22-5.19A15,15,0,0,0,252.34,87c-2.65-.36-5.31-.64-8-1-.36,0-.66-.56-1-.85.31-.31.61-.87.95-.89a22.6,22.6,0,0,1,3.39.06c2.25.15,4.5.44,6.76.53,7.66.28,15-1.56,22.31-3.54a72.39,72.39,0,0,0,21.65-10.45c.85-.58,1.58-1.31,2.6-2.17-1-.63-1.62-1.13-2.34-1.51a25.06,25.06,0,0,0-2.89-1.31,8.82,8.82,0,0,0-2.19-.56c-1.76-.2-3.53-.21-5.27-.47a35.75,35.75,0,0,0-12.84.34,57.56,57.56,0,0,0-18.84,7.22,95.72,95.72,0,0,0-11.85,8.5,39.83,39.83,0,0,0-2.82,3c-.22.22-.48.4-1.11.93.07-.9,0-1.44.17-1.74a27.69,27.69,0,0,1,2.18-2.55,51.84,51.84,0,0,1,10.35-8,60.82,60.82,0,0,1,17.28-7.78,45.25,45.25,0,0,1,19.46-1.29,21.18,21.18,0,0,0,5.89-.13,3.56,3.56,0,0,0,3-1.6c-.61,0-1,.06-1.43.12a8.19,8.19,0,0,1-8.36-3.38c-.69-.9-1.51-1.69-2.21-2.58A13.84,13.84,0,0,0,277,50.52a7.75,7.75,0,0,1-1.72-.58l-1.19-.88c.3-.15.43-.2.55-.27l.79-.51a8.21,8.21,0,0,0-2.08-1.45A24.47,24.47,0,0,0,268,45.74c-2.95-.12-5.91,0-8.87.19a42.32,42.32,0,0,0-18.94,5.4c-9.91,5.6-15.09,14.11-16.18,25.29a4.37,4.37,0,0,0,.48,3.1,7.67,7.67,0,0,1,1.67-.2,1.31,1.31,0,0,0,1.44-1,25.45,25.45,0,0,1,9-10.88c.15-.1.18-.35.29-.51a12.8,12.8,0,0,1,1.27-1.64,60.79,60.79,0,0,1,14-10.18A58.4,58.4,0,0,1,270.91,49a3.31,3.31,0,0,1,2.95.66c.32.29,1,.16,1.5.23-.72.18-1.44.41-2.18.55-3,.58-6.15.91-9.11,1.76a64.91,64.91,0,0,0-8.68,3.37,42,42,0,0,0-11.3,7c-3.46,3.12-6.78,6.38-10.14,9.6a20.08,20.08,0,0,0-5.77,9.46,7.2,7.2,0,0,1-1,1.55c-.37-1-.58-1.55-.68-1.84-1.39-.31-2.6-.61-3.82-.84a2.24,2.24,0,0,0-1.39,0c-1.67,1.07-3,.28-4.21-.74-.75-.61-1.47-1.26-2.07-1.78-2.5.91-4.76,1.7-7,2.56a2.62,2.62,0,0,1-3.11-.48,3.59,3.59,0,0,0-.8-.49,1.36,1.36,0,0,0-.29.18,3.7,3.7,0,0,0-.31.55,3.58,3.58,0,0,1-3.6,2.41,4.72,4.72,0,0,0-2,1,15.94,15.94,0,0,1-2.82,1.8,3.9,3.9,0,0,0-2.21,1.81c-.34.54-.63,1.11-1,1.62-1.1,1.57-2,1.89-3.81,1.36-.86-.25-1.68-.62-2.5-.94-.84,2-.82,2-.44,3.69a3,3,0,0,1,0,1.22c-.89,3.56-1.7,7.14-2.75,10.65-2,6.69-4.11,13.34-6.25,20a8.59,8.59,0,0,1-1.6,3,4.91,4.91,0,0,0-1.19,3.28c-.16,4.16-.42,8.31-.6,12.47-.13,3-.34,5.92-.25,8.87.18,6,.54,12,.81,18,0,.61.23,1.4-.6,1.61s-1.06-.5-1.28-1.12c-.08-.2-.15-.4-.22-.6-1.1-2.9-2.23-5.79-3.3-8.71-.85-2.32-1.59-4.68-2.45-7-1-2.6-1.74-5.25-3.87-7.35a10.77,10.77,0,0,0-6.25-3.24,4,4,0,0,0-4.11,1.67,24.28,24.28,0,0,0-3,6c-1.77,6.13-2.32,12.49-3.1,18.79a17,17,0,0,0,3.09,11.85c2.85,4.23,6.79,7.36,10.72,10.47a11.53,11.53,0,0,0,5.47,2.18c1.53.24,3.17.26,4.11-1,1.12-1.54,3.74-2.55,2.37-5.26a.66.66,0,0,1,0-.42c.54-2.33-.24-4.43-1.09-6.54-.65-1.56-1.31-3.13-1.84-4.74a11.36,11.36,0,0,1-.92-4.51c1.19-.24,1.34.46,1.6,1.25a61,61,0,0,0,2.41,6.76,79.1,79.1,0,0,0,9.41,15.57,7.71,7.71,0,0,1,.82,2.28ZM190.67,236l-.51.21c0,.26,0,.52,0,.77.73,7.95,1.48,15.89,2.16,23.84a42.72,42.72,0,0,1,.27,7.82,2.63,2.63,0,0,0,1.7,3.09,51.45,51.45,0,0,0,10.76,3.76,84.85,84.85,0,0,0,17,2.26c10.51.51,21,.86,31.56,1.19a18.78,18.78,0,0,0,7.68-1.35c2.15-.86,2.2-1,2.1-3.26-.14-3.25-.46-6.5-.34-9.73A132.93,132.93,0,0,1,264.9,245a4.09,4.09,0,0,0-.16-1c-.52.62-.95.95-1.09,1.36a6.23,6.23,0,0,0,0,1.69l-1.34-1c-1.15,1.57-3.6,1.83-3.41,4.56-1.06-1.05-1.76-.63-2.48.06-.53.53-1.14,1-1.72,1.46L250.13,256a3.48,3.48,0,0,1-.93.72c-1.17.38-1.54,1.1-1.08,2a5.72,5.72,0,0,0-2.13.25,28.48,28.48,0,0,1-5.66,2.2,25.05,25.05,0,0,1-8.32,1.3,48.89,48.89,0,0,1-8.37-.68,6.54,6.54,0,0,0-1,0l-.92,1.87a6.24,6.24,0,0,0-4.4-3.36c-1.72-.34-3-2.13-4.9-1.46a9.56,9.56,0,0,0-1.16-1.87c-4.27-4.12-8.59-8.19-12.86-12.31-1.87-1.8-3.69-3.66-5.46-5.56A35,35,0,0,1,190.67,236Zm65.94,94.59-.67.23a9.64,9.64,0,0,1-1.28-2c-1-3.14-2-6.29-2.14-9.62q-.28-10.47-.39-21c-.06-5.09-.13-10.17-1.4-15.14-.21-.8-.54-1.56-.85-2.42-4.13.14-8.1-.49-12,0,0,1.12-.06,2,0,2.81a171.7,171.7,0,0,1,.25,19.25c-.1,4.09-.19,8.19,0,12.27.3,5.14.91,10.26,1.43,15.39a20.68,20.68,0,0,0,.64,3.11c.35,1.38.54,1.51,1.89,1.38a49.91,49.91,0,0,0,19.37-5.76,21.84,21.84,0,0,0,5.63-3.89c-4.85-11.18-3.92-12.33-3.77-21,.06-3.52.72-7,.86-10.56s0-7.33-.07-11c0-1.26-.28-2.53-1.05-3.11l-11.25,1.64a16.15,16.15,0,0,0,.33,1.82,43.39,43.39,0,0,1,1.34,11.34c.12,6.35.3,12.7.32,19.05a43.61,43.61,0,0,0,2.71,16A4.08,4.08,0,0,1,256.61,330.63Zm7.53-286.85a7.4,7.4,0,0,0-4.72-2.23,43.78,43.78,0,0,0-7-.17c-7.4.65-14.82,1.34-21,6.12-.25.2-.68.16-1.3.29a7.09,7.09,0,0,1,.5-1,11.48,11.48,0,0,1,5.2-3.52,53.06,53.06,0,0,1,23.51-3.2c1.42.1,2.78.91,4.16,1.39.4.14.8.26,1.4.45a12.42,12.42,0,0,0-5-5.11c-6-3-12.18-5.23-19.12-4.26a27,27,0,0,0-9.17,3.11c-9.34,5-15.19,12.69-17.31,23.07-.87,4.26-.49,8.57,0,12.87a9.8,9.8,0,0,0,2.74,6c2,2,2.42,2.16,4.92,1,.12-.06.19-.2,0,0,.68-3.46,1.16-6.6,1.94-9.66a25.54,25.54,0,0,1,4.5-9.49,40.84,40.84,0,0,1,28.44-14.88C259.13,44.45,261.43,44.07,264.14,43.78Zm-61.42-13c-.46.14-.64.13-.72.22-3.07,3.4-6.26,6.7-9.16,10.25a28.53,28.53,0,0,0-5.9,11.61c-.5,2.13-1.12,4.24-1.5,6.39a49.81,49.81,0,0,0-1.05,7.93,20.11,20.11,0,0,0,3.25,11A9.69,9.69,0,0,0,189,79.6c-.09-1-.11-1.52-.18-2-.17-1.18-.43-2.36-.54-3.56a111.29,111.29,0,0,1,0-20.89c.11-1.15.06-2.54,1.45-3.54a6.08,6.08,0,0,1,.23,1.29c-.15,1.69-.47,3.36-.5,5-.07,4.66-.18,9.33,0,14a82.33,82.33,0,0,0,1.11,8.8,6.81,6.81,0,0,0,4.23,5.42c.51-.42,1.06-1,1.68-1.37,1-.71,1.88-1.64,3.33-1.67,2.39,0,3.67-2.39,2.69-4.65a21.71,21.71,0,0,1-1.21-14.29,54.43,54.43,0,0,1,13-23.29,76.93,76.93,0,0,1,10.82-9.59c2.37-1.78,4.87-3.36,7.3-5a10.28,10.28,0,0,0,.86-.73,3.07,3.07,0,0,0-.78-.22,7.69,7.69,0,0,0-1.27.11,40.84,40.84,0,0,0-18.34,7.72c-6.8,5.21-12.26,11.44-15.19,19.62-2.52,7-4.35,14.18-4.15,21.73a12.94,12.94,0,0,1-.22,1.89c-1.19-.85-1.28-.85-1.28-1.89a33.78,33.78,0,0,1,.25-6.13c1-5.19,2.25-10.33,3.35-15.5A91.77,91.77,0,0,1,200.94,35C201.5,33.66,202.07,32.34,202.72,30.83Zm75.12,71.65c.36,1,.55,1.63.75,2.21,1.08,3.12,2.26,6.22,3.24,9.37,2.22,7.18,3,14.63,4.05,22,.14,1,.35,2.07.51,3,2.41.62,2.75,1,3,3.31a15.5,15.5,0,0,1,.11,3c-.6,6-1.26,11.93-1.88,17.9a7.27,7.27,0,0,0,.05,1.1c.63-.8,1.06-1.26,1.39-1.77.89-1.36,1.7-2.76,2.6-4.12.77-1.17,1.14-2.81,3-2.78.15,0,.31-.27.44-.43.88-1.11,1.78-2.2,2.58-3.36a2.73,2.73,0,0,0,.33-1.35c.07-.9,0-1.82.11-2.71.67-4,1.5-7.89,2.08-11.87.52-3.62.87-7.26,1.15-10.91.29-3.87.37-7.76.64-11.63a12.19,12.19,0,0,1,.77-4.34c.79-1.69.32-2.93-.58-4.47l-2.32,1.07a16.92,16.92,0,0,1-9.49,1.49,33.86,33.86,0,0,1-10.13-3.56Zm-18.63-15c1,.84,1.58,1.24,2.06,1.75,2.42,2.54,5.37,2.8,8.59,2a103.39,103.39,0,0,0,19.34-6.84c2.61-1.19,5.07-2.71,7.61-4.07.52-.28,1.07-.72,1.86.08A8.55,8.55,0,0,1,297,82c-2.86,1.51-5.72,3-8.68,4.34s-5.89,2.41-8.9,3.41-5.8,1.71-8.73,2.48c-1.25.33-2.56.47-4.09.73a12.89,12.89,0,0,0,5,2.79,17.78,17.78,0,0,0,10.77,1.12,44.59,44.59,0,0,0,11.88-5,31.62,31.62,0,0,0,5.8-4.22c3.15-2.9,3.93-7,4.41-10.95a5.94,5.94,0,0,0-1.18-4.27,17.86,17.86,0,0,1-2.43,2.06q-2.94,1.7-6,3.15c-2.75,1.3-5.57,2.45-8.32,3.73a42.06,42.06,0,0,1-9,3.17,94.14,94.14,0,0,1-13.35,2.33C262.72,87,261.21,87.27,259.21,87.51Zm-16.09-57c-6.47-1.5-12.68-1.1-18.44,2.35a42.79,42.79,0,0,0-7.91,6.35A51.1,51.1,0,0,0,204,59.11a25,25,0,0,0-1.09,13.34,13,13,0,0,0,2.93,6,2,2,0,0,0,1.61.59c1.78-.43,3.5-1.07,5.26-1.6,1.06-.32,1.24-.9.93-1.93A39.83,39.83,0,0,1,212.17,63a31.49,31.49,0,0,1,6-17.61c5.17-7.45,12.06-12.4,21.06-14.2C240.48,30.9,241.8,30.73,243.12,30.53Zm42.83,70L286,100a3.12,3.12,0,0,1,.74-.35c.48-.1,1-.1,1.46-.18,3.9-.67,7.76-1.41,11.27-3.44,3.3-1.91,5.57-4.78,7.62-7.83,2.19-3.25,3.87-6.65,2.38-10.83-.71-2-1.2-2.52-3.54-2,0,.38-.08.78-.09,1.19-.14,6-2.3,11-7.3,14.53a66.54,66.54,0,0,1-7.1,4.2,31.74,31.74,0,0,1-11.85,3.75c-.91.08-1.84,0-3.21,0,.64.58.86.85,1.14,1a30.83,30.83,0,0,0,14,5.54,11.31,11.31,0,0,0,4.81-.44c7.29-2.54,13-6.85,15.14-14.7.76-2.76,1.37-5.52.34-8.65a33.55,33.55,0,0,1-1.55,4A31.52,31.52,0,0,1,302,96.13c-4.32,3.33-9.25,4.32-14.4,4.9A4.52,4.52,0,0,1,286,100.53ZM268.55,324.2c.5-.39.77-.59,1-.81,2.62-2.28,4.07-5.36,5.68-8.33a3.39,3.39,0,0,0,.13-2.87c-.38-1.14-.69-2.3-1.06-3.44a80.17,80.17,0,0,1-3.73-21.88c-.13-3.67,0-7.35.15-11a3.53,3.53,0,0,0-1.77-3.37,8.32,8.32,0,0,0-4.15-1.09c.07.92.12,1.6.17,2.24,2.36.57,2.56,1.13,1.19,2.93l-1.5,2a22.9,22.9,0,0,1,.72,2.68,40.3,40.3,0,0,1,.46,5.25c0,3.73-.16,7.47-.32,11.2-.2,4.58-.67,9.16-.67,13.73S266.45,320,268.55,324.2ZM174.82,78.45l.4-.06a4.94,4.94,0,0,0,.14-.75c.13-3.73.24-7.47.4-11.2a2.46,2.46,0,0,1,1.3-2.44c0,1.07.05,1.9,0,2.73a50.47,50.47,0,0,0,0,11,41.1,41.1,0,0,0,1.38,5.75c.18.62.79,1.57,1.21,1.57a3.79,3.79,0,0,1,3.57,1.79.5.5,0,0,0,.39.13c1.69-.19,2.93.77,4.29,1.53a1.76,1.76,0,0,0,2.49-.28c.77-1.07,1.4-2.22,2.18-3.48-2.25-.49-3.2-2.16-4.44-3.48-4.13-4.41-5.3-9.85-5.4-15.63-.08-4.6,1.45-8.9,2.73-13.23a34.33,34.33,0,0,1,3.61-8.52,14.38,14.38,0,0,0,1-2.56,1.45,1.45,0,0,0-1,.63,42.4,42.4,0,0,1-7.22,8,18.51,18.51,0,0,0-6.41,10,60.06,60.06,0,0,0-1.25,16.43A9.56,9.56,0,0,0,174.82,78.45Zm16.09,187.88c0-.75,0-1.38,0-2a3,3,0,0,0-.16-1.25,1.79,1.79,0,0,0-1-.93,3.05,3.05,0,0,0-3.47,1.8,40.29,40.29,0,0,0-2.46,7.62c-.8,4.8-1.24,9.67-1.69,14.53a49.65,49.65,0,0,1-3.64,15.84,16,16,0,0,0-1.11,3.64c-.63,3.36.74,6.22,2.46,9,.2.32.63.5,1,.82a8.47,8.47,0,0,0,.68-.92,38.09,38.09,0,0,0,5.52-18.07c.18-4.86-.17-9.74-.24-14.62-.06-3.72-.67-7.43.17-11.18A5,5,0,0,1,190.91,266.33ZM292.7,76.47a23.92,23.92,0,0,0,9-4.79,9,9,0,0,0,1.78-2.82c.15-.3-.08-.8-.14-1.2l-.42-.09c.11,2.35-1.62,3.27-3.12,4.37-.45.34-.94.61-1.42.91Zm-40.1,170.4c-.42.09-.86.08-.9.21a29.13,29.13,0,0,0-1.07,3.72c0,.19.8.77,1.21.75s.91-.52,1.38-.82C253,249.39,252.81,248.18,252.6,246.87Zm25.77-22.64.51.05.3-1.8C278.14,222.92,278.1,223.55,278.37,224.23Zm-8.86,11.36.45.17.49-1.12-.53-.2Z" transform="translate(-69.97 -21.66)"/><path d="M345.19,395.19a14.37,14.37,0,0,1,1-8c.38-1.06.74-2.13,1.18-3.17a9.1,9.1,0,0,1,.88-1.37c.15-.23.41-.42.45-.66.87-5.54,2.69-10.87,3.62-16.39.22-1.26.37-2.52.59-3.76a5.28,5.28,0,0,1,.47-1.07c.95.28,1,.88.84,1.55q-.66,3.63-1.3,7.26a37.35,37.35,0,0,0-.73,5.39c1.65-3.41,1.85-7.22,3-10.74.72-.14,1,.17.93.79a66.48,66.48,0,0,1-3.21,12.65c-1,2.46-2.1,4.86-3.07,7.33-.65,1.61-1,3.34-1.74,4.92S346.28,393.21,345.19,395.19Z" transform="translate(-69.97 -21.66)"/><path d="M91.87,342.84c1.1,3.07,1.62,6.22,2.44,9.29s1.62,6.42,2.55,9.6,1.94,6.18,3,9.24,2.17,6,3.26,9c-1.06.37-1.38-.18-1.65-.79-.54-1.22-1.12-2.43-1.59-3.69a194.27,194.27,0,0,1-6.72-22.28c-.71-2.8-1.38-5.61-2-8.42C91,344.13,90.68,343.4,91.87,342.84Z" transform="translate(-69.97 -21.66)"/><path d="M93.53,343.69c1.27-.05,1.49.6,1.61,1.34.94,6,3.13,11.54,5.27,17.13,1.83,4.81,3.74,9.58,5.59,14.38a3.31,3.31,0,0,1,.14,2c-.35-.24-.84-.4-1-.74a25.9,25.9,0,0,1-1.49-3.26c-2.38-6.19-4.81-12.36-7-18.61-1.23-3.44-2.08-7-3.06-10.54A7.27,7.27,0,0,1,93.53,343.69Z" transform="translate(-69.97 -21.66)"/><path d="M163.12,93.69c-.09-2.82,5.41-8.71,8.79-9.42.52.61.19,1.11-.33,1.39-3.1,1.67-5,4.5-7,7.24C164.26,93.39,163.93,94,163.12,93.69Z" transform="translate(-69.97 -21.66)"/><path d="M171.88,81.08c-1.45.7-3.13,0-4.61.49s-3,1.1-4.58,1.68c-.65-1.35.37-1.73,1.11-2.09a11.67,11.67,0,0,1,7-1.16,4.3,4.3,0,0,1,1.08.48Z" transform="translate(-69.97 -21.66)"/><path d="M172.41,86.93c.77,2.06-1,2.7-1.45,3.9a26,26,0,0,1-2.14,3.87c-.28-.55-.65-1-.57-1.17A16.59,16.59,0,0,1,172.41,86.93Z" transform="translate(-69.97 -21.66)"/><path d="M175.9,90.58c.25.41.56.75.49.86a55,55,0,0,1-3,5.22C173.09,94.7,173.73,93.26,175.9,90.58Z" transform="translate(-69.97 -21.66)"/><path d="M284.32,149.06c-.56-.44-1-.75-1.37-1.09a38.68,38.68,0,0,0-16.9-9.27,30,30,0,0,0-12-.85,15.35,15.35,0,0,0-8,4.05c-.32.29-.61.6-.93.87-.09.08-.26.08-.47.13a2.27,2.27,0,0,1-.77-3c.84-2.16,1.83-4.27,2.76-6.39.11-.26.38-.46.45-.72.48-1.8,1.91-2.52,3.48-3a22.38,22.38,0,0,1,10.82-1.11,37.75,37.75,0,0,1,6.39,1.33A20,20,0,0,1,273,133a43.54,43.54,0,0,1,5.84,5.17,70.06,70.06,0,0,1,5,6.55A4.09,4.09,0,0,1,284.32,149.06Zm-6.15-9c0,2.54,0,2.54,2.83,3.7l-2.87-3.66c-.41-1.71-2-2.5-3-3.7a3.75,3.75,0,0,0-3-1.35c-1.9,0-3.8.06-5.69.22-1.48.12-3,.42-4.44.64v.55c1.54.14,2.93.93,4.62.59a6.9,6.9,0,0,1,3.1.09c2.67.78,5.46,1.32,7.85,2.88C277.72,140.1,278,140,278.17,140Zm-7.35-6.68c-2-1.86-3.9-2.76-6.3-1.66q-2.41,1.08-4.77,2.27a7,7,0,0,0-1.1.95ZM263,130.44a27.34,27.34,0,0,0-2.94-.48,2.42,2.42,0,0,0-1.52.42c-1.93,1.61-3.81,3.29-5.68,5a11.87,11.87,0,0,0-1.12,1.41,4.69,4.69,0,0,0,1.21-.15C256.24,134.63,259.49,132.63,263,130.44Zm-11.3.89c-2.64.41-4.21,2.25-4.8,5.57C248.61,134.94,250.08,133.23,251.73,131.33Zm-.67,3.79,5.42-4.71C254.73,130.31,252.72,132,251.06,135.12Z" transform="translate(-69.97 -21.66)"/><path d="M179.44,145.12l-1.7-1.36a4.75,4.75,0,0,1,.4-1.27c2-2.77,3.78-5.78,7-7.52,1.77-1,3.36-2.31,5.17-3.19,3.23-1.56,6.81-1.71,10.31-2.05a35.23,35.23,0,0,1,12.14,1,4.48,4.48,0,0,1,3.15,2.62c1.06,2.53,2.08,5.09,3,7.66a6.3,6.3,0,0,1,0,1.91,11.25,11.25,0,0,1-5.57-1.67,26.76,26.76,0,0,0-14.22-4.18,24.32,24.32,0,0,0-9.61,1.17C184.46,140.23,183.48,140.89,179.44,145.12Zm7.76-9.42c3.34-.3,6.38-.95,9.57-.26,3,.65,6.2.57,9.61.83a49.76,49.76,0,0,0-11.69-4.12,4.58,4.58,0,0,0-1.52.2,5.3,5.3,0,0,0,2.19.66c.78.14,1.54.32,2.31.49l0,.45a3.73,3.73,0,0,1-1.07.32c-2-.05-4.08-.12-6.12-.25A3.42,3.42,0,0,0,187.2,135.7Zm12.3-4.21a26.64,26.64,0,0,0,8.44,3.25C205.43,132.6,203.17,130.44,199.5,131.49Zm17.39,10c.1-.87.24-1.19.15-1.4-1-2.24-2-4.49-3.14-6.67a2.43,2.43,0,0,0-2.24-1.19,7.43,7.43,0,0,0,.56,1.11c1.53,2.08,3.23,4.06,3.43,6.83C215.67,140.51,216.23,140.81,216.89,141.49Zm-10.44-10c3,3.11,4.34,4.09,5.78,4.15a20.15,20.15,0,0,1-2.31-2.8C209.15,131.44,208.05,131.36,206.45,131.45Zm-25.13,9.46,5.07-3.19C183.21,137.92,183.21,137.92,181.32,140.91Zm30.92-2.25a1.54,1.54,0,0,0-1.67-1.33C210.69,138.52,211.54,138.51,212.24,138.66Z" transform="translate(-69.97 -21.66)"/><path d="M213.3,166.49a11.44,11.44,0,0,1-.77-1.81c-.48-2-.86-4.07-1.34-6.1a2.49,2.49,0,0,0-.66-1.05,25.2,25.2,0,0,0-6.68-5.14c-3.08-1.53-6.22-1.46-9.55-.6.12.27.16.52.28.58,5,2.62,5.6,8.73,3.72,12.93a9.51,9.51,0,0,1-3.66,4.52,9.88,9.88,0,0,1-12.68-2.6c-.29-.4-.55-.82-.81-1.22-2.89,0-4.84-1.89-5.12-5.07l1.62.22a29.05,29.05,0,0,1,7.91-8.1c7.5-4.86,15-5.6,22.82-.63,2.21,1.4,3.56,3.6,5.08,5.62a1.47,1.47,0,0,1-.19,1.44c-.77.62-.5,1.16-.23,1.86a22.81,22.81,0,0,1,.91,3,11.72,11.72,0,0,1,.1,2Zm-22.43-13.58c-3.34,1.45-5.88,3-7.5,5a5.59,5.59,0,0,0-1.41,2.75c-.27,2.7.39,5.31,2.66,7a7.84,7.84,0,0,0,8.35,1.08c2.86-1.33,4.91-5.24,4.51-8.89-.3-2.83-1.54-5.12-4.5-6.06C192.32,153.57,191.7,153.25,190.87,152.91ZM180.2,162c-1.22,1.23-1.22,1.23.2,2.19Z" transform="translate(-69.97 -21.66)"/><path d="M278.17,161a4.08,4.08,0,0,0,0-5,11.76,11.76,0,0,0-2.73-2.63c-4.35-3.05-9.22-3.94-15-3.33.95.82,1.54,1.36,2.16,1.86a9.73,9.73,0,0,1,3.3,11.56,9.92,9.92,0,0,1-9.52,6.85c-3.28,0-5.72-1.78-7.34-4.61-.51-.9-.86-1.89-1.32-2.92-1.06.64-.34,2.39-1.94,2.7-.76-1.33.16-2.45.39-3.6s.6-2.3,1-3.72l-2.11.88c-.58-.63-.32-1.16.08-1.69,3.79-5,8.64-8.24,15-9a28,28,0,0,1,10.51.84,14.67,14.67,0,0,1,9.47,7.23,8,8,0,0,0,.89,1.43,1.4,1.4,0,0,1,.27,2C280.39,161,280,161.28,278.17,161Zm-20.31-10.64a32.35,32.35,0,0,0-3.65,1.15c-1.83.81-3.73,1.91-4.36,3.8-1.12,3.36-1.17,6.88.82,10a6.43,6.43,0,0,0,6.43,3.27,8.62,8.62,0,0,0,7.22-6c1-3.37.44-6.45-2.34-8.86C260.7,152.55,259.36,151.53,257.86,150.31Z" transform="translate(-69.97 -21.66)"/><path d="M208.08,216.79l1.77-1.48c1.81,2.56,1.8,2.54,4.4.83,3.54-2.33,7.12-4.6,10.65-6.94a2.46,2.46,0,0,1,2.94-.11,5.21,5.21,0,0,0,5.8.06,1.85,1.85,0,0,1,2.45.29c3.26,2.58,6.6,5.07,9.93,7.56a15.65,15.65,0,0,0,1.93,1c.25-.64.43-1.12.64-1.65a3.73,3.73,0,0,1,2.65,2,2.43,2.43,0,0,1-.15,2,1.56,1.56,0,0,1-2,.64c-1.8-.63-3.6-1.24-5.4-1.89-2.25-.81-4.5-1.65-6.75-2.48a3.84,3.84,0,0,0-2.65,0,14.33,14.33,0,0,1-8.95,0,9.54,9.54,0,0,0-7.53.37c-1.54.71-3.11,1.34-4.67,2C210.47,220.12,209.45,219.7,208.08,216.79Zm26.79-5.95a10.33,10.33,0,0,0-1.86.68c-1.42.89-2.84.53-4.26.09a3.87,3.87,0,0,1-1.15-.52,2,2,0,0,0-2.67.25c-1.27,1-2.61,2-3.72,2.78,1,.23,2.07.42,3.12.77a14,14,0,0,0,8.31.57,8.82,8.82,0,0,1,6.18.32,35.36,35.36,0,0,0,3.38,1.15l.19-.42Z" transform="translate(-69.97 -21.66)"/><path d="M307.35,155.58a20.3,20.3,0,0,0-5.78,4.63c-1.61,1.86-3.13,3.83-4.55,5.84s-2.5,3.93-3.8,6a1.61,1.61,0,0,1-.36-2.31c3.07-5.35,6.36-10.52,11.5-14.19,1.94-1.39,3.91-2.73,5.87-4.1a1.86,1.86,0,0,1,2.21-.36c-.42,1.87-2.45,2-3.44,3.32a52.55,52.55,0,0,1,2.53,5,26.81,26.81,0,0,1,.36,19.45c-1.46,3.9-4.43,6.67-7.36,9.45a1.55,1.55,0,0,1-.73.4c-.24,0-.67,0-.75-.14s-.21-.75-.05-.94c.57-.71,1.26-1.33,1.89-2,.87-.91,1.75-1.83,2.6-2.77a16.61,16.61,0,0,0,4-9.38c.71-5.81,0-11.38-3-16.5A14,14,0,0,0,307.35,155.58Z" transform="translate(-69.97 -21.66)"/><path d="M166.71,166.06a13.44,13.44,0,0,1-1.21-1.52c-1.57-2.6-3.09-5.22-4.65-7.82a13.22,13.22,0,0,0-4.53-4.41c-.51.54-1.24,1-1.47,1.61-1.17,3.24-2.36,6.49-3.27,9.81-1.06,3.86,0,7.55,1.4,11.15.3.76.5,1.55.76,2.4-1.36.48-1.78-.39-2.08-1.1-1.64-3.88-2.76-7.83-1.93-12.14a53.51,53.51,0,0,1,4.51-12.83,3.75,3.75,0,0,1-1.17,0,4.85,4.85,0,0,1-1.07-.71c.28-.35.58-1,.84-1a8,8,0,0,1,3,.56,16.26,16.26,0,0,1,6.49,5.93c1.48,2.31,2.83,4.71,4.2,7.09C167.26,164.28,167.27,164.53,166.71,166.06Z" transform="translate(-69.97 -21.66)"/><path d="M265.14,57A5,5,0,0,1,264,58.19c-3.85,2.06-7.83,3.9-11.59,6.12-6.13,3.62-12.35,7.15-17.44,12.24-1.2,1.2-2.23,2.55-3.33,3.83a7,7,0,0,1-.8,1,.8.8,0,0,1-.75,0,.81.81,0,0,1-.22-.72A12.83,12.83,0,0,1,231,78.87a44.76,44.76,0,0,1,11.17-10,207.43,207.43,0,0,1,18.27-10.69c1.37-.69,2.84-1.18,4.27-1.77Z" transform="translate(-69.97 -21.66)"/><path d="M212.79,147.15a3.64,3.64,0,0,0,1,3.53,2.42,2.42,0,0,1,.48,3.06c-1.13-1.89-2.43-3.2-3.14-4.94a2.5,2.5,0,0,0-1.06-1.36,43.42,43.42,0,0,0-11.21-3c-3.78-.45-7.24.75-10.65,2.2-.93.39-1.82,1.16-3.14.44a7.38,7.38,0,0,1,1.05-1,24.17,24.17,0,0,1,8.5-3.06,16.34,16.34,0,0,1,7.55.45c2.9.86,5.79,1.78,8.66,2.72A14.41,14.41,0,0,1,212.79,147.15Z" transform="translate(-69.97 -21.66)"/><path d="M249,147a4.61,4.61,0,0,1-2.38,4.7c-.36-1.19.54-2,.86-3l-2-.1a4.29,4.29,0,0,1,2.51-2.66,24.64,24.64,0,0,1,14.89-3,85.06,85.06,0,0,1,8.86,2,10.66,10.66,0,0,1,2.14,1.06c-.4,1.15-1.05.86-1.65.7-2.45-.65-4.88-1.41-7.35-2C259.34,143.53,254.1,144.54,249,147Z" transform="translate(-69.97 -21.66)"/><path d="M226.42,226.44c.11,1.09.19,1.93.27,2.77l-.54.11-.81-3.08c-2.56-1.06-5.62-1.5-7.71-3.8-.15-.16-.1-.5-.2-1.16a13.45,13.45,0,0,1,1.87.84c3.57,2.36,7.55,3,11.72,2.83,4-.16,7.88-.66,11.49-2.53a1.76,1.76,0,0,1,.78-.26c.25,0,.68.15.7.29,0,.29,0,.77-.22.89a18.7,18.7,0,0,1-2.45,1.23c-4.27,1.81-8.77,2-13.31,1.87Z" transform="translate(-69.97 -21.66)"/><path d="M226.45,198.32a8.85,8.85,0,0,1-6,.81c-1.24-.2-1.62-.85-1-1.92a16.72,16.72,0,0,1,6.11-6.05,1.7,1.7,0,0,1,1.52,0c.33.26.36,1,.38,1.51a2.78,2.78,0,0,1-.33,1.22A5.75,5.75,0,0,0,226.45,198.32Zm-.82-4.83-.42-.25a14.53,14.53,0,0,0-4.14,4.48l3.3-.18C224.82,196.09,225.23,194.79,225.63,193.49Z" transform="translate(-69.97 -21.66)"/><path d="M241,199.71c-2.8,0-4.34-1.25-4.81-3.37a16,16,0,0,0-1-2.05c-.19-.49-.49-1.26-.28-1.5a2,2,0,0,1,1.61-.6,4.91,4.91,0,0,1,2.28.94,28,28,0,0,1,3.32,3.21c.57.65,1.43,1.53.72,2.4A4.63,4.63,0,0,1,241,199.71Zm.17-1.9c-1.26-1.61-2.17-3.05-4-3.46C238.67,195.12,238.16,198,241.12,197.81Z" transform="translate(-69.97 -21.66)"/><path d="M215.4,205.56l-8.5,7.57-.29-.28,4.47-4.77-.23-.29a4.71,4.71,0,0,0-1.15.63,12.75,12.75,0,0,1-3.91,3.14c-.64.27-1,1.3-1.41,2a20.93,20.93,0,0,1-1.17,2.18c-.47-1.77.8-2.94,1.49-4.28a7.64,7.64,0,0,1,2.86-3.53l-.45,1.36.28.26c.9-.73,1.78-1.47,2.68-2.18s1.79-1.33,2.75-2c.53-.16-.21,1.66,1,.7a11.4,11.4,0,0,1,1.39-.84Z" transform="translate(-69.97 -21.66)"/><path d="M288.23,185.19a10,10,0,0,0,1.62,1.7,47,47,0,0,0,4.43,2.36c.89.41,1.9.53,2.82.87.32.13.55.53.82.8-.38.22-.81.68-1.13.61-2.75-.61-5.49-1.31-7.68-3.23A2.44,2.44,0,0,1,288.23,185.19Z" transform="translate(-69.97 -21.66)"/><path d="M165.47,179a8.1,8.1,0,0,1-1.35-1.1q-2.26-2.9-4.41-5.89c-.22-.3-.09-.85-.13-1.28a4.06,4.06,0,0,1,1.3.3,4.32,4.32,0,0,1,1,1.11c1.12,1.52,2.25,3,3.32,4.6a12.52,12.52,0,0,1,.86,1.81Z" transform="translate(-69.97 -21.66)"/><path d="M243.15,237.29c-.88-.85-1.75-1.72-2.65-2.55-.59-.54-1.19-1.24-1.95-.47-.37-1.24-.74-2.51-1.15-3.89,1.73-.26,1.82,1.11,2.44,1.81a27.24,27.24,0,0,1,2,2.4c.55.79,1.82,1.09,1.73,2.31Z" transform="translate(-69.97 -21.66)"/><path d="M239.82,81.73c-.68,2-1.71,2.36-3.11,1a1.94,1.94,0,0,0-2.06-.59,2.13,2.13,0,0,1-2.67-.88c2-.3,3.72-1.42,5.57.25C238,81.88,238.93,81.66,239.82,81.73Z" transform="translate(-69.97 -21.66)"/><path d="M213.42,241.32a3.05,3.05,0,0,1,.45-3.56,4,4,0,0,0,.71-3.11c0-1.05-.74-2.12-.07-3.24a4.47,4.47,0,0,1,.46,6.23,5.36,5.36,0,0,0-.84,1.63C213.85,239.94,213.65,240.63,213.42,241.32Z" transform="translate(-69.97 -21.66)"/><path d="M192.14,233.44a14.79,14.79,0,0,0,2.77-9.85c1.66,1.51,1.28,3,1,4.34C195.35,230.23,194.59,232.46,192.14,233.44Z" transform="translate(-69.97 -21.66)"/><path d="M217.32,237.76a3.21,3.21,0,0,1,.32,1.21,13.29,13.29,0,0,0,0,6.21c.32,1.08-.36,2.46-.59,3.7l-.46-.07a4.74,4.74,0,0,1,.06-.93c.33-1.24.76-2.45-.51-3.49a1.3,1.3,0,0,1-.21-1c.25-1.85.54-3.7.83-5.54Z" transform="translate(-69.97 -21.66)"/><path d="M203.86,222.41c.5,2,1,4.09,1.49,6.13l-.29.14L203.68,226l-.5.09v4.29C201.76,228.4,202.11,225.55,203.86,222.41Z" transform="translate(-69.97 -21.66)"/><path d="M221,235.84c.74-.55,1.16-.33,1.38.35a16.92,16.92,0,0,1,1,6.22,1.85,1.85,0,0,1-1.24,1.92A17.24,17.24,0,0,0,221,235.84Z" transform="translate(-69.97 -21.66)"/><path d="M256.12,224.72a2.62,2.62,0,0,1,.23,3.49,7.36,7.36,0,0,0-.65,2c-.27,1.23-.48,2.47-.75,3.85-.9-.48-.62-1.22-.53-1.7C254.94,229.75,255.56,227.2,256.12,224.72Z" transform="translate(-69.97 -21.66)"/><path d="M245.84,233.86a8.79,8.79,0,0,1,2.41,7c-1.24-.89-.76-2.36-1.25-3.47S245.39,235.34,245.84,233.86Z" transform="translate(-69.97 -21.66)"/><path d="M210.11,233.48c.66,4-1.53,6.12-3.7,8.43,0-.88,0-.86,1.27-2.58a12.06,12.06,0,0,0,1.51-2.5A26.74,26.74,0,0,0,210.11,233.48Z" transform="translate(-69.97 -21.66)"/><path d="M237.36,237.55a5.91,5.91,0,0,1,1.75,6.08C238,241.77,237.8,239.63,237.36,237.55Z" transform="translate(-69.97 -21.66)"/><path d="M240.38,204.93l-1-1.93-.08.18,6,6c-1,0-1.5-1.14-2.3-1.87L240.49,205Z" transform="translate(-69.97 -21.66)"/><path d="M234.73,242.49a4.58,4.58,0,0,1-2.13-6.19c.33,1.22.53,2.19.85,3.12S234.18,241.18,234.73,242.49Z" transform="translate(-69.97 -21.66)"/><path d="M184.32,213.48l3.19-7.09c.18.5.4.79.32.93-1.16,2.06-1.57,4.5-2.89,6.48Z" transform="translate(-69.97 -21.66)"/><path d="M227.34,201.19a10.12,10.12,0,0,1-4.51,5.18c.25-1.24,1.41-1.72,2.12-2.57S226.54,202.06,227.34,201.19Z" transform="translate(-69.97 -21.66)"/><path d="M207.22,229.34c1,1.95.72,3.61-1,5.34a26,26,0,0,1,.21-2.76C206.61,231.1,206.93,230.3,207.22,229.34Z" transform="translate(-69.97 -21.66)"/><path d="M218.78,242.25c-.11-1.44-.23-2.89-.35-4.33l.38-.2c.28.29.82.6.81.88-.05,1.23.68,2.56-.25,3.69Z" transform="translate(-69.97 -21.66)"/><path d="M210.69,230.37c1.83.6,2.25,2.11,1.25,3.85C210.9,233.18,211.08,231.84,210.69,230.37Z" transform="translate(-69.97 -21.66)"/><path d="M257.67,214.63a11.39,11.39,0,0,1,1,6.28l-1.57-6.1Z" transform="translate(-69.97 -21.66)"/><path d="M249.78,238.58l4.65,2.93A5.3,5.3,0,0,1,249.78,238.58Z" transform="translate(-69.97 -21.66)"/><path d="M255.87,223.37c.32-1.92-1.59-3.47-.75-6a30.46,30.46,0,0,0,.89,3.27C256.41,221.61,256.82,222.48,255.87,223.37Z" transform="translate(-69.97 -21.66)"/><path d="M228.91,240.34c-.42-.88.08-1.1.9-1.22.58,1.41,1.15,2.76,1.71,4.12l-.35.2-2.31-3.15Z" transform="translate(-69.97 -21.66)"/><path d="M222,205c0,.13.11.32.05.4-1.21,1.54-2.32,3.2-4.42,3.72a28,28,0,0,1,4.42-4.07Z" transform="translate(-69.97 -21.66)"/><path d="M246.25,242.48c-2.14-.59-2.67-1.11-4.57-4,1.3.37,1.62,1.49,2.35,2.14S245.51,241.85,246.25,242.48Z" transform="translate(-69.97 -21.66)"/><path d="M250,208.54a11.35,11.35,0,0,1,3.08,3.86l-.44.35-3-3.91Z" transform="translate(-69.97 -21.66)"/><path d="M210.33,241.69,209,246.61A4.37,4.37,0,0,1,210.33,241.69Z" transform="translate(-69.97 -21.66)"/><path d="M218.1,250.8a3.91,3.91,0,0,1,2.31-3.7c-.75,1.53-1.32,2.72-1.9,3.9Z" transform="translate(-69.97 -21.66)"/><path d="M226.31,238.67l1.88-3.7A3.38,3.38,0,0,1,226.31,238.67Z" transform="translate(-69.97 -21.66)"/><path d="M252,214.18c-.2,0-.48.18-.58.1a5.18,5.18,0,0,1-2.09-3.89l2.65,3.83Z" transform="translate(-69.97 -21.66)"/><path d="M233.46,253.13c-.25,1.39-.51,2.79-.76,4.14C231.7,255.82,231.77,255.07,233.46,253.13Z" transform="translate(-69.97 -21.66)"/><path d="M241.1,251.26c-2.2,1-3.42-.63-4.88-1.42Z" transform="translate(-69.97 -21.66)"/><path d="M240.38,204.93l.11.1c0,.3-.07.6-.13,1.09a5.14,5.14,0,0,1-2.83-3.32Z" transform="translate(-69.97 -21.66)"/><path d="M223.84,230,222,226.48l.41-.22a10.53,10.53,0,0,1,2,3.47Z" transform="translate(-69.97 -21.66)"/><path d="M178.43,213.17l3-2.53a4.44,4.44,0,0,1-2.63,3Z" transform="translate(-69.97 -21.66)"/><path d="M274.37,207.21a4.86,4.86,0,0,1,1,4L274,207.39Z" transform="translate(-69.97 -21.66)"/><path d="M217.89,204.39c.09.43.4,1,.22,1.27-.8,1.09-1.73,2.07-2.62,3.09l-.44-.36c.77-.92,1.56-1.82,2.28-2.77a5.72,5.72,0,0,0,.56-1.23Z" transform="translate(-69.97 -21.66)"/><path d="M190.08,222.64l2.2-3.61C192.34,221,192.18,221.26,190.08,222.64Z" transform="translate(-69.97 -21.66)"/><path d="M192,226c.62-2.28,1-3.06,2.34-4.19A5.86,5.86,0,0,1,192,226Z" transform="translate(-69.97 -21.66)"/><path d="M196.81,231.48a15.42,15.42,0,0,1-3.1,3.3l-.38-.36,3.12-3.21Z" transform="translate(-69.97 -21.66)"/><path d="M245.88,206.78c1.39.44,1.85,1.64,2.32,2.83-1-.78-2.18-1.4-2.27-2.89Z" transform="translate(-69.97 -21.66)"/><path d="M245,247.22c-1.37.17-2.12-.67-2.86-1.5l.29-.42Z" transform="translate(-69.97 -21.66)"/><path d="M189.5,218l1-2.71C191.29,216.59,191.17,216.91,189.5,218Z" transform="translate(-69.97 -21.66)"/><path d="M230.31,231v-3.16h.41v3.19Z" transform="translate(-69.97 -21.66)"/><path d="M182,201c0,.88.33,1.84-1.09,2.83.28-1.25.47-2.07.65-2.88Z" transform="translate(-69.97 -21.66)"/><path d="M182.15,213.56c-.21,0-.41,0-.61,0s-.11-.07-.28-.19c.49-1,1-2,2.32-2.12l0,0-1.47,2.44Z" transform="translate(-69.97 -21.66)"/><path d="M236.79,205.38c-1-.33-1.5-1.22-2.25-1.82l.3-.37c.74.6,1.48,1.2,2.21,1.81Z" transform="translate(-69.97 -21.66)"/><path d="M244.2,244.1c-.79.24-1.18-.28-1.43-.87a4.86,4.86,0,0,1-.41-2.2l1.79,3.12Z" transform="translate(-69.97 -21.66)"/><path d="M244.15,244.15l1.95,1.4c-1.74,0-1.79-.07-1.9-1.45Z" transform="translate(-69.97 -21.66)"/><path d="M219.49,252.54a3.14,3.14,0,0,1,2-2.84A5,5,0,0,1,219.49,252.54Z" transform="translate(-69.97 -21.66)"/><path d="M235.45,231.22a4,4,0,0,1-1.25-2.93C235.4,229.13,235.16,230.29,235.45,231.22Z" transform="translate(-69.97 -21.66)"/><path d="M252,214.22l1.54,3.06a2.59,2.59,0,0,1-1.52-3.09Z" transform="translate(-69.97 -21.66)"/><path d="M267.75,213c.93-.21,1.36.47,1.89.92C268.51,214.06,268.51,214.06,267.75,213Z" transform="translate(-69.97 -21.66)"/><path d="M203.73,218.66l-1,2.17-.39-.15.78-2.27Z" transform="translate(-69.97 -21.66)"/><path d="M211.44,248.15a3.06,3.06,0,0,1,.17-2.76C212.47,246.55,211.52,247.31,211.44,248.15Z" transform="translate(-69.97 -21.66)"/><path d="M223.93,234.05c.15-.61.31-1.23.58-2.28a2.19,2.19,0,0,1-.08,2.4Z" transform="translate(-69.97 -21.66)"/><path d="M221.76,232.73v-2.21h.32v2.19Z" transform="translate(-69.97 -21.66)"/><path d="M226.61,249.67c-.6.67-1.08,1.2-1.55,1.74C225.07,250.45,225.32,249.72,226.61,249.67Z" transform="translate(-69.97 -21.66)"/><path d="M193,212.51l-.32,2.32h-.38l.12-2.33Z" transform="translate(-69.97 -21.66)"/><path d="M278,203.21c-1.19.19-1.74-.36-1.71-1.57.55.53,1.1,1.06,1.66,1.58Z" transform="translate(-69.97 -21.66)"/><path d="M228.86,240.29l-.72,2.3c-.3-1-.39-1.88.77-2.25Z" transform="translate(-69.97 -21.66)"/><path d="M214.61,243.91l.71,2.17c-1.42-.39-.76-1.4-1.27-1.93Z" transform="translate(-69.97 -21.66)"/><path d="M265.8,217.64l1.22,1.52C265.89,218.86,265.89,218.86,265.8,217.64Z" transform="translate(-69.97 -21.66)"/><path d="M224.49,203.3,222,205l.05.05c.45-1.13,1-2.15,2.48-1.77Z" transform="translate(-69.97 -21.66)"/><path d="M183.58,211.22a2.83,2.83,0,0,1,.83-2.6c.51,1.28-.53,1.78-.87,2.55Z" transform="translate(-69.97 -21.66)"/><path d="M199,237.47l1.24-1.39.35.34-1.25,1.41Z" transform="translate(-69.97 -21.66)"/><path d="M228.05,250.33l1.19-1.3.39.31-1.07,1.4Z" transform="translate(-69.97 -21.66)"/><path d="M185.89,203.58l-.68,2.16C184.54,204.46,185.58,204.14,185.89,203.58Z" transform="translate(-69.97 -21.66)"/><path d="M254.71,216.09l-.62-1,.32-.19.6,1Z" transform="translate(-69.97 -21.66)"/><path d="M245.93,206.72a1.4,1.4,0,0,1-1.6-1.1c1-.05,1.17.69,1.55,1.16Z" transform="translate(-69.97 -21.66)"/><path d="M237.2,202.5l-.3-1.28.48-.14.44,1.25Z" transform="translate(-69.97 -21.66)"/><path d="M223.07,252.91l1.15-.93-.73,1.39Z" transform="translate(-69.97 -21.66)"/><path d="M213.1,228l-.29-1.36.37-.1.42,1.3Z" transform="translate(-69.97 -21.66)"/><path d="M207,227l.38,1.18-.35.15-.56-1.14Z" transform="translate(-69.97 -21.66)"/><path d="M195.49,216.86v.93l-.28.05-.18-1Z" transform="translate(-69.97 -21.66)"/><path d="M181.19,198.36c1,.06,1.05.57.57,1.75-.24-.85-.38-1.33-.51-1.8Z" transform="translate(-69.97 -21.66)"/><path d="M195.29,214.69l.35,1.07-.44.14-.31-1.09Z" transform="translate(-69.97 -21.66)"/><path d="M274.52,215.25a4.33,4.33,0,0,1,0-.72c0-.05.22-.08.34-.12l.19.84Z" transform="translate(-69.97 -21.66)"/><path d="M275.23,216.4l.23.9-.33.09-.25-.89Z" transform="translate(-69.97 -21.66)"/><path d="M214,243l.09-.95c.18,0,.51.08.51.12a5.41,5.41,0,0,1-.12.9Z" transform="translate(-69.97 -21.66)"/><path d="M217.89,204.39l1.51-.77c-.2,1.18-.89.89-1.51.77Z" transform="translate(-69.97 -21.66)"/><path d="M270.87,207.27l.57.63c-.13.1-.29.3-.4.28a.69.69,0,0,1-.41-.36C270.58,207.72,270.74,207.54,270.87,207.27Z" transform="translate(-69.97 -21.66)"/><path d="M199.11,221.38l-.41,1-.3-.09.25-1.09Z" transform="translate(-69.97 -21.66)"/><path d="M224.51,203.31c-.22-.54-.73-1.09.34-1.82-.16.77-.27,1.28-.36,1.8C224.49,203.3,224.51,203.31,224.51,203.31Z" transform="translate(-69.97 -21.66)"/><path d="M227.65,247.61l-.54.95-.25-.13.5-1Z" transform="translate(-69.97 -21.66)"/><path d="M274.44,202.36l.68.89-.24.27-.9-.76Z" transform="translate(-69.97 -21.66)"/><path d="M182.66,206.09l-.47-.22a6.27,6.27,0,0,1,.42-.63s.31.13.3.16A6.37,6.37,0,0,1,182.66,206.09Z" transform="translate(-69.97 -21.66)"/><path d="M290.92,109.78c1.43.69,1.43,1.91,1.92,2.89C291.39,112.73,291.36,112.68,290.92,109.78Z" transform="translate(-69.97 -21.66)"/><path d="M292.3,114.47c1.77.08,1.35,1.24,1.55,2.5C292.64,116.25,292.85,115.14,292.3,114.47Z" transform="translate(-69.97 -21.66)"/></g></g></svg>