<svg xmlns="http://www.w3.org/2000/svg" viewBox="0 0 260.15 333.01"><title>tool</title><g id="Layer_2" data-name="Layer 2"><g id="Layer_1-2" data-name="Layer 1"><path d="M109.37,90c-.24-.34-.57-.24-.87-.22-7.18.44-14.36.33-21.55.15a4.44,4.44,0,0,0-1.31,0c-1.85.47-3.46.32-4.62-1.43-.17-.27-.53-.22-.85-.24a41.35,41.35,0,0,0-7.29.39,46.76,46.76,0,0,0-6.63,1.09,55.89,55.89,0,0,0-8.41,3.13c-5.79,2.65-11.64,5.17-17.32,8A12.37,12.37,0,0,1,36,101.92a2.16,2.16,0,0,1-1.95-.85,44.2,44.2,0,0,1-5.12-6.92,115,115,0,0,1-7.66-13.94c-1.34-3.1-2.68-6.18-3.95-9.3a95.93,95.93,0,0,1-3.81-11.12,42.7,42.7,0,0,1-1.37-12.24c.22-11.36,3.45-21.9,8.61-31.91A58.52,58.52,0,0,1,31.54,1.36,4,4,0,0,1,35.41.08a19.61,19.61,0,0,1,5.41,2A89.24,89.24,0,0,0,57.88,8.8c4.11,1.08,8.18,2.28,12.27,3.43a32.09,32.09,0,0,0,9.46,1c.67,0,1.24-.11,1.43-.9.34-1.44,1.51-1.78,2.74-1.8a140.25,140.25,0,0,1,18.33.59c2,.25,4.1-.11,6.15.05s4.21-.23,6.33.29c.91.23,2-.24,3-.27q8.61-.21,17.23-.35a209.93,209.93,0,0,0,33.65-3.46c7-1.26,14.09-2.06,21-3.65a90.33,90.33,0,0,1,10.87-2,6.27,6.27,0,0,1,6.32,2.7,1.57,1.57,0,0,0,1.54.81,20,20,0,0,1,7.7,1.26c.9.28,1.77.63,2.67.89a14.66,14.66,0,0,1,7.87,5.11,3.42,3.42,0,0,0,2.71,1.33c2.09.12,3.7,1.43,5.06,2.93a27.2,27.2,0,0,1,2.61,3.43,1.94,1.94,0,0,0,2.1,1.15,3.9,3.9,0,0,1,3.33,1.42A11,11,0,0,1,244.86,27c.41,1.24.72,2.52,1.06,3.78a3.54,3.54,0,0,0,1.68,2.5,5.83,5.83,0,0,1,2.52,3.81,37.72,37.72,0,0,1-.3,20.54,139.77,139.77,0,0,1-6,15.76c-1,2.26-2.37,4.28-4.79,5.28-.68.28-.82.9-1.1,1.44a12.56,12.56,0,0,1-2.72,4c-.38.32-.8.86-1.19.85-1.36,0-1.72.88-2.17,1.87a3.36,3.36,0,0,1-3.8,2.09,1.7,1.7,0,0,0-1.91.74A6.78,6.78,0,0,1,223,91.93c-1.76.65-3.51,1.33-5.32,1.81a17.8,17.8,0,0,0-5.76,3,5.38,5.38,0,0,0-1.74,3,23.12,23.12,0,0,0-.64,8c.16,4.37,1,8.69,1,13.08,0,.62,0,1.25,0,1.87s-.14,1.3-.84,1.52-.75.65-.73,1.28a95.52,95.52,0,0,1-.59,11.59,116.84,116.84,0,0,1-2.79,15.65c-1.22,5.36-2.52,10.7-4,16-.36,1.31-.88,2.57-1.37,3.84-.42,1.09-.42,2.39-.8,3.57-1,3.09-1.89,6.21-2.83,9.31-.29,1-.57,1.91-.83,2.88a1.28,1.28,0,0,1-1.36,1c-.66,0-.93-.25-.8-.89a15,15,0,0,1,.38-1.64c1.45-4.64,3.13-9.23,4.33-13.94,1.62-6.34,3.56-12.59,4.95-19,1-4.63,2.14-9.24,2.76-13.94a91,91,0,0,0,1.15-13.4c0-.37-.08-.75-.07-1.12,0-.7-.37-1-1-1.08l-4.27-.54c-1.39-.17-1.75-.49-1.7-1.92.07-1.87.23-3.74.46-5.59a13.11,13.11,0,0,0-2.1-8.93,4.24,4.24,0,0,0-1.89-1.77,25.21,25.21,0,0,0-7-2.28,10.7,10.7,0,0,0-8.87,3,9.26,9.26,0,0,0-2.45,3.5c-1.75,4.48-3.3,9-4.79,13.6a74.18,74.18,0,0,0-2.28,9.27c-.43,2.23-.84,2.66-3.13,2.51-3.78-.25-6.44,2-9.33,3.81a8.4,8.4,0,0,0-3.85,6.49c-.36,2.58-1.08,5.12-1.63,7.68-1.37,6.47-2.76,12.93-3.81,19.47-.59,3.7-1,7.42-1.43,11.14-.62,5.13-.95,10.31-1.4,15.46-.07.77.26,1,1,.83,2.72-.72,5.44-1.42,8.16-2.15,5.06-1.35,10.14-2.62,15.29-3.58,2.51-.47,5-1.05,7.52-1.52,6.5-1.22,13-2.49,19.65-2.71a89,89,0,0,1,19.42,1.07A70.89,70.89,0,0,1,236,197.72a49,49,0,0,1,4.41,2.47,35,35,0,0,1,8.83,8.56,67.26,67.26,0,0,1,7.6,12.66,35.12,35.12,0,0,1,2.07,24.33,105.37,105.37,0,0,1-5.31,14.61,116.44,116.44,0,0,1-5.78,11.76,83.81,83.81,0,0,1-7.6,11.35,189.57,189.57,0,0,1-16.27,17.61,198.1,198.1,0,0,1-17.3,15.45c-6,4.58-12.24,8.89-19.3,11.76a58.48,58.48,0,0,1-15.9,4.17c-1.24.13-2.43.53-3.7.55-5.24.11-9.92-1.64-14.32-4.31a31.82,31.82,0,0,1-4.66-3.76,11.06,11.06,0,0,1-3.36-5.95,29.77,29.77,0,0,1-.86-6.3,1.76,1.76,0,0,0-1.59-1.95,3.41,3.41,0,0,1-.55-.14c-1.61-.48-1.69-.49-1.62-2.21.1-2.54.33-5.11.35-7.62,0-3.63.92-7.16.79-10.77a19,19,0,0,1,.21-2.24,4.39,4.39,0,0,0,0-2,3.87,3.87,0,0,1,.14-3.26,1.66,1.66,0,0,0-.05-1.78,1.79,1.79,0,0,1-.05-2.23,3.09,3.09,0,0,0,.1-3.06,3.64,3.64,0,0,1-.06-3.25,2.09,2.09,0,0,0,.21-.91c-.16-2.8.18-5.6-.22-8.4a21.26,21.26,0,0,1,0-6.17,2.57,2.57,0,0,1,1.43-2.26,1.28,1.28,0,0,0,.79-1.51c-.14-1.61-.25-3.23-.3-4.85-.35-11.18-.61-22.36-.24-33.54,0-.87,0-1.75,0-2.62s-.21-1.19-1.1-.92c-2.44.75-4.91,1.42-7.35,2.19-6.85,2.15-13.59,4.63-20.37,7-5.71,2-11.31,4.29-16.92,6.56q-12,4.84-23.94,9.73c-3,1.23-6,2.6-9,3.82-6.48,2.63-13,5.18-19.48,7.81-5.38,2.18-10.85,4.12-16.41,5.76a51.46,51.46,0,0,1-14,2.54,22.58,22.58,0,0,1-6.68-.73c-4.84-1.42-7.5-4.7-8.36-9.56A29.12,29.12,0,0,1,.58,236a90.31,90.31,0,0,1,6.76-21.18,132.53,132.53,0,0,1,7.32-14.53c1.79-3,3.34-6.08,5.25-9s3.66-5.81,5.69-8.57a43.43,43.43,0,0,0,3-4,61.79,61.79,0,0,1,5.13-7.11c2.35-3.07,4.8-6.06,7.25-9,7.29-8.89,15.1-17.3,22.92-25.72,5.3-5.71,10.55-11.49,16-17,3.72-3.77,7.38-7.61,11.17-11.32,3.38-3.29,6.66-6.7,10-10.08,2.39-2.46,4.93-4.78,7.39-7.17C108.81,90.88,109.35,90.59,109.37,90ZM161,101.1h0c-.05-.87-.11-1.75-.17-2.62a3,3,0,0,0-1.59-2.58,14.72,14.72,0,0,0-5.79-2q-10.4-1.39-20.88-2.13a90.1,90.1,0,0,1-11.93-1.19,3.28,3.28,0,0,0-3.1.91c-1.89,1.8-3.87,3.52-5.67,5.41-3.83,4-7.94,7.74-11.78,11.73-3.59,3.73-7.43,7.19-11.09,10.84-3.85,3.82-7.57,7.76-11.08,11.9-1.14,1.33-2.16,2.75-3.31,4.07q-5.71,6.66-11.45,13.3c-2.4,2.78-4.8,5.57-7.23,8.34-2,2.29-4.18,4.45-6.05,6.84-2,2.61-4.19,5.12-6.26,7.7-3.94,4.92-7.66,10-11.27,15.16-2.14,3.06-4.22,6.19-6.15,9.39s-4.39,6.09-6,9.56c-1.06,2.3-2.61,4.39-3.72,6.69s-2.22,4.61-3.15,7a102,102,0,0,0-4.25,13.38,58.08,58.08,0,0,0-1.38,8.48c-.18,2.07.38,4,2.47,5a9.23,9.23,0,0,0,3,1,21.21,21.21,0,0,0,7.82-.53,182.1,182.1,0,0,0,20.72-7.11c5.25-2,10.3-4.5,15.37-6.94,6.75-3.26,13.53-6.46,20.44-9.38,7.6-3.21,15.31-6.15,23.06-8.95,5.17-1.87,10.44-3.46,15.68-5.12,5-1.58,10.11-2.8,15.14-4.31q5.73-1.71,11.49-3.35a2.11,2.11,0,0,0,1.69-2.11c.62-5.4.81-10.84,1.57-16.23.56-3.95.94-7.94,1.51-11.89.9-6.11,2.52-12.07,3.68-18.13.65-3.37,1.57-6.68,2.3-10a3.12,3.12,0,0,0-.46-3,1.68,1.68,0,0,1-.24-1.76c.26-.9.51-1.81.79-2.7a111.06,111.06,0,0,0,3.49-13.8,2,2,0,0,0-.19-1.77c-1.16-1.47-1.49-3.28-2-5a5,5,0,0,1,.92-4.75A7,7,0,0,0,157.6,107a3.1,3.1,0,0,1,2-2.52,1.85,1.85,0,0,0,1.33-2.3A7,7,0,0,1,161,101.1Zm-4.17,32.76a49.93,49.93,0,0,1,6.14-3c.64-.26.77-.92,1-1.52.94-2.79,1.91-5.56,2.84-8.34a135.84,135.84,0,0,0,4.45-15.68A92.93,92.93,0,0,0,173,90.05a2.38,2.38,0,0,1,1.4-2.24,25.73,25.73,0,0,1,7-2.56,49.31,49.31,0,0,1,7.07-.57,48.82,48.82,0,0,1,17.06,3.15A29,29,0,0,1,209.45,90a.85.85,0,0,1,.49,1.09.91.91,0,0,1-1.22.57,9.06,9.06,0,0,1-1.19-.54c-.9-.44-1.77-.93-2.69-1.31a45.42,45.42,0,0,0-21.33-2.9,18.16,18.16,0,0,0-7.3,2.24c-.63.34-1,.66-.61,1.46a7.06,7.06,0,0,1,.13,5c-1,3.3-1.39,6.73-2.28,10-1,3.68-1.33,7.51-2.68,11.11A21.44,21.44,0,0,0,169.4,121c-.51,3.45-1.89,6.59-3.06,9.82a2.49,2.49,0,0,1-1.64,1.64c-1.24.43-2.46.91-3.66,1.45a17.92,17.92,0,0,0-4.69,2.69,2.51,2.51,0,0,0-1.16,2.36c.93-.1,1.36-.75,1.94-1.22,3.05-2.46,6.27-4.6,10.41-4.6,1.05,0,1.42-.51,1.61-1.41.35-1.71.66-3.43,1.09-5.13,1.41-5.52,3.53-10.8,5.36-16.19a12.24,12.24,0,0,1,3-5.14c2.7-2.59,5.77-4.38,9.65-4.35.68,0,1.12-.23,1.07-1-.09-1.38.59-2.6.53-4-.08-1.76.62-3.55,1-5.32a3,3,0,0,1,.33-.88c.43-.69,1.09-.46,1.68-.31s.49.66.36,1.08c-.69,2.34-1,4.78-1.56,7.13a7.1,7.1,0,0,0,.1,3.47c.23,1,1.57.8,2.42,1.15,1,.42,2.12.76,3.13,1.24a6,6,0,0,1,2.26,1.65,14,14,0,0,1,3.31,11c-.2,1.42-.17,2.86-.43,4.28-.2,1.15.1,1.4,1.3,1.57s2.48.31,3.71.51c.67.11.95-.13.93-.77,0-1.12,0-2.25-.11-3.37-.21-3.8-.93-7.56-.94-11.38a27.26,27.26,0,0,1,.78-7.8A8.48,8.48,0,0,1,212,93.87a19.74,19.74,0,0,1,5.1-2.31c1.56-.41,3.06-1.08,4.61-1.56a5,5,0,0,0,3.55-3.77c.47-1.82.92-3.64,1.3-5.47a58.53,58.53,0,0,1,2.89-10.07c1.29-3.19,2.81-6.27,4.1-9.46,2.33-5.76,4.33-11.57,4.54-17.87a20,20,0,0,0-1.22-8.26c-.68-1.68-1.31-3.39-2.11-5-3.11-6.34-6.23-12.68-11.52-17.62a10.52,10.52,0,0,0-3.41-2.24c-2.29-.85-4.56-1.74-6.88-2.49a9,9,0,0,0-4.35-.46c.6,1.27,1.18,2.36,1.64,3.5A42.45,42.45,0,0,0,214.35,19a59.43,59.43,0,0,1,3.37,5.17,2.32,2.32,0,0,0,2.49,1.43c2.09-.1,3,.5,3.56,2.34a28.1,28.1,0,0,1,1.38,11.62c-.25,2.35-.86,4.68-1,7s-1.67,4.49-1.64,6.93a1.11,1.11,0,0,1-.14.35,8,8,0,0,1-6.83,5.35,2,2,0,0,0-1.57.8A87.84,87.84,0,0,1,206.81,68a65.06,65.06,0,0,0-8.89,11.8,6.81,6.81,0,0,1-.71,1.09,1.79,1.79,0,0,1-2.08.12c-.51-.51,0-.92.24-1.31a62.9,62.9,0,0,1,8.77-12.12c2.64-3,5.58-5.71,8-8.93a37.17,37.17,0,0,0,7.07-17.13,22.4,22.4,0,0,0-2.48-14.67c-1.19-2.14-2.72-4-4-6.13a15,15,0,0,0-1.24-2.47,12.32,12.32,0,0,1-2-3.75c-.82-1.89-1.66-3.77-2.55-5.64a16.4,16.4,0,0,0-2.46-3.75A3,3,0,0,0,202,4a29.78,29.78,0,0,0-6.32.63c-4,.83-7.94,1.76-11.93,2.46C178,8,172.14,8.77,166.35,9.78c-5.41.94-10.83,1.78-16.3,2.28-5.1.46-10.21.64-15.33.76-5.3.13-10.61.19-15.92.28-4.06.07-8.11.11-12.17,0-3.31-.1-6.62-.41-9.92-.5-3.92-.1-7.87,0-11.8-.11-1.53,0-1.62.09-1.26,1.61,1.32,5.5,1.57,11.12,1.93,16.72.2,3.12.08,6.25,0,9.38,0,2.8-.29,5.61-.14,8.4.12,2.37.17,4.73.14,7.1-.06,5-.13,10-.3,15A71.35,71.35,0,0,1,84.71,80a53.55,53.55,0,0,1-1.78,5.9c-.42,1.48-.18,1.74,1.35,1.92,1.94.22,3.87,0,5.81,0,5.62.13,11.24,0,16.86-.19a62.21,62.21,0,0,1,10.66.33c2.78.35,5.56.78,8.36,1,2.48.24,5,.24,7.48.46q8.78.8,17.53,1.71a28.84,28.84,0,0,1,6.42,1.32c3.21,1.11,5.59,3,6,6.67a11,11,0,0,1-.17,3.53c-.17.82.05,1.23.9,1.16,1.2-.08,2.15.61,3.18,1a1.54,1.54,0,0,1,1,1.29c.81,4.79-.2,8.94-4.25,12a11.43,11.43,0,0,1-3.19,1.93,2.39,2.39,0,0,0-1.67,2.21c-.48,2.89-1,5.77-1.8,8.61A5.77,5.77,0,0,0,156.78,133.86ZM198.24,202c-1.93,0-3.86,0-5.79,0-.72,0-1,.18-1.28,1-2.72,9.1-5.85,18.06-9.27,26.91-2.68,6.93-5.6,13.78-8.91,20.43-1,2.09-1.59,4.5-3.42,6.17a.54.54,0,0,0,0,.83c.88.91.64,1.93.38,3-.7,2.79-1.46,5.56-2,8.39a6.8,6.8,0,0,1-.88,2.66,11.8,11.8,0,0,0-1.58,4c-.22,1-.5,1.93-.79,2.89-1.12,3.63-2,7.36-2.83,11-.72,3.07-1.1,6.26-1.69,9.38-.74,3.92-1.57,7.83-2.12,11.79a3.17,3.17,0,0,1-1.89,2.81,1.86,1.86,0,0,0-1,1.26c-.85,2.41-.05,4.59,1.12,6.59.52.89.93,2,2.17,2.45a17.49,17.49,0,0,0,7.53,1.23c4.37-.45,8.8-.72,12.91-2.61,1.35-.62,2.76-1.18,4.16-1.67A61.27,61.27,0,0,0,194,314.85a52.38,52.38,0,0,0,7.21-5c1.75-1.49,3.78-2.62,5.42-4.27,1.41-1.41,3.11-2.52,4.55-3.86s3.07-3.08,4.61-4.62a163.3,163.3,0,0,0,12.51-14.43,107.88,107.88,0,0,0,8.37-12.38,101.63,101.63,0,0,0,6.1-11.94A67.57,67.57,0,0,0,247,244.58a37.06,37.06,0,0,0-.3-16.89,25.61,25.61,0,0,0-5.88-10.7,37.91,37.91,0,0,0-7.87-6.57,44.64,44.64,0,0,0-11-5.06A79.38,79.38,0,0,0,198.24,202ZM83.41,30.38c0-.55,0-1.55,0-2.55a103.34,103.34,0,0,0-1.31-11.9c-.1-.66-.24-.94-1-.87A34.2,34.2,0,0,1,68.44,14q-4-1.14-7.95-2.2A92.06,92.06,0,0,1,45.58,6.81C42.91,5.59,40.24,4.38,37.65,3a4.11,4.11,0,0,0-5,.36,31.57,31.57,0,0,0-4.83,5.18c-5.06,6.36-8.33,13.62-10.73,21.3a68.54,68.54,0,0,0-2.61,12.24,44.79,44.79,0,0,0,1.27,18.18,126.61,126.61,0,0,0,5.81,15.6A124.54,124.54,0,0,0,33.79,97.52c1.62,2.3,2.6,2.58,5.23,1.51l.35-.14Q45.66,96,51.94,93.05a108.94,108.94,0,0,1,10.52-4.44,46.23,46.23,0,0,1,16.79-2.39c1.08,0,1.46-.32,1.86-1.28A26.11,26.11,0,0,0,83,76.19c.34-6.24.51-12.48.56-18.73,0-5,0-10,0-15a10.81,10.81,0,0,1,.4-4.23C83.24,35.81,83.77,33.3,83.41,30.38Zm32.74,60.1c-2.12-1-3.29-.77-4.88.8-3.47,3.41-7,6.8-10.42,10.23-4.66,4.61-9.33,9.21-13.93,13.88-3.6,3.65-7.09,7.39-10.62,11.1-4.21,4.45-8.44,8.87-12.57,13.38-1.13,1.25-2.52,2.26-3.51,3.6-2.36,3.16-5.22,5.88-7.78,8.86-4.22,4.93-8.62,9.71-12.72,14.75-3.38,4.16-6.62,8.45-9.72,12.83a238.18,238.18,0,0,0-14.36,22.56,161.28,161.28,0,0,0-7.58,15.66c-2.93,7.07-5.25,14.29-6,22a20.12,20.12,0,0,0,.6,7.42,8.38,8.38,0,0,0,4.86,5.62,17.88,17.88,0,0,0,7.89,1.26,60.09,60.09,0,0,0,16.77-3.48c4.63-1.54,9.2-3.22,13.75-5,7.39-2.86,14.67-6,22-8.93.7-.28,1.4-1,2.17-.11.62-.43.78-1.23,1.62-1.56,5.34-2.13,10.62-4.38,15.94-6.56q5.19-2.13,10.41-4.18,7.57-3,15.18-5.82c2.22-.84,4.52-1.47,6.72-2.34,7.5-3,15.26-5.15,22.94-7.55,5.23-1.63,10.6-2.76,15.92-4.1,5.64-1.41,11.38-2.3,17.1-3.22,3.69-.59,7.44-.9,11.16-1.18a116.11,116.11,0,0,1,21.5.31,62.67,62.67,0,0,1,20,5.29,57.12,57.12,0,0,1,5.86,3.3,33.34,33.34,0,0,1,10.88,11.09,29,29,0,0,1,4.23,15c.18,9.45-2.53,18.26-6.48,26.69a124.27,124.27,0,0,1-18.33,27.74,123.14,123.14,0,0,1-18.65,18.29c-3.61,2.77-7.18,5.57-11.05,8a118.92,118.92,0,0,1-15.5,7.7c-2.66,1.17-5.51,1.46-8.25,2.12-5.53,1.32-11,.92-16.09-2.11a11.1,11.1,0,0,1-5.85-8.61,5.66,5.66,0,0,0-.24-1.1.7.7,0,0,0-.32-.42.49.49,0,0,0-.59.32c-.76,1.49-1.31,3-.58,4.66,1.07,2.38,2,4.86,4.42,6.34.37.23.68.56,1,.81,4.33,3,8.95,5.34,14.41,4.93a60.76,60.76,0,0,0,19.59-4.77A82.08,82.08,0,0,0,205,315a213.46,213.46,0,0,0,17.34-15.45c4.2-4.09,8.3-8.31,12.17-12.72a87.88,87.88,0,0,0,7-8.8,113.94,113.94,0,0,0,10.92-20.66,107.71,107.71,0,0,0,4.19-12,32.83,32.83,0,0,0-1.68-22.53,61.69,61.69,0,0,0-6.58-11.53c-2.58-3.54-5.38-6.93-9.24-9.2a75.7,75.7,0,0,0-14.78-6.78c-10.26-3.34-20.77-3.46-31.35-2.45-6.54.63-13,2.06-19.4,3.28a266.35,266.35,0,0,0-29.08,7.27c-4.48,1.38-9,2.75-13.5,3.94-6.76,1.78-13.49,3.68-20.13,5.89s-13,4.38-19.44,6.83c-7.59,2.89-15.1,6-22.46,9.42-6.46,3-12.88,6.1-19.35,9.06a229.32,229.32,0,0,1-23.11,8.8,35.52,35.52,0,0,1-12.5,2,10,10,0,0,1-4.94-1.52A6.29,6.29,0,0,1,5.84,242a33.06,33.06,0,0,1,.41-4.66c1.37-9,4.5-17.39,8.4-25.54,1.24-2.58,2.82-5,4.22-7.49,2.15-3.81,4.65-7.39,6.94-11.1,1.4-2.29,3-4.47,4.49-6.68,3.14-4.59,6.28-9.17,9.8-13.49.89-1.08,1.95-2,2.72-3.18s1.84-2.34,2.77-3.5c2.22-2.77,4.63-5.39,6.92-8.11s4.52-5,6.75-7.51c2.81-3.17,5.54-6.42,8.19-9.72,2.35-2.93,5-5.53,7.34-8.51A64.79,64.79,0,0,1,80,126.39c3.46-3.49,6.68-7.22,10.28-10.58C92.21,114,94,112,96,110.25c1.53-1.29,2.86-2.76,4.3-4.12,3.45-3.25,6.71-6.71,10.07-10.06C112.29,94.19,114.35,92.49,116.15,90.48ZM163.32,239a3.78,3.78,0,0,1,0-2.11c.73-3.53,1.48-7.07,2.19-10.6q1.74-8.59,3.43-17.2c.21-1,.4-2.08.55-3.13s0-1.28-1.19-1.11a5.48,5.48,0,0,0-.56.1q-10.22,2-20.26,4.71c-1.41.39-1.46.4-1.49,1.91-.11,6-.27,12-.26,18,0,5.61.17,11.23.35,16.84a50.61,50.61,0,0,0,.35,6.15c.11.72.42,1,1.13.79.54-.18,1.07-.35,1.6-.55,2.33-.89,4.65-1.83,7-2.67,4.33-1.56,6.76-.79,9.43,2.9.22.3.38.65.63.93a7,7,0,0,0,1.88,1.94c.48-1,.92-2,1.37-2.9,3.3-6.87,6.42-13.82,9.28-20.88,3.43-8.46,6.38-17.08,9.29-25.73.48-1.4.51-3,1.74-4.14a5.82,5.82,0,0,0-2.58-.07,25.33,25.33,0,0,1-2.6.34c-3.93.26-7.81.92-11.7,1.49a1.93,1.93,0,0,0-1.82,1.8c-.17,1.11-.43,2.2-.66,3.3-1.19,5.81-2.44,11.6-3.56,17.42-.66,3.44-1.39,6.85-2.36,10.21A7.57,7.57,0,0,1,163.32,239Zm-17.8,28.71c2.14-1.39,4.13-2.67,6.1-4a17.47,17.47,0,0,1,3.6-2c2.16-.78,3-.54,4.34,1.26a30.1,30.1,0,0,1,3.23,5.25,3.22,3.22,0,0,0,1.26,1.58c.42.24.87.33,1.07-.25a15,15,0,0,0,1.11-3A13.06,13.06,0,0,1,167,263c.92-2.11.79-3.73-1.05-5.37a32.66,32.66,0,0,1-3.32-4.27,4.36,4.36,0,0,0-4.83-1.58,42.24,42.24,0,0,0-4.74,1.68,72.65,72.65,0,0,0-7.88,3.46,1.34,1.34,0,0,0-.9,1.44A45.21,45.21,0,0,0,145.52,267.67ZM230.05,16.45c-.17.45.2.68.38,1,2.52,4.24,4.95,8.51,7.06,13a29.36,29.36,0,0,1,2.25,18.82,80.88,80.88,0,0,1-6.73,19c-2.76,5.7-3.88,11.84-5.34,17.9a.69.69,0,0,0,.14.7c.27.28.56.15.85,0a3.3,3.3,0,0,0,1.78-2.7c1-4.38,2.89-8.37,4.77-12.39a71,71,0,0,0,6-21,47.54,47.54,0,0,0-.39-15.29,39.23,39.23,0,0,0-6.65-15.37,17.62,17.62,0,0,0-3-3.31C230.87,16.59,230.56,16.22,230.05,16.45Zm3.51,65.82c.52,0,.73-.29.92-.6a18.38,18.38,0,0,0,1.64-2.94c1.64-4.19,3.26-8.38,4.95-12.55.85-2.08,2.11-4,2.73-6.16,1.64-5.73,2.63-11.56,1.65-17.57-.21-1.23-.27-2.48-.47-3.72a61.31,61.31,0,0,0-2.09-10.46A12.11,12.11,0,0,0,241,24.63a1.89,1.89,0,0,0-1.73-1,4.5,4.5,0,0,0,.6,1.83A42.29,42.29,0,0,1,243,34.71a54.7,54.7,0,0,1,.37,17.69A75.56,75.56,0,0,1,240.9,63a52.81,52.81,0,0,1-2.74,7.75c-1.25,2.86-2.6,5.68-3.86,8.54C233.88,80.22,233.28,81.15,233.56,82.27ZM152.9,312c.74-.06,1.49-.09,2.23-.21a1.39,1.39,0,0,0,1.29-1.17c.1-.7-.54-.72-1-.89a3.85,3.85,0,0,1-1.61-1.24c-.61-.71-1.25-1.4-1.87-2.1-1.58-1.75-2.3-1.93-4.4-1a10.84,10.84,0,0,1-3.88,1.29.81.81,0,0,0-.76.46c-.33.77.69,3.1,1.55,3.32A39.63,39.63,0,0,0,152.9,312Zm7.42-197.55c0,.81-.1,1.62-.11,2.43,0,1,.23,1.1,1.1.59a10,10,0,0,0,5-10.28c-.09-.74-.35-1.16-1.13-1.17s-1.37-.06-2.06,0c-3.18,0-3.81.75-3.23,3.83A19.13,19.13,0,0,1,160.32,114.41ZM216.4,56.6l.29.25c.75-.28,1.83-.36,2.17-.9a11.61,11.61,0,0,0,1.74-3.07,78.47,78.47,0,0,0,2.71-15.27,27.1,27.1,0,0,0-1-8.15,2.58,2.58,0,0,0-1.28-2c-.35-.16-.71-.31-1.05,0s-.15.67,0,1a20.93,20.93,0,0,1,1.7,7.25,38.54,38.54,0,0,1-3.82,17.95C217.39,54.64,216.89,55.62,216.4,56.6ZM158.53,293.26a1.81,1.81,0,0,0,1-1c.15-.33-.08-.6-.38-.75a5.87,5.87,0,0,1-1.85-2,25.07,25.07,0,0,0-3.52-4.1,1.52,1.52,0,0,0-2-.27c-2.59,1.59-4.93,3.55-7.6,5a1.53,1.53,0,0,0-.34,2.28c.65.71,1.25.25,1.8-.15,1.15-.85,2.25-1.78,3.42-2.6a4.45,4.45,0,0,1,6.11.4c.87.8,1.64,1.7,2.46,2.56C157.89,292.9,158.06,293.27,158.53,293.26ZM144.63,283c.39,0,.65-.43,1-.69,1.91-1.49,3.65-3.19,5.89-4.25a5.24,5.24,0,0,1,6.81,2.42c.49,1.07,1.1,2.1,1.67,3.14.24.45.59.63,1,.22a.52.52,0,0,0,0-.92,5.13,5.13,0,0,1-1.71-2.83,19.44,19.44,0,0,0-3.52-5.48,1.83,1.83,0,0,0-2.32-.56,10.47,10.47,0,0,0-2.57,1.51L145,280.14c-.34.27-.65.57-1,.86-.64.55.09,1,.12,1.52A.49.49,0,0,0,144.63,283Zm10.87-16.49a3.63,3.63,0,0,1,3.18,1.87c1,1.53,1.51,3.28,2.56,4.77s1.14,1.56,2.58.52c.77-.57.79-1.14-.1-1.47a5.05,5.05,0,0,1-3-3.11,19.7,19.7,0,0,0-2.73-4.67,1.61,1.61,0,0,0-2.13-.59,11.1,11.1,0,0,0-1.53.68c-3.35,2.15-6.83,4.1-9.75,6.87a.88.88,0,0,0-.16,1.31c.42.51.78,0,1.08-.25,1.53-1.19,3-2.45,4.57-3.57S153.18,266.54,155.5,266.53Zm-.08,2a6.81,6.81,0,0,0-2.88,1.16c-2.62,1.71-4.93,3.82-7.47,5.63a2.63,2.63,0,0,0-1,1.09,1.09,1.09,0,0,0,.27,1.21c.36.39.67,0,.95-.18.8-.6,1.63-1.17,2.38-1.82a30.49,30.49,0,0,1,4.13-2.92c2.22-1.38,3.85-1.09,5.69.78a20.34,20.34,0,0,1,3.06,4.24,8.5,8.5,0,0,0,.55,1c.53.67,1.05.12,1.45-.15.56-.39.15-.77-.23-1a10.31,10.31,0,0,1-3.09-3.44,42.88,42.88,0,0,1-2-4C156.78,269.25,156.28,268.56,155.42,268.48Zm4.74,19.4a.93.93,0,0,0-.42-.6,4.65,4.65,0,0,1-1.2-1.65c-.7-1.26-1.32-2.55-2-3.79-1.35-2.31-2.63-2.63-4.94-1.35-2.64,1.47-4.69,3.73-7.24,5.31-.68.42-1,1.46-.7,1.9.54.69,1.18-.19,1.7-.53,1.88-1.23,3.57-2.73,5.55-3.8a3.11,3.11,0,0,1,3.32-.16,11.9,11.9,0,0,1,3.5,3.31,8.41,8.41,0,0,0,1.64,1.78.49.49,0,0,0,.67-.1A1.37,1.37,0,0,0,160.16,287.88Zm-16,11.13c-.54,0-1.17-.43-1.45.38a1.5,1.5,0,0,0,.56,1.67,1.31,1.31,0,0,0,1.83.28c1.15-.75,2.32-1.46,3.52-2.12,2.25-1.23,3.94-.84,5.3,1.27.62.95,1.4,1.76,2.08,2.65.43.57.88.38,1.2-.11s1.18-1.12.43-1.54c-1.61-.91-2.24-2.45-3.14-3.86-1.27-2-2.86-2.35-5-1.33a13.19,13.19,0,0,0-2.56,1.88A3.39,3.39,0,0,1,144.11,299Zm14.6-1.59a.85.85,0,0,0-.41-1,8.48,8.48,0,0,1-2.29-2.41,16,16,0,0,0-2.6-2.67,2.39,2.39,0,0,0-2.93-.23,24.29,24.29,0,0,0-3,2.2c-1,.8-2,1.77-3.44,1.6-.67-.08-.87.31-.94.87a1,1,0,0,0,.7,1.16,1.92,1.92,0,0,0,1.91-.41c.94-.71,1.9-1.42,2.9-2a5.17,5.17,0,0,1,6.9,1.05,13.46,13.46,0,0,1,1.59,2.3c.21.36.42.85,1,.73S158.65,297.91,158.71,297.42ZM247.4,36.25l-.45,0c.17,1.47.25,2.94.52,4.39a40.53,40.53,0,0,1,.26,11.74c-.09.83-.79,1.43-.59,2.29a6.31,6.31,0,0,1-.29,2.76,37,37,0,0,1-2.95,7.86c-1.15,2.5-2.12,5.07-3.12,7.63a.86.86,0,0,0,.07,1,5.75,5.75,0,0,0,1.26-2.05c1.17-3,2.32-5.94,3.52-8.89,2.81-6.94,4.37-14.07,3.21-21.59C248.57,39.6,248.57,37.75,247.4,36.25ZM149.68,302.76a4.42,4.42,0,0,1,3.15,1.55c1,1,1.89,2,2.86,3,.32.32.75.58,1.09.06a.71.71,0,0,0-.24-1.12c-2.08-.83-3-2.73-4.18-4.4s-1.35-1.66-3-.81c-.44.22-.86.5-1.28.76-1.52,1-2.95,2.16-5,1.53-.45-.14-.73.45-.48.89s.68.48,1.13.48a4.92,4.92,0,0,0,2.1-.72A12.72,12.72,0,0,1,149.68,302.76Zm3.45,16.6c0-1.71-.4-3.18-.12-4.64.14-.69-.14-1.06-.86-1.12s-1.3.32-1.23,1A6.63,6.63,0,0,0,153.13,319.36Zm5.11-201c-.4-1.59.21-3.16-.05-4.67-.12-.7.31-2-.71-1.94s-.73,1.44-.58,2.27c.24,1.33.63,2.64,1,4C157.93,118.1,158.12,118.21,158.24,118.34Z"/><path d="M178,163.63c.68-.26.6-.91.67-1.43.5-4.28,1.54-8.45,2.37-12.66.5-2.57,1.13-5.1,1.59-7.68.34-1.89.87-3.74,1.17-5.64.81-4.92,2.14-9.73,3-14.64.48-2.82.79-5.67,1.52-8.45a16.16,16.16,0,0,0,.27-2.41,2.29,2.29,0,0,1,.28-1.26.76.76,0,0,1,1-.29.66.66,0,0,1,.38.77c-.36,2.21-.72,4.41-1.11,6.61-.71,4-1.42,8-2.16,12-.25,1.35-.53,2.69-.87,4-.4,1.55-.73,3.11-1,4.69-.6,3.37-1.33,6.71-2,10.06q-1.29,6.3-2.61,12.6c-.19.91-.41,1.82-.64,2.72-.33,1.26-.34,1.25-1.81,1Z"/><path d="M175.83,180.79a1.38,1.38,0,0,1-.85-1.6c.19-2.44,1.13-4.69,1.54-7.06a79,79,0,0,0,1.45-8.5h0a2.21,2.21,0,0,1,1,2.69c-.89,4.16-1.66,8.35-2.45,12.54a5.49,5.49,0,0,1-.72,1.89Z"/><path d="M175.77,180.75c0,2.74-1,5.31-1.36,8a23.61,23.61,0,0,1-.56,2.35c-.11.48-.39.83-.91.68s-.49-.64-.39-1.09c.07-.3.16-.6.23-.9.54-2.35.84-4.75,1.48-7.08a2.43,2.43,0,0,1,1.56-1.9Z"/></g></g></svg>