<svg xmlns="http://www.w3.org/2000/svg" viewBox="0 0 103 103"><defs><style>.cls-1{fill:#f7f7f7;}.cls-2{fill:none;stroke:#f7f7f7;stroke-miterlimit:10;}</style></defs><title>tt</title><g id="Layer_2" data-name="Layer 2"><g id="Layer_1-2" data-name="Layer 1"><path class="cls-1" d="M88.63,28.22a32.18,32.18,0,0,1-8.94,2.45,15.42,15.42,0,0,0,6.83-8.57,30.84,30.84,0,0,1-9.84,3.75A15.51,15.51,0,0,0,49.85,36.46,16.35,16.35,0,0,0,50.21,40a43.91,43.91,0,0,1-32-16.23A15.52,15.52,0,0,0,23,44.5a15.23,15.23,0,0,1-7-1.91v.17A15.58,15.58,0,0,0,28.43,58a15.34,15.34,0,0,1-4.07.51,13.63,13.63,0,0,1-2.94-.26,15.66,15.66,0,0,0,14.5,10.8,31.17,31.17,0,0,1-19.23,6.62A30.24,30.24,0,0,1,13,75.46a43.69,43.69,0,0,0,23.8,7c28.54,0,44.14-23.65,44.14-44.14,0-.69,0-1.35,0-2A31,31,0,0,0,88.63,28.22Z"/><circle class="cls-2" cx="51.5" cy="51.5" r="51"/></g></g></svg>