<svg xmlns="http://www.w3.org/2000/svg" viewBox="0 0 146.21 104.57"><defs><style>.cls-1{fill:#fff;}</style></defs><title>wlogo</title><g id="Layer_2" data-name="Layer 2"><g id="Layer_1-2" data-name="Layer 1"><path class="cls-1" d="M43.56,8.81,41.12,11c-.93.85-1.87,1.7-2.82,2.54s-2,1.77-3,2.62c-1.26,1.07-2.51,2.14-3.79,3.19-1.93,1.57-3.88,3.1-5.92,4.54a58.8,58.8,0,0,1-5,3.24,33.12,33.12,0,0,1-5.77,2.66,17.89,17.89,0,0,1-3.38.81,11,11,0,0,1-2.36.07,9.45,9.45,0,0,1-4.66-1.5,9.13,9.13,0,0,1-2.8-3A11.36,11.36,0,0,1,.24,22.09a10.42,10.42,0,0,1-.15-2.16,9.18,9.18,0,0,1,.83-3.65,3.44,3.44,0,0,1,2.23-2c.2,0,.4,0,.6,0s.1.08.13.15A23.07,23.07,0,0,0,5.22,17a6.81,6.81,0,0,0,4.55,3.12,5.42,5.42,0,0,0,1.4.16c.46,0,.91,0,1.38,0a18.31,18.31,0,0,0,3-.39,28.59,28.59,0,0,0,3.94-1.14c1.06-.38,2.1-.8,3.13-1.25,1.3-.57,2.58-1.18,3.82-1.85s2.6-1.42,3.89-2.16C33.19,11.81,36,10,38.78,8.1c1.93-1.3,3.86-2.61,5.76-3.94.61-.43,1.25-.81,1.87-1.22.25-.17.54,0,.78,0A9.82,9.82,0,0,1,51.52,5.2a5.44,5.44,0,0,1,1.51,2,2.44,2.44,0,0,1-.13,2c-1.17,2.68-2.22,5.4-3.27,8.12-.94,2.46-2,4.89-2.91,7.34s-1.95,5-2.93,7.51-2,4.88-2.92,7.33c-1.12,2.88-2.24,5.75-3.38,8.61-.78,2-1.53,3.94-2.3,5.91-.84,2.18-1.65,4.37-2.54,6.53a1.69,1.69,0,0,0,.13,1.49q.93,2.27,1.68,4.59c.51,1.62.94,3.26,1.36,4.91.13.49.21,1,.31,1.52q3-.6,6-1.42c.17,0,.15-.15.18-.23.56-1.65,1.11-3.3,1.68-4.94.87-2.51,1.74-5,2.63-7.52.62-1.74,1.27-3.47,1.91-5.21q1.08-2.91,2.17-5.82c.56-1.49,1.11-3,1.68-4.48s1.16-3.05,1.74-4.57l1.62-4.22,2-5.17c.68-1.75,1.37-3.49,2-5.23.61-1.55,1.23-3.1,1.84-4.64.73-1.88,1.48-3.75,2.23-5.62a37.32,37.32,0,0,1,3.26-6.62,25.72,25.72,0,0,1,2-2.72,13.88,13.88,0,0,1,2.72-2.42A12.14,12.14,0,0,1,76.11.42,15.68,15.68,0,0,1,78.66.05c.51,0,1-.07,1.53,0a10.81,10.81,0,0,1,4.89,1.17A3.36,3.36,0,0,1,86.89,3.5,1.77,1.77,0,0,1,86.47,5a.3.3,0,0,1-.44.11,10.48,10.48,0,0,0-3.16-.84,5.32,5.32,0,0,0-4.21,1.17A10,10,0,0,0,76.49,8a38.31,38.31,0,0,0-2.32,5c-.67,1.58-1.32,3.17-2,4.76-.76,1.86-1.47,3.73-2.21,5.59-.65,1.65-1.32,3.29-2,4.95s-1.35,3.56-2,5.34S64.64,37.25,64,39c-.61,1.59-1.19,3.2-1.79,4.8-.66,1.78-1.33,3.56-2,5.35-.83,2.24-1.65,4.49-2.47,6.73q-1.35,3.68-2.68,7.35c-.4,1.09-.8,2.19-1.21,3.33a18.16,18.16,0,0,0,2-1.31,24.67,24.67,0,0,0,3.55-3.07c.5-.54,1-1.12,1.42-1.7.08-.1.14-.16.24-.12a2.34,2.34,0,0,1,1.45.92,2.17,2.17,0,0,1,.23,1.31,4.74,4.74,0,0,1-.52,1.7,7.27,7.27,0,0,1-1.1,1.55A21.66,21.66,0,0,1,55.59,70a32.29,32.29,0,0,1-3.39,1.67.55.55,0,0,0-.29.34c-.55,1.57-1.1,3.14-1.67,4.7-.85,2.36-1.73,4.71-2.58,7.07s-1.66,4.67-2.5,7c-.6,1.68-1.22,3.35-1.84,5l-1.1,3c-.1.28-.38.21-.57.24a14.8,14.8,0,0,1-2.9.06,5.54,5.54,0,0,1-3.19-1,2.5,2.5,0,0,1-1-1.9,4.94,4.94,0,0,1,0-.86c0-1.19-.07-2.37-.09-3.56s-.11-2.23-.19-3.35-.17-2-.28-3-.24-2.29-.42-3.43-.35-2.47-.6-3.69a7.19,7.19,0,0,1-.14-.93c0-.23-.12-.27-.31-.24-.52.08-1.05.17-1.59.22s-.9.13-1.36.18l-2.75.28a2.87,2.87,0,0,0-.71,0,.4.4,0,0,0-.28.25q-1,2.63-2,5.26c-.73,2-1.48,3.93-2.2,5.91-1,2.66-2,5.31-2.87,8-.12.36-.28.72-.39,1.09a.72.72,0,0,1-.58.54,9.6,9.6,0,0,1-3.07.19,4.05,4.05,0,0,1-2.2-.76,2.37,2.37,0,0,1-1-1.85A12.94,12.94,0,0,1,12,93.4c.2-1.09.47-2.17.74-3.24.37-1.44.77-2.88,1.17-4.31.75-2.71,1.6-5.39,2.47-8.06,0-.07.05-.13.07-.2A30.57,30.57,0,0,1,13,76.88a24.44,24.44,0,0,1-3.25-1.12,18.75,18.75,0,0,1-3.42-1.9A15.17,15.17,0,0,1,3.25,71,14.32,14.32,0,0,1,.7,66.34a15.63,15.63,0,0,1-.55-2.53A14.27,14.27,0,0,1,0,60.68a16.29,16.29,0,0,1,1.13-5.14A13.91,13.91,0,0,1,3,52.34,13.22,13.22,0,0,1,6.51,49.1a14.66,14.66,0,0,1,4.88-1.91,22.57,22.57,0,0,1,2.83-.36,15,15,0,0,1,1.77,0,14.62,14.62,0,0,1,5.08,1.15,16.71,16.71,0,0,1,3.85,2.41,6.07,6.07,0,0,1,1,1c.44-1.15.87-2.24,1.3-3.33L29.18,43q1.13-2.85,2.26-5.68c.51-1.27,1-2.52,1.56-3.79.65-1.6,1.29-3.21,2-4.8s1.23-2.93,1.85-4.39,1.14-2.77,1.73-4.15,1.09-2.48,1.63-3.72c.92-2.13,1.86-4.25,2.85-6.34a10.68,10.68,0,0,0,.59-1.29.07.07,0,0,0,0-.12ZM9.84,62.31a13.87,13.87,0,0,0,.34,2.75A12.81,12.81,0,0,0,12,69.42,10.87,10.87,0,0,0,14.38,72a10.69,10.69,0,0,0,3.14,1.68c.1,0,.13.05.18-.1.45-1.34.92-2.68,1.4-4,.74-2.09,1.5-4.17,2.26-6.24.47-1.29,1-2.57,1.45-3.87.4-1.13.85-2.24,1.27-3.37a.31.31,0,0,0-.07-.37A23.53,23.53,0,0,0,22.28,54a15.62,15.62,0,0,0-2.41-1.73A12.63,12.63,0,0,0,14.8,50.7a.39.39,0,0,0-.39.14c-.19.22-.4.44-.59.65a14.72,14.72,0,0,0-2.53,3.86A16.18,16.18,0,0,0,9.84,62.31Zm28,23.49a2.24,2.24,0,0,0,.11-.22c.68-2.59,1.46-5.15,2.25-7.71.23-.72.45-1.45.68-2.17,0-.15,0-.25-.13-.2-1.28.38-2.59.6-3.89.88-.14,0-.1.07-.08.16.12.73.25,1.47.34,2.21s.21,1.57.29,2.36c.1,1,.18,1.9.28,2.85A9.65,9.65,0,0,0,37.85,85.8ZM30.2,67.05c-.34.84-.66,1.61-1,2.4l-1.71,4.46c-.13.34-.06.39.31.35L30.47,74c.5,0,1-.14,1.49-.2.14,0,.16,0,.12-.17-.33-1.22-.61-2.44-.95-3.65C30.86,69,30.57,68.05,30.2,67.05Z"/><path class="cls-1" d="M144.3,21.65a15.36,15.36,0,0,1-1,1.51c-1.23,1.84-2.42,3.71-3.53,5.63-.7,1.22-1.39,2.44-2.05,3.67-.47.89-.92,1.8-1.4,2.7a5.86,5.86,0,0,0-.66,2.24A1.43,1.43,0,0,0,136.7,39c1.13.36,2.26.74,3.4,1.08a24.08,24.08,0,0,1,3.81,1.39,4,4,0,0,1,2.26,3.41,11.76,11.76,0,0,1-.88,5c-.58,1.78-1.3,3.51-2,5.22q-1,2.22-2,4.43c-.59,1.29-1.2,2.58-1.8,3.87-.8,1.71-1.62,3.42-2.38,5.15-1,2.21-2,4.43-2.8,6.7a25.28,25.28,0,0,0-.89,2.8.56.56,0,0,0,0,.29,10.53,10.53,0,0,0,1.61-1,17.53,17.53,0,0,0,2.57-2.3,28.85,28.85,0,0,0,1.94-2.33c.65-.86,1.29-1.73,1.87-2.64s1.21-2,1.81-2.93a.75.75,0,0,1,1-.33.94.94,0,0,1,.69,1,7.84,7.84,0,0,1-.59,2.65,23.69,23.69,0,0,1-2.93,5.31,26.59,26.59,0,0,1-2.17,2.69c-.42.46-.84.91-1.28,1.33a15.16,15.16,0,0,1-4.08,2.88,6.54,6.54,0,0,1-2.1.57,6.12,6.12,0,0,1-4.36-1.3,8.08,8.08,0,0,1-3-4.7,6.93,6.93,0,0,1-.19-2.35,9.42,9.42,0,0,1,.59-2.2,95.56,95.56,0,0,1,4.56-9.79c.72-1.44,1.49-2.86,2.25-4.29.61-1.16,1.22-2.33,1.84-3.49,1.13-2.11,2.24-4.22,3.28-6.37a26.13,26.13,0,0,0,1.43-3.41,2.42,2.42,0,0,0-.89-2.58c-.75-.58-1.59-1-2.31-1.64-.14-.12-.21-.06-.24.07a50.65,50.65,0,0,1-1.87,5.22c-.38,1-.81,1.93-1.23,2.88-.75,1.68-1.5,3.36-2.27,5-1,2.21-2.11,4.41-3.24,6.58-.77,1.5-1.57,3-2.44,4.43-1,1.63-2,3.24-3,4.81q-1.32,2-2.77,3.8c-.78,1-1.59,2-2.44,2.92-.6.66-1.19,1.34-1.84,2a23,23,0,0,1-4.26,3.35,7.77,7.77,0,0,1-9.55-1.55,5.19,5.19,0,0,1-1.36-2.76,10.35,10.35,0,0,1,.15-2.78,28.3,28.3,0,0,1,.66-3.17c-.07,0-.11,0-.14,0-1,1.65-2.18,3.24-3.37,4.79-.51.66-1.06,1.3-1.63,1.93s-1.12,1.2-1.71,1.76a12.92,12.92,0,0,1-3.16,2.28,5,5,0,0,1-2.41.56,5.11,5.11,0,0,1-2.82-1,7,7,0,0,1-2.8-4.07,4.3,4.3,0,0,1,0-1.75,35.37,35.37,0,0,1,1.65-5.61c.64-1.84,1.32-3.67,2-5.51a.1.1,0,0,0,0-.12c-.14,0-.13.11-.16.17-.72,1.4-1.41,2.83-2.15,4.22-1.19,2.23-2.39,4.46-3.74,6.61a33,33,0,0,1-2.46,3.51,10.72,10.72,0,0,1-3.67,3.15,4.77,4.77,0,0,1-2.89.35,8.42,8.42,0,0,1-3.53-1.54A8.16,8.16,0,0,1,62.86,77a5.6,5.6,0,0,1-.16-1.48,25.48,25.48,0,0,1,.08-2.62c.15-1.09.27-2.17.46-3.25q.4-2.33,1-4.62c.29-1.16.63-2.32,1-3.47q.72-2.47,1.64-4.89c.57-1.52,1.17-3,1.78-4.55.78-1.92,1.6-3.82,2.49-5.69a65.75,65.75,0,0,1,3.31-6.2A33.65,33.65,0,0,1,76.9,36.7a16,16,0,0,1,3.45-3.27,8.28,8.28,0,0,1,3.18-1.34,6.41,6.41,0,0,1,3.46.39,8.19,8.19,0,0,1,3.09,2.06,9.5,9.5,0,0,1,2.32,4.28c.13.51.2,1,.31,1.59.23-.57.44-1.1.65-1.64.65-1.67,1.34-3.33,1.92-5A1,1,0,0,1,96.49,33a20.63,20.63,0,0,1,3.43.3,3.49,3.49,0,0,1,2.51,1.67,3.38,3.38,0,0,1,.41,1.55,12,12,0,0,1-.59,3.66c-.63,2.5-1.46,5-2.3,7.38-.9,2.62-1.84,5.21-2.82,7.8-.84,2.23-1.75,4.45-2.65,6.66C93.66,64,92.81,66,92,68.05c-1.06,2.58-2.15,5.16-3.1,7.78a27.92,27.92,0,0,0-1.06,3.32,8.49,8.49,0,0,0,2-1.26,17.19,17.19,0,0,0,1.77-1.64c1-1.1,2-2.24,2.9-3.42,1.24-1.61,2.4-3.28,3.52-5,1-1.49,1.92-3,2.83-4.56q1.64-2.79,3.17-5.64c.93-1.74,1.88-3.49,2.73-5.28.67-1.42,1.26-2.88,1.89-4.33.49-1.12,1-2.23,1.48-3.35.61-1.47,1.22-2.93,1.79-4.41a30.49,30.49,0,0,0,1.28-4.07c.17-.73.18-.77-.5-.54a14,14,0,0,1-2.55.58,5.5,5.5,0,0,1-2.52-.06c-.58-.19-1.09-.43-1.07-1.32a4.73,4.73,0,0,1,.15-1.24c0-.2.13-.34.38-.32a20.65,20.65,0,0,0,2.49-.07c.87-.05,1.72-.18,2.58-.26a25.19,25.19,0,0,1,4.16-.13A6.17,6.17,0,0,1,119.66,34a4.58,4.58,0,0,1,1.76,2.71,7.89,7.89,0,0,1,.11,2.27,14.19,14.19,0,0,1-.58,2.87q-.58,2.07-1.32,4.08-.82,2.25-1.72,4.47c-.63,1.52-1.24,3.05-1.87,4.58-.49,1.16-1,2.32-1.51,3.48s-1,2.31-1.45,3.47-.92,2.1-1.35,3.15C111,67,110.2,68.81,109.5,70.7c-.4,1.08-.8,2.17-1.17,3.26-.42,1.24-.77,2.51-1.08,3.79a1.39,1.39,0,0,0,0,.29,17.81,17.81,0,0,0,1.84-1.45,22.34,22.34,0,0,0,1.74-1.77c.88-.95,1.7-1.94,2.5-3s1.48-1.93,2.21-2.9c.87-1.15,1.68-2.35,2.5-3.54,1.26-1.83,2.43-3.72,3.61-5.61.82-1.31,1.59-2.66,2.36-4,1-1.82,2.08-3.65,3-5.52.64-1.24,1.3-2.46,1.92-3.71s1.31-2.68,1.93-4,1.1-2.55,1.66-3.81a.25.25,0,0,0,0-.27,8.17,8.17,0,0,1-.76-2.74,20.3,20.3,0,0,1-.12-3.57,27,27,0,0,1,.82-6,13.54,13.54,0,0,1,2.3-4.92,6.09,6.09,0,0,1,3.54-2.37,5.34,5.34,0,0,1,3.92.61,6.14,6.14,0,0,1,2,2s0,.08,0,.12Zm-73.18,57a.78.78,0,0,0,.29-.14,12.66,12.66,0,0,0,3-2.77,37,37,0,0,0,2.44-3.27c1.27-1.86,2.42-3.8,3.55-5.76,1-1.81,2-3.66,3-5.51.66-1.27,1.3-2.54,1.9-3.84.5-1.11,1-2.22,1.56-3.32.74-1.56,1.45-3.12,2.08-4.72a19.74,19.74,0,0,0,1.37-4.77,9.59,9.59,0,0,0-.07-3.07,4.34,4.34,0,0,0-1.68-2.86,1.83,1.83,0,0,0-1.78-.31,3.84,3.84,0,0,0-1.66,1.42,25,25,0,0,0-2.17,3.57c-1.17,2.24-2.19,4.56-3.21,6.87-.51,1.17-1,2.34-1.52,3.52-.56,1.34-1.09,2.7-1.65,4-.63,1.53-1.23,3.06-1.79,4.62s-1,3-1.5,4.51-.84,2.91-1.18,4.38a39.64,39.64,0,0,0-.84,4.45A10.87,10.87,0,0,0,71.12,78.65ZM85,64.62l0,0s0,0,0,.06l.06,0S84.94,64.64,85,64.62Z"/><path class="cls-1" d="M124,11.73c1,0,2.06.07,3.09.17a7.35,7.35,0,0,1,2.94.75,2.51,2.51,0,0,1,1.36,1.94,5.38,5.38,0,0,1-1.1,3.84,17.7,17.7,0,0,1-3,3.38q-1.87,1.71-3.91,3.24c-1.32,1-2.62,2-3.92,3a4.56,4.56,0,0,0-.65.59.67.67,0,0,1-.74.21A1.47,1.47,0,0,1,117,27.53a4.06,4.06,0,0,1,.52-2.24c.6-1.2,1.26-2.37,1.84-3.57a42.39,42.39,0,0,0,1.91-4.57c.5-1.4,1-2.81,1.38-4.24.09-.32.19-.64.26-1,0-.16.11-.21.25-.2H124Z"/><path class="cls-1" d="M69.83,96.75a3.41,3.41,0,0,1,2.51,2.42,3.93,3.93,0,0,1-.91,4A3.85,3.85,0,0,1,69,104.27c-2,.19-4,0-5.92.08-.26,0-.21-.14-.21-.28v-3.81c0-3.38,0-6.76,0-10.13,0-.29.06-.36.35-.35,1.54,0,3.09,0,4.64,0a4.91,4.91,0,0,1,2.74.79,3.21,3.21,0,0,1,1.35,2.22,3.72,3.72,0,0,1-.33,2.43A3.26,3.26,0,0,1,69.83,96.75Zm-5.68,3.57V103c0,.15,0,.26.2.25,1.43,0,2.85.09,4.28-.07a2.87,2.87,0,0,0,2.49-3.65,2.82,2.82,0,0,0-2.78-2.11c-1.3,0-2.61,0-3.91,0-.22,0-.29,0-.29.28C64.16,98.56,64.15,99.44,64.15,100.32Zm0-6.76v2.51c0,.12,0,.25.17.24a25.82,25.82,0,0,0,4.22-.15,2.56,2.56,0,0,0,1.7-1A2.47,2.47,0,0,0,70.66,94a2.65,2.65,0,0,0-.61-2.22,3.24,3.24,0,0,0-2.37-.89c-1.08-.06-2.17,0-3.26,0-.23,0-.28.07-.27.28C64.16,92,64.15,92.76,64.15,93.56Z"/><path class="cls-1" d="M129.86,102.13v-12c0-.24,0-.36.3-.32s.71-.13.89.07,0,.56,0,.85V104c0,.27,0,.33-.33.37a1.38,1.38,0,0,1-1.51-.83c-1.48-2.3-3-4.55-4.56-6.82-1-1.55-2.08-3.08-3.16-4.67v.39c0,3.86,0,7.71,0,11.57,0,.28,0,.39-.35.35s-.73.13-.91-.07-.05-.59-.05-.89q0-6.63,0-13.26c0-.27,0-.36.35-.36,1,0,1,0,1.55.84l2.37,3.57c1,1.47,2,3,3,4.41C128.26,99.74,129,100.92,129.86,102.13Z"/><path class="cls-1" d="M105.13,97a9.24,9.24,0,0,1,.4-3.53A6,6,0,0,1,107,91.08a5.2,5.2,0,0,1,3-1.45,5.88,5.88,0,0,1,3.27.46,4.63,4.63,0,0,1,1.88,1.52,7.17,7.17,0,0,1,1.26,3.21,18.74,18.74,0,0,1,.11,3.43,7.85,7.85,0,0,1-.7,3.2,5.11,5.11,0,0,1-3.67,3,5.77,5.77,0,0,1-4-.49,5.38,5.38,0,0,1-2.41-2.72A9.46,9.46,0,0,1,105.13,97Zm1.29.09v1a6.41,6.41,0,0,0,.76,3.18,3.8,3.8,0,0,0,1.94,1.83,4.49,4.49,0,0,0,2.18.32,3.85,3.85,0,0,0,3.27-2.3,7.44,7.44,0,0,0,.65-3.19c0-.61,0-1.23,0-1.85a8.28,8.28,0,0,0-.34-2.21,4.1,4.1,0,0,0-4.67-3.09,4,4,0,0,0-3.38,2.86A9.18,9.18,0,0,0,106.42,97.11Z"/><path class="cls-1" d="M73.94,89.78a11.26,11.26,0,0,0,1.17,0,.54.54,0,0,1,.58.33l1.88,3.43c.75,1.36,1.52,2.72,2.29,4.09.38-.66.76-1.31,1.12-2q1.11-2,2.19-3.9c.34-.6.66-1.2,1-1.8,0-.09.1-.18.25-.17.43,0,.87,0,1.34,0a8.92,8.92,0,0,1-.7,1.26C84.51,92,84,93,83.4,93.91l-1.88,3.21c-.29.49-.57,1-.86,1.49a1.29,1.29,0,0,0-.16.64c0,1.6,0,3.2,0,4.81,0,.24-.07.31-.31.29a4.7,4.7,0,0,0-.75,0c-.22,0-.26-.06-.26-.27,0-1.47,0-3,0-4.42a2.78,2.78,0,0,0-.45-1.55l-2.22-3.8-2.13-3.64C74.26,90.4,74.12,90.11,73.94,89.78Z"/><path class="cls-1" d="M96.73,97.59c0-2.11,0-4.21,0-6.32,0-.35-.1-.4-.41-.4-1.42,0-2.84,0-4.26,0-.21,0-.3,0-.3-.27,0-.84,0-.84.83-.84,3.33,0,6.67,0,10,0,.29,0,.41,0,.4.37,0,.73,0,.73-.73.73-1.28,0-2.56,0-3.85,0-.29,0-.39.05-.39.37,0,4.25,0,8.5,0,12.74,0,.27,0,.4-.34.36s-.74.13-.92-.07,0-.58,0-.89Z"/><path class="cls-1" d="M137,97.08q0,3.47,0,6.94c0,.25-.06.36-.33.33a6.94,6.94,0,0,0-.79,0c-.15,0-.22,0-.2-.19a1,1,0,0,0,0-.17c0-4.62,0-9.23,0-13.84,0-.29.05-.41.36-.37s.71-.09.89.06.06.58.06.89Z"/><path class="cls-1" d="M144.3,21.65v-.09l0,.06Z"/><path class="cls-1" d="M43.56,8.81l.09-.06a.07.07,0,0,1,0,.12Z"/><path class="cls-1" d="M85,64.62s0,0,0,.06l-.06,0s0,0,0-.06Z"/></g></g></svg>