<svg xmlns="http://www.w3.org/2000/svg" viewBox="0 0 290.31 358.75"><title>woman</title><g id="Layer_2" data-name="Layer 2"><g id="Layer_1-2" data-name="Layer 1"><path d="M284.18,103.51A59,59,0,0,1,283.09,114c-.84,4.65-.57,9.36-.24,14a48,48,0,0,0,.86,7.37c.11.52.2,1.08-.46,1.32s-.92-.27-1.19-.72c-1-1.68-2-3.36-3.16-5.37a5.56,5.56,0,0,0,.14,3.42,23.56,23.56,0,0,1,.84,6.45,1.35,1.35,0,0,0,.65,1.09c4.79,3.94,6.47,9.36,6.93,15.2a27.08,27.08,0,0,1-2.4,12.55c-2.56,6.19-6.07,11.68-11.35,15.88a35.15,35.15,0,0,1-9.54,5.68c-3.33,1.24-6.67,1.65-10.15.13a48.51,48.51,0,0,0-1.89,7,105.25,105.25,0,0,0-2.79,13.38,3.8,3.8,0,0,1-.16.76c-.08.24-.19.51-.51.5a.69.69,0,0,1-.58-.45c-.14-.29-.19-.62-.32-.92a7.88,7.88,0,0,0-.56-1,.76.76,0,0,0-.76-.45c-.83,1-1.16,2.32-1.89,3.45-.6.93-1,1.94-2.15,2.43-.32.13-.55.54-.76.86-1.35,2.15-2.68,4.31-4,6.45a10.83,10.83,0,0,0-1.24,3.48,35.63,35.63,0,0,0-.56,4.64c-.06.57.11,1.22-.35,1.68-.62.61-1-.22-1.55-.32a1.35,1.35,0,0,0-1.64.7,32.73,32.73,0,0,0-2.81,6.42c-.33,1.24-.37,2.54-1.3,3.61-.32.36-.25,1.12-.27,1.7-.32,8.34-.74,16.67-.83,25a35.61,35.61,0,0,0,.29,7.17c.87,4.47,1.11,9.08,2.54,13.41a35.92,35.92,0,0,0,11.26,16.82,102.82,102.82,0,0,0,14.39,10c2.36,1.37,4.79,2.63,7.09,4.11a4.93,4.93,0,0,0,4.06.57,40.31,40.31,0,0,1,9.67-1.24c3.4,0,6.77.31,10.14.66,2.79.3,4.19,1.88,4.26,4.68a19.11,19.11,0,0,0,.13,2.93c.11.68.36,1.36,1.06,1.51,1.8.41,3,1.75,4.47,2.69A25.35,25.35,0,0,0,307.2,337c4.46.57,8.9,1.26,13.33,2a10.42,10.42,0,0,1,6.52,3.94,40,40,0,0,1,4.85,8c1.13,2.36,2.35,4.67,3.68,6.9,2.76,4.65,4.3,9.77,5.91,14.86a4,4,0,0,1,.14.57c.06.41,0,.8-.43,1s-.88-.1-1.09-.54a10.83,10.83,0,0,1-.47-1.28c-.83-2.4-1.64-4.8-2.49-7.2a68.76,68.76,0,0,0-4.1-8.41c-1.56-3-3.16-6-4.74-9a28.34,28.34,0,0,0-3.16-4.46,7.75,7.75,0,0,0-5-2.83c-4.89-.78-9.79-1.49-14.69-2.17a21.89,21.89,0,0,1-11-4.67c-.84-.69-1.61-1.8-3-.89-.43.28-.78-.31-1-.69A9.46,9.46,0,0,1,289,327c-.07-2.92-.82-3.76-3.77-3.95-1.69-.11-3.38-.21-5.07-.34-7.23-.56-14.11.91-20.87,3.35-5.39,1.95-10.74,4-16.3,5.49a114.66,114.66,0,0,1-16.54,2.77c-6.23.72-12.47,1.12-18.72,1.43-12.57.63-25.16.7-37.74.42a152.72,152.72,0,0,1-19.1-1.43c-4.25-.64-8.47-1.41-12.63-2.46-2.3-.58-4.65-.93-7-1.54s-4.83-1.09-7.25-1.59-4.72-1-7.09-1.43a4,4,0,0,1-1.9-.87,7.43,7.43,0,0,0-10.41.22c-1.8,1.7-3.51,3.49-5.43,5.05a3.67,3.67,0,0,0-1.16,1.3c-.81,2.05-2.62,2.41-4.44,2.95-2.81.83-5.57,1.82-8.41,2.54-1.26.32-2.53.65-3.78,1-3.57,1-7.13,2-10.67,3.07A16,16,0,0,0,62,348.83c-2.64,3.73-5.3,7.46-7,11.72a20.11,20.11,0,0,0-1.78,9.32c0,.42,0,.82-.47.94a.93.93,0,0,1-1-.48,3.11,3.11,0,0,1-.32-2.27,29.47,29.47,0,0,1,4-12.36,74.42,74.42,0,0,1,6.76-9.79c1-1.19,2.06-2.37,3.73-2.67a1.58,1.58,0,0,0,.36-.14c4.09-2.34,8.7-3,13.15-4.23,4.71-1.3,9.49-2.36,14-4.2,1.38-.56,2.85-1,3.43-2.63a1.79,1.79,0,0,1,.67-.7,40.49,40.49,0,0,0,5.7-5.33,8.77,8.77,0,0,1,11.07-1.59c2.28,1.43,4.11,1,6-.43a12.68,12.68,0,0,1,4.36-2.14,16.3,16.3,0,0,0,3.68-1.8,148.71,148.71,0,0,0,12.73-8A105.4,105.4,0,0,0,151,305,55.11,55.11,0,0,0,162.56,291a27,27,0,0,0,2.26-5.81,73,73,0,0,0,2.12-12.1c1-7.33,0-14.52-1.25-21.71-.13-.77-.26-1.54-.36-2.31a3.74,3.74,0,0,0-1.15-2.42,8.76,8.76,0,0,1-1.34-1.91,12.76,12.76,0,0,0-3.72-3.88c-.72.32-.87,1-1.3,1.5-.21.24-.42.55-.79.42s-.37-.51-.31-.82c.3-1.58-.17-3.12-.17-4.68a2,2,0,0,0-1.1-1.87c-1.56-.92-2.42-2.54-3.46-3.94a101.64,101.64,0,0,1-6.09-9.29c-.55-.94-.71-2.1-1.18-3.1-1.59-3.43-3.24-6.83-4.87-10.24-.14-.29-.34-.55-.67-1.07a14,14,0,0,0-.39,6,2.62,2.62,0,0,1-.43,2.39c-.55.58-1.1.69-1.55.05a5.35,5.35,0,0,1-.63-1.42,44.63,44.63,0,0,1-2.14-16,17.47,17.47,0,0,0-.33-4.26c-.14-.6-.41-1-1.07-.81a19.9,19.9,0,0,1-9.25-.29c.21,1.22-.3,2.16.32,3.24a18.66,18.66,0,0,1,1,3.36,6.73,6.73,0,0,0,1.86,2.71,2.11,2.11,0,0,1-.25,2.82c-.42.28-.76,0-1-.31a10.13,10.13,0,0,1-1.43-2.55c-1.44-3.15-3.71-5.8-5.34-8.85,0-.07-.23-.07-.45-.13a3,3,0,0,0-.28,2,25.48,25.48,0,0,1,.19,3.12c-.29,3.17,1.3,5.45,3.31,7.6a35,35,0,0,0,6.93,6c.67.41,1.56,1,1.21,1.78-.44,1-1.46.45-2.25.22a22.23,22.23,0,0,1-6.94-3.61c.83,2.8,1.76,5.5,4.54,7,.63.35,1.27.66,1.89,1s1.67.6,1.22,1.83c-.16.43.41.6.71.8a44.69,44.69,0,0,0,4.52,2.31c.28.16.62.22.89.39.69.42.69.95,0,1.32a3.57,3.57,0,0,1-2.66.33,23.19,23.19,0,0,1-3.18-.93A25.43,25.43,0,0,1,116,215.23a52.33,52.33,0,0,1-6.89-16.71,84.66,84.66,0,0,1-2.29-18,4.77,4.77,0,0,0-.81-2.36,41.25,41.25,0,0,1-5.64-19.12,23.41,23.41,0,0,1,2.28-10.81,7.47,7.47,0,0,1,3-3.52c.56-.33,1.1-.71,1-1.52-.5-4.32.19-8.58.73-12.85,0-.24.16-.5-.16-.82a27.6,27.6,0,0,0-4.33,4.38,81.24,81.24,0,0,0-5,6.48c-.33.5-.65,1.33-1.48.88s-.47-1.16-.34-1.78a25.67,25.67,0,0,1,2.15-5.44,84.46,84.46,0,0,1,5.67-9.34l.72-1.09a6.33,6.33,0,0,0-2.62.3c-.76.15-1.51.26-1.75-.67s.48-1.27,1.18-1.51a5.77,5.77,0,0,0,2.46-1.46l-5.12,1.06a62.61,62.61,0,0,1-22.55.4c-1.28-.2-2.59-.26-3.88-.4a11.54,11.54,0,0,1-1.54-.27,1.1,1.1,0,0,1-.93-1.1,1.07,1.07,0,0,1,.81-1c.43-.15.88-.26,1.31-.39,5.2-1.49,10.47-2.7,15.54-4.64a121.48,121.48,0,0,0,11.58-5.21c.74-.37,1.29-.72,1.13-1.76-1.06-7.09.33-13.87,2.87-20.47q1.68-4.38,3.38-8.75a4.54,4.54,0,0,0,.47-2A7.73,7.73,0,0,0,104.26,78a35.49,35.49,0,0,0-7.5,9.92,22.52,22.52,0,0,0-1.83,5.54,7.64,7.64,0,0,0,.18,3.09c.13.62.1,1.18-.58,1.49a1.52,1.52,0,0,1-1.62-.36,2.29,2.29,0,0,1-.62-1.19A13.34,13.34,0,0,1,92.89,86c3.93-8.45,9.89-15.26,17-21.09,6.13-5,12.92-9,19.53-13.34,2.73-1.78,5.32-3.76,7.91-5.73a.89.89,0,0,0,.46-.78,9.3,9.3,0,0,0-3.12-.4,30.32,30.32,0,0,1-7.17-.74c-.76-.22-1.73-.37-1.69-1.3s1.14-.91,1.86-.94c6.11-.24,11.7-2.38,17.28-4.6a158.31,158.31,0,0,0,18.48-8.86,96.66,96.66,0,0,1,26.3-9.68,31.9,31.9,0,0,1,16.43.28,6.28,6.28,0,0,1,2.32,1c1.05.95,2.05.76,3.22.43a17.79,17.79,0,0,1,10.78-.05,13.88,13.88,0,0,1,6.84,5.05,16.09,16.09,0,0,1,8.8-1.52,3.4,3.4,0,0,1,3.21,4.21,12.93,12.93,0,0,1-1.3,3.23,17.56,17.56,0,0,1,4.34,1.05,2.73,2.73,0,0,0,1.54-.14l1.9-.45c2.37-.57,2.57-.73,4.06,1.74a24.51,24.51,0,0,0,3,3.62,21.79,21.79,0,0,1,1.93,2.42,2.93,2.93,0,0,1,.57,2.34,1.47,1.47,0,0,0,.48,1.55,8.94,8.94,0,0,1,3.22,7c0,1.22.1,1.28,1.36,1.09,1.93-.29,3.06.82,4,2.22a9.41,9.41,0,0,1,1.22,3.29c.18.86.45,1.23,1.44.84,3.45-1.37,6.93-.7,10.4,0,.54.11,1,.36,1,1s-.53.88-1,1c-1.2.3-2.42.52-3.63.79a2.54,2.54,0,0,0-1.57.52A19.78,19.78,0,0,0,277,65.19a60.46,60.46,0,0,0,4.26,5.58c1.21,1.33.9,2.06-.9,2.33-.54.08-.86.28-.92.8a13.13,13.13,0,0,0-.26,2.91c.62,5.64,1.41,11.24,3.68,16.53a21.61,21.61,0,0,0,2.75,4.7A56.29,56.29,0,0,0,297.9,109.7c.32.23.64.45,1,.7s.76.62.5,1.14-.74.26-1.19.21c-3.53-.45-6.21-2.51-8.88-4.6l-3.54-2.77A3.51,3.51,0,0,0,284.18,103.51Zm-114,37.85c-1.08-.39-1.36-1.85-2.8-2.09a34.17,34.17,0,0,1,2.09,3.45,8.27,8.27,0,0,0,4,3.77c.3.16.58.36.87.11a.76.76,0,0,0,.27-.88c-.69-1.38-1.11-2.92-2.26-4.05a1.51,1.51,0,0,0-2.23-.27Zm42.34-48.61a.76.76,0,0,0,.69-.27c3.15-3.18,6.42-6.25,9.48-9.54q5.56-6,11.06-12.11c6.33-7,12.44-14.21,18.06-21.8a29.79,29.79,0,0,0,3.7-6.41,2.84,2.84,0,0,0-.75-3.64,22.9,22.9,0,0,1-4.61-5.53,1.19,1.19,0,0,0-1.47-.62c-.44.1-.88.2-1.32.33-2.26.64-2.39,1-1.29,3,.06.12.09.27.19.34,1.59,1.22,1.33,2.9,1.15,4.56-.26,2.45-1.49,4.56-2.26,6.83A50,50,0,0,1,237.37,62q-6.74,8.85-13.92,17.34c-3.32,3.92-6.61,7.87-9.92,11.81-.39.47-1,.84-1,1.6-.63-.11-.81.27-1,.84C212.16,93.48,212.49,93.27,212.53,92.75ZM264,152.85a52.36,52.36,0,0,1,15.78-5.51,5.06,5.06,0,0,1,1.35-.07c.46,0,1,.12,1,.73s-.5.53-.88.56a21.58,21.58,0,0,0-4.78,1,31.13,31.13,0,0,0-5.42,1.83c.06.62.48.75.77,1a17.75,17.75,0,0,1,4.13,3.84,3.82,3.82,0,0,1,.85,1.52.56.56,0,0,1-.27.66.73.73,0,0,1-.55-.09,1.74,1.74,0,0,1-.53-.55,17,17,0,0,0-3.31-3.56c-.56-.53-1.51-.71-1.74-1.48-.31-1-.86-1-1.62-.64a30.64,30.64,0,0,0-5.88,3c-1.35.94-2.91,1.78-3.1,3.77a28.14,28.14,0,0,1-.69,3.64c-.77,3.29-.89,6.7-2.05,9.91-.44,1.22,0,1.78,1.29,2.32a3.38,3.38,0,0,0,1.32.26c1.43,0,2.87.09,4.3.13a24.34,24.34,0,0,0,5.26.05.64.64,0,0,1,.76.47c.09.4-.22.6-.51.73a2,2,0,0,1-.76.18c-3.82-.06-7.67.31-11.4-.85-.69-.22-.94-.14-1,.6-.29,3.53-1.43,6.88-2.31,10.28-.42,1.59-.33,1.88.93,2.79a4.22,4.22,0,0,0,2.16.85,13.33,13.33,0,0,0,5.79-.61,34.68,34.68,0,0,0,14-9.72,39.82,39.82,0,0,0,7.93-14.47c2.06-6.65,1.56-13.15-2.23-19.15-1.29-2-2.85-4-5.35-4.62C275,141,272.6,141,271,142.91c-2.38,2.84-4.45,5.94-6.66,8.93-.23.31-.52.6-.35,1-1.93-.35-1.11-1.93-1.24-3.3a5.46,5.46,0,0,0-1.94,5.1C262.07,154.11,262.81,153.06,264,152.85Zm-141,67.2a5.05,5.05,0,0,0-.11-.53c-.24-.31-.47-.62-.72-.93a25.85,25.85,0,0,1-5-11.09,53.69,53.69,0,0,1-.81-17.7,47.3,47.3,0,0,1,3.5-13.56c2.08-4.7,5.11-8.78,8.07-12.91a51.82,51.82,0,0,1,9.63-9.66c.82-.67,1.27-1.79,2.18-2.15a23.3,23.3,0,0,0,4.9-3.12c10.33-7.43,21-14.3,32.58-19.69,5.67-2.64,11.15-5.66,16.55-8.83,5.62-3.29,11.19-6.68,16.78-10,.34-.2.69-.55,1-.53,1.4.1,2.32-.84,3.34-1.46,2.39-1.47,4.67-3.11,7.06-4.58a34.83,34.83,0,0,0,8.07-7A97.63,97.63,0,0,0,237.72,86c.36-.55.64-1.59,1.51-1s0,1.28-.36,1.85c-3.29,4.86-7,9.43-10.66,14-1.82,2.22-4,4.17-5.68,6.45a43.2,43.2,0,0,1-6.57,6.94c-5.22,4.43-10.74,8.46-16.26,12.51a162.92,162.92,0,0,0-21.27,18.07c-.34.35-.83.6-.91,1.4,1.69-1.26,3.26-2.4,4.81-3.57a89.39,89.39,0,0,1,17.38-10.47,176.06,176.06,0,0,0,16-7.81,169,169,0,0,0,19.23-12.7,122.1,122.1,0,0,0,16.36-14.79c2.58-2.84,5.14-5.72,7.52-8.73a41.61,41.61,0,0,0,6-9.37c2.5-5.87,2.85-12,2-18.24a20.67,20.67,0,0,0-1.66-6A2.44,2.44,0,0,0,261.93,53c-1.33.3-2,1.1-2.17,2.87a21.37,21.37,0,0,1-2.32,7.61A149.39,149.39,0,0,1,241.21,89a14.48,14.48,0,0,1-2.78,2.75c-.56.41-1.13.85-2,.26a12.36,12.36,0,0,1,1.77-2.35,60,60,0,0,0,7.49-10.24,166.37,166.37,0,0,0,9.68-18.29,45.57,45.57,0,0,0,3.58-9.9,7.5,7.5,0,0,0-1-5.44,1.42,1.42,0,0,0-1.58-.87,28.86,28.86,0,0,1-.58,4.49,57.51,57.51,0,0,1-7.38,15.67,17.25,17.25,0,0,1-4.85,5c-.37.25-.75.56-1.38,0,5.6-6.08,10-12.88,11.94-21.07a.5.5,0,0,0-.61.27c-2,3.1-4.51,5.85-6.78,8.76C242,64.19,236.7,70,231.47,75.75c-5.66,6.29-11.56,12.37-17.59,18.31a70.51,70.51,0,0,1-8.07,7.08c-1.8,1.3-3.74,2.38-5.17,4.12a1.93,1.93,0,0,1-1.52.63,20.74,20.74,0,0,1,3.8-4.73c2.59-2.29,4.62-5.09,7-7.58,2.1-2.22,3.95-4.66,5.91-7l13.38-16A97.68,97.68,0,0,0,240.1,54.64c1.68-3.09,3.17-6.27,4.59-9.49a23.64,23.64,0,0,0,1.38-4.27.94.94,0,0,0-.32-1.16,18.08,18.08,0,0,0-3.35,3.52A133.24,133.24,0,0,1,231,57.34a149.27,149.27,0,0,1-11.12,10.37c-2.59,2.28-5.25,4.47-7.87,6.72-5.69,4.89-11.3,9.86-17.06,14.66-4.8,4-9.57,8.06-14.18,12.28-6.05,5.53-12.13,11-17.84,16.93-3.71,3.83-7.48,7.61-11.06,11.57-3.14,3.48-6.06,7.16-9.26,10.59-.47.51-.85,1.14-1.6,1.31-.26-.49.1-.77.29-1.08a84,84,0,0,1,8.29-10.6A285.86,285.86,0,0,1,171,108.2c4.43-4.12,8.95-8.13,13.42-12.21,5.63-5.14,11.42-10.11,17.24-15s11.25-9.89,16.69-15S228.86,55.78,234,50.58c3.88-3.94,7.5-8.08,9.42-13.42.33-.92.71-1.76-.1-2.5s-2.06-1.49-3.19-1a6.39,6.39,0,0,0-2.69,2.11C236,37.85,234.72,40,233.33,42a47.68,47.68,0,0,1-6.18,6.76c-.22.22-.54.47-.84.18a.63.63,0,0,1,.08-1c2.19-1.75,3.4-4.26,5.1-6.39a97.87,97.87,0,0,0,6.74-10,17.75,17.75,0,0,0,1.45-3.41c.39-1.14.07-2.34-.71-2.58a10.11,10.11,0,0,0-7,.48c1.05.37,1.73.59,2.39.85,1.93.74,2.29,1.43,1.73,3.44a10.64,10.64,0,0,1-.57,1.45,39.39,39.39,0,0,1-4.31,6.72c-1.76,2.49-3.63,4.91-5.54,7.3-2,2.54-3.79,5.29-5.83,7.84-.15.19-.51.42-.05.86.8-1,2-1.56,2.9-2.51s1.5-2.18,2.89-2.67a2.66,2.66,0,0,1-1.21,2.3c-2.61,2.26-4.81,4.93-7.38,7.24A32.86,32.86,0,0,0,214,61.63c-1.38,1.56-2.84,3.05-4.19,4.64-1.65,1.94-3.91,3.19-5.6,5.1a37.52,37.52,0,0,1-3.58,3.31c-.5.44-1,1-1.76.91-.19-.49.08-.7.32-.92,2-1.85,3.87-3.85,5.86-5.73,5.2-4.95,9.54-10.67,13.88-16.36,4.07-5.33,8-10.75,12-16.16a25.49,25.49,0,0,0,3.55-5.82c.47-1.23.33-1.57-.86-2.14a9.51,9.51,0,0,0-2.23-.71,20.61,20.61,0,0,0-9.07.7,45.35,45.35,0,0,0-12.53,5.85c-6.26,3.87-12.38,8-18.3,12.33-3.09,2.28-6.25,4.47-9.29,6.82q-11.61,9-23.12,18c-7.64,6-15.55,11.63-23.57,17.12a368,368,0,0,1-33.57,20.75,106,106,0,0,1-23.14,9.34,7.52,7.52,0,0,0-2.84,1,1.45,1.45,0,0,0,1.11.47,69.83,69.83,0,0,0,17.75,0c3.29-.46,6.53-1.25,9.79-1.9a54,54,0,0,0,10-2.76,9.76,9.76,0,0,1,1.29-.43c.63-.17,1.39-.42,1.67.42s-.47,1-1,1.23c-1.18.53-2.41,1-3.6,1.52-1.77.79-3.53,1.61-5.3,2.42l.18.42c2-.8,4.34-.61,6.08-2.25a2.15,2.15,0,0,1,1.07-.45,22.62,22.62,0,0,0,5.69-2A170.9,170.9,0,0,0,141,104.76a4,4,0,0,1,2.65-1.08,2,2,0,0,1-.78,2.1,58.06,58.06,0,0,0-5.49,5.82c-1.3,1.54-2.55,3.14-4,4.57a2.87,2.87,0,0,1-2,1.12c1.19-3.24,3.83-5.19,5.48-7.84-2.34,1.15-4.59,2.4-6.82,3.67a1.17,1.17,0,0,0-.52.56c-.47,1.29-1.55,2.15-2.24,3.31q-1.86,3.11-3.56,6.28a102,102,0,0,0-5.72,13.92c-2.18,6.14-4.15,12.35-5.78,18.66a2.21,2.21,0,0,0-.07,1.85c.72-.2.73-.79.94-1.23,3.56-7.47,6.93-15,11.06-22.22a153.06,153.06,0,0,1,27.74-35.92c6.12-5.75,12.34-11.4,18.51-17.09a5.39,5.39,0,0,0,1.44-1.68,3.69,3.69,0,0,0-.74.19c-3.1,2-6.18,4.11-9.32,6.1-5.33,3.38-10.66,6.78-16.06,10.06-6.05,3.67-11.92,7.66-18.38,10.64-.44.21-.85.6-1.41.39,0-.44.27-.61.53-.78,1.67-1.12,3.33-2.26,5-3.32,3.54-2.2,7.09-4.36,10.65-6.51,9.09-5.49,18.05-11.19,27-17,7.44-4.82,14.82-9.72,21.29-15.85a54.17,54.17,0,0,1,4.27-3.42,2.25,2.25,0,0,1,2.18-.71,23.11,23.11,0,0,1-6.1,6.84c-4.54,3.41-8.86,7.07-13.07,10.87-8.46,7.65-16.93,15.27-25.11,23.21a143.7,143.7,0,0,0-12.22,13.18,183.49,183.49,0,0,0-14.3,21,3.79,3.79,0,0,0-.82,1.92c.55,0,.73-.4,1-.68,2.85-3.29,5.66-6.62,8.56-9.86s5.76-6.19,8.61-9.32c3.68-4.06,7.59-7.88,11.53-11.67,1.22-1.17,2.62-2.17,3.77-3.41s3-1.6,4-3c0,0,.22,0,.34,0a.56.56,0,0,1-.08.72c-.79.86-1.58,1.73-2.43,2.53-3.31,3.13-6.77,6.12-9.95,9.38-4.81,4.93-9.49,10-14.14,15.09-3.07,3.36-6,6.83-9,10.29a40.67,40.67,0,0,0-4.93,6.75c-.52,1-.72,2.11-2.12,2.31-.45.06-.49.71-.68,1.11-2.83,5.88-5.63,11.76-8.1,17.79a38.5,38.5,0,0,0-3,12.49,76.75,76.75,0,0,0,2,20.56,47.89,47.89,0,0,0,7.44,17.73A17.72,17.72,0,0,0,123,220.05ZM264,110.64l-.5-.27c-1.67,1.32-3.37,2.61-5,4a12.13,12.13,0,0,1-4,2.39,9.25,9.25,0,0,0-1.6.73c-4,2.14-7.87,4.35-11.87,6.4a53.8,53.8,0,0,0-9.31,6.08c-.32.27-.84.41-.77,1.17a19.49,19.49,0,0,1,7.48.72,22.83,22.83,0,0,0,5,1.49,9.28,9.28,0,0,1,4.7,1.68,12.3,12.3,0,0,1,2.47,1.78c.25.29.66.49.44,1s-.66.31-1,.24c-1.92-.36-3.83-.82-5.77-1.08a48.18,48.18,0,0,0-12.46.39,34.79,34.79,0,0,0-13.84,5.06c-2.56,1.54-5,3.23-7.54,4.86a6.35,6.35,0,0,1-4.46,1.11,4,4,0,0,1-3.4-2.59c-.5-1.44.46-2.3,1.42-3.13a28.21,28.21,0,0,1,6.78-4.51c3.66-1.63,7.06-3.89,11-4.89a6.21,6.21,0,0,0,3.86-3,128.56,128.56,0,0,1,7.75-10.54c2.75-3.54,5.71-6.93,8.56-10.39.25-.3.71-.55.52-1.09-.16,0-.24,0-.29.07l-1.06.86a156.67,156.67,0,0,1-27.73,18.54c-5.42,2.81-11,5.29-16.48,8a84.63,84.63,0,0,0-13.52,8.55c-.64.49-1.2.89-.63,1.89.48.84,0,1.63-.72,2.24a5.89,5.89,0,0,1-4.48,1.58,3.3,3.3,0,0,0-2.67.92c-1.54,1.4-3.13,2.75-4.67,4.16-1,.95-1,1,0,2.12a38.16,38.16,0,0,1,6.11,9.5,6.89,6.89,0,0,1,.78,2.2.67.67,0,0,1-.27.69.68.68,0,0,1-.87-.17,6,6,0,0,1-1.17-2,24.46,24.46,0,0,0-5.31-8,9,9,0,0,1-1.51,4.79,10.9,10.9,0,0,1-11,4.67c-8-1-13.41-9.7-10.89-16.92.2-.57.6-1.18.24-2a44.05,44.05,0,0,0-5.32,4.25,1.19,1.19,0,0,0-.41.86c.15,1.79-.38,3.65.62,5.36.59,1,1.08,2.07,1.66,3.09s1.22,2,1.81,3a.55.55,0,0,1-.26.81.51.51,0,0,1-.71-.09,14.53,14.53,0,0,1-.92-1.26,49,49,0,0,1-4.77-8.82,8.55,8.55,0,0,0-1.31,1c-2.66,3-5.44,6-7.92,9.16a2.38,2.38,0,0,0-.33,2.2,141.67,141.67,0,0,0,3.58,13.79c1.24,3.7,2.49,7.41,4,11,2.16,5.37,3.87,10.94,7.21,15.77a5.17,5.17,0,0,1,.53,1.05c2.53,6.25,6.63,11.48,10.88,16.6a57.08,57.08,0,0,0,10.19,9.39c3.46,2.54,6.82,5.22,10.52,7.44,2.52,1.51,5.16,2.78,7.71,4.21,4.27,2.38,8.66,4,13.71,3.81a25.13,25.13,0,0,0,13.21-4.22c4.87-3.21,8.86-7.46,13.05-11.44,2.06-2,3.87-4.19,5.93-6.17a65.18,65.18,0,0,0,10.76-14.07,87.31,87.31,0,0,0,8.52-18.4c1.29-4.09,3.29-7.94,4.15-12.17a31.66,31.66,0,0,1,.72-3.24,162.83,162.83,0,0,0,4.59-20.19,7.16,7.16,0,0,0,.27-3.15,61.93,61.93,0,0,0-2.38,6.37c-.71,2-.55,4.15-1.72,6.43a8,8,0,0,1-1.08-5.22c.57-3.48,1.18-6.94,2-10.37a10.32,10.32,0,0,0,.61-3.58c-.41,0-.48.26-.59.49-2.06,4.2-4.31,8.32-6.22,12.6a55.73,55.73,0,0,0-4,11.58,7,7,0,0,0-.23,2.13,3.26,3.26,0,0,1-.38,2.43c-.23.32.13,1-.52,1.09s-.71-.51-.95-.89a3.45,3.45,0,0,1-.43-1.69,21.22,21.22,0,0,1,.13-4.29,96.57,96.57,0,0,1,2.14-10.52c.1-.4.47-.79,0-1.39-1,1.23-1.61,2.72-2.69,3.83-.42.43-.75,1.38-1.48.72s.07-1.2.45-1.67a26.17,26.17,0,0,0,3.72-6.38,10.74,10.74,0,0,0,.93-4.18c0-2.15,0-4.3,0-6.45,0-.33,0-.65-.06-1a1,1,0,0,0-1.16-1,53.38,53.38,0,0,0-7,1.17l.89,1.1a9.22,9.22,0,0,1,1.92,8.08,13.63,13.63,0,0,1-15.26,10.72c-4.82-.68-9.06-3.7-8.71-9.88,0-.42.23-.91-.2-1.25-.34-.1-.52.1-.7.28a28.52,28.52,0,0,0-4.81,6.82,11.25,11.25,0,0,1-.86,1.52c-.3.39-.93.27-.94-.1,0-1-.67-2-.07-3a30.59,30.59,0,0,1,3.22-4.89,38,38,0,0,1,10.33-8.49,44.68,44.68,0,0,1,15-5.25c3.47-.5,7-.57,10.43-1.21,1.16-.22,1.6.25,1.35,1.42-.37,1.72-.83,3.42-1.33,5.1a14,14,0,0,0-.22,5.12,10.06,10.06,0,0,0,1.21-3,172.13,172.13,0,0,1,6-16.31c2.72-6.34,6-12.43,8.22-19A30.51,30.51,0,0,0,264,110.64ZM119,326.25c.86.23,1.41.4,2,.53l8,1.68c5.67,1.22,11.27,2.74,17,3.81a144.28,144.28,0,0,0,21.37,2.09c8.6.32,17.2.27,25.8.11,9-.18,18-.52,26.93-1.31,7.73-.69,15.45-1.42,23-3.48,5.72-1.57,11.22-3.8,16.83-5.72a4.12,4.12,0,0,0,2.07-1,4.5,4.5,0,0,0-1.41-1.11,130.07,130.07,0,0,1-14-8.45,85.54,85.54,0,0,1-9.83-8.31c-2.84-2.71-4.5-6.19-6.37-9.54a27.58,27.58,0,0,1-3.18-8.35,91.6,91.6,0,0,1-1.67-19.62c.26-10.23.79-20.44,1.3-30.66,0-.4.32-.89-.37-1.31-1.62,1.63-3.32,3.21-4.88,4.93-2.51,2.75-5.42,5.06-8.12,7.59a20.53,20.53,0,0,1-6.92,4c-6.38,2.42-12.82,3.5-19.34.47l-1.59-.76a89.09,89.09,0,0,1-17-9.88,14.08,14.08,0,0,0-3.81-2.44.76.76,0,0,0-.05.84,103.39,103.39,0,0,1,3.58,17.56,75.79,75.79,0,0,1,.38,16.36,75,75,0,0,1-2.85,13.55c-1.41,4.65-4.35,8.41-7.44,12.05a42.34,42.34,0,0,1-6.22,6.47c-6.36,4.9-13,9.33-19.83,13.58a35.15,35.15,0,0,1-9.45,4.57A11.51,11.51,0,0,0,119,326.25Zm88.43-305c-.09-.16-.13-.33-.22-.37a14.13,14.13,0,0,0-1.45-.58,25.58,25.58,0,0,0-9.84-1c-6.18.39-12,2.13-17.85,4.09-6.82,2.29-13.14,5.69-19.47,9a124.5,124.5,0,0,1-23.18,9.71c-.22.07-.5.11-.52.53,1.95.16,3.8,1.29,5.87.34.57-.26.93.31.83.95a1.89,1.89,0,0,1-.72,1.13c-.73.65-1.46,1.31-2.21,1.92a164.48,164.48,0,0,1-15.28,10.54,132,132,0,0,0-12.6,8.92A60.53,60.53,0,0,0,95,85.46a16.65,16.65,0,0,0-1.78,6.26c.32-.71.48-1,.58-1.3a29.1,29.1,0,0,1,5.09-9.17,85,85,0,0,1,7.18-7.4c1.34-1.3,3.1-2.21,3.61-4.23a.67.67,0,0,1,1-.41.65.65,0,0,1,.37.81c-.47,1.89-.52,3.9-1.44,5.66a91.16,91.16,0,0,0-5.84,14.69,43.45,43.45,0,0,0-2.27,12.06,10.91,10.91,0,0,0,.44,4.59,2.32,2.32,0,0,0,2-2.2,61.94,61.94,0,0,1,2.39-9.47,42.26,42.26,0,0,1,3.22-8c.23-.41.53-1.12,1.11-.89s.18.89.07,1.35a11.07,11.07,0,0,1-.39,1.1c-1,2.7-2,5.36-2.91,8.09a45.88,45.88,0,0,0-1.92,7.87,2.06,2.06,0,0,0,1.42-.43c3-1.74,5.93-3.51,8.91-5.25a8.38,8.38,0,0,0,2.66-2.51q2.07-3,4.39-5.75c3.86-4.59,8-8.92,12.12-13.27,6.31-6.67,12.89-13.07,19.5-19.44,4.27-4.11,8.63-8.13,13-12.11a140.69,140.69,0,0,1,15.55-12.43,123.79,123.79,0,0,1,15.19-8.56,5.42,5.42,0,0,0-2.52.42,158.19,158.19,0,0,0-15.16,5.72,118.84,118.84,0,0,0-14.05,7.26q-4.64,2.91-9.3,5.76a4.46,4.46,0,0,1-2.36.86,47.93,47.93,0,0,1,8.41-6.47C176.91,30.26,191.43,24.05,207.4,21.29Zm73.8,110a1.87,1.87,0,0,0,.25-1.25c-.08-2.16-.58-4.27-.72-6.4a79.11,79.11,0,0,1,.54-14.84,28.21,28.21,0,0,0-3-16.83,2.39,2.39,0,0,1-.3-.7.73.73,0,0,1,.34-.84.65.65,0,0,1,.87.21,19,19,0,0,1,1.08,1.85c.31.61.56,1.24.84,1.87a3.54,3.54,0,0,0-.14-2.28,25.9,25.9,0,0,1-2.52-10.73,27.94,27.94,0,0,0-.58-5.63A4,4,0,0,1,279,71.67c.55-.54.33-.83,0-1.29a83.8,83.8,0,0,1-4.83-6.86,5.35,5.35,0,0,0-.78-.88,2.45,2.45,0,0,0-3-.74c-1.44.59-1.62.94-1.55,2.68A33.53,33.53,0,0,1,266.62,79a38.82,38.82,0,0,1-5.47,9,16.9,16.9,0,0,0-2,2.85,36,36,0,0,1-6,8.63,277.38,277.38,0,0,0-19.35,24,11.9,11.9,0,0,0-2.25,3.57c.72.08,1-.32,1.39-.55,3-1.82,5.73-4,8.93-5.55a131.11,131.11,0,0,0,17.11-10.2,38.5,38.5,0,0,0,9.36-9.31,22.94,22.94,0,0,0,1.92-3c.21-.42.6-.76,1.12-.48s.46.73.31,1.2a2.81,2.81,0,0,1-.17.35,20.94,20.94,0,0,1-4.11,6.36,5.63,5.63,0,0,0-1.56,3.46c-.71,6.24-2.92,12-5.54,17.62-1.78,3.84-3.63,7.66-5.25,11.56a238.71,238.71,0,0,0-9.09,27.22c-.19.67-.28,1.36-.42,2l.47.14c1.15-4.58,4.07-8.26,6.06-12.42,1.52-3.18,3.32-6.21,4.57-9.51,1-2.55,1.87-5.14,2.77-7.72a4.38,4.38,0,0,1,1.7-2.44,4.64,4.64,0,0,1-.24,3c-1.45,5.14-2.69,10.34-3.88,15.55-.08.33-.3.71.06,1,.35-.14.43-.48.57-.77l5.49-11.44c.25-.51.41-1.23,1.17-1a1.25,1.25,0,0,1,.84,1.4,2.82,2.82,0,0,0,0,.58c.27,1.21-.15,2.45,0,4,1-1.26,1.77-2.21,2.51-3.2a42.12,42.12,0,0,0,5.59-9.35,55.93,55.93,0,0,0,2.95-8.69c.19-.85.42-1.76,1.51-2a1.47,1.47,0,0,1,.19.46c0,.95-.18,1.92,1.07,2.39.4.16.62.8.91,1.23C280.22,129.74,280.64,130.45,281.2,131.33ZM227.43,25.46a12.23,12.23,0,0,0-5.67-3.81c-4.14-1.28-8.12-.34-12.07.89-.62.19-.95.92-1.69.9a10.12,10.12,0,0,0-4.1,1.19,115.6,115.6,0,0,0-16.72,8.48A104.81,104.81,0,0,0,173,43.46Q158.4,56.33,144.7,70.16C138.31,76.58,132,83.08,126,89.89c-1.44,1.65-2.8,3.37-4.23,5.1.69.3,1-.13,1.37-.36L132,88.79c11.08-7.37,21.73-15.31,32.2-23.51,6.37-5,12.71-10,19.16-14.86a272.91,272.91,0,0,1,30.14-20.29c.25-.14.56-.25.6-.62a1.55,1.55,0,0,0-1.14.15c-8.47,2.68-16.71,5.89-24.26,10.67a5.79,5.79,0,0,1-3.14,1.24.5.5,0,0,1,.09-.64,22.79,22.79,0,0,1,1.8-1.48,72.3,72.3,0,0,1,13.45-7.1,119.27,119.27,0,0,1,19.28-6.28c2.16-.52,4.34-1,6.56-.3A.58.58,0,0,0,227.43,25.46ZM217.33,159.7c-.17,4.88,2.13,6.71,5.13,7.79,7,2.52,13.63-2.36,15.27-7.83a7.72,7.72,0,0,0-2.15-8.4,2.5,2.5,0,0,0-2.65-.75c-1.17.35-2.4.54-3.61.82-3.21.73-6,2.48-9,3.78C218.18,156.07,217,157.49,217.33,159.7Zm-48-21.85a40.21,40.21,0,0,1,3.88,2.29c1.25.81,2.55,1.56,3.84,2.31a1.42,1.42,0,0,0,1.89-.32c1.61-1.49,3.33-2.92,4.88-4.46,4-4,8.5-7.25,12.9-10.69a96.83,96.83,0,0,0,8.08-6.39c3.32-3.19,6.94-6.08,10.42-9.11,1-.87,1.94-1.81,2.91-2.71a6.34,6.34,0,0,0-2.81,1.27c-4.57,2.71-8.68,6.23-13.82,7.95a3.56,3.56,0,0,0-.69.37l-13.66,8.32L173.51,135A16.6,16.6,0,0,0,169.35,137.85Zm-3.06,18.21c-.88-1.63-2.59-2-4-2.76-2.89-1.62-5.65-3.48-8.92-4.35-2.92-.78-5,.28-5.88,3.19a11.77,11.77,0,0,0,9.23,15c4,.52,7.32-.6,9.69-4a5.16,5.16,0,0,0,.8-4.6c-1.24.36-1.69,1.78-3.06,1.85C164,158.38,165.62,157.42,166.29,156.06Zm-39.8,14.29a39.4,39.4,0,0,0-4.64,7.42c-.68,1.29-.56,1.66.77,2.2a24.94,24.94,0,0,0,5.87,2.05c.46.06.94.27.76.89-.14.47-.57.44-1,.36a19,19,0,0,1-5.34-1.76c-.52-.27-1.05-.52-1.59-.74a.73.73,0,0,0-1.09.47,31.9,31.9,0,0,0-1.79,7.59,1.18,1.18,0,0,0,.89,1.32c3.9,1.56,7.85,2.82,12.16,2.1,1.68-.28,1.82-.38,1.23-2a178.19,178.19,0,0,1-5.48-17.93A4.78,4.78,0,0,0,126.49,170.35Zm-1.77-53a8.85,8.85,0,0,0-2.77.89q-4.49,1.66-9.09,2.94c-.9.25-1.53.61-1,1.6.42.8,0,1.39-.31,2a9.67,9.67,0,0,0-1.11,2.9,87.24,87.24,0,0,0-1.2,14,7.18,7.18,0,0,0,.63,3.06,12.23,12.23,0,0,0,.63-1.18c1.46-3.7,3.31-7.21,5.11-10.75.54-1,1-2.33,2-2.82a5,5,0,0,0,2.22-2.75c.81-1.63,1.61-3.27,2.42-4.9S123.84,119.13,124.72,117.36Zm-18.26,58.12c.76-1.32.43-2.56.55-3.79.62-6.33,2.49-12.37,4.1-18.47.2-.74.82-1.56.38-2.22s-1.31,0-2,0c-.44,0-.92-.1-.77-.58.48-1.62-.8-2.61-1.28-3.87-.3-.76-.87-.6-1.43-.17a7.09,7.09,0,0,0-2,2.65,23,23,0,0,0-2,8.5c-.3,4.85,1.06,9.4,2.54,13.92A35.29,35.29,0,0,0,106.46,175.48ZM155,146.36l.13.44a27.27,27.27,0,0,1,11.71,6.78c1.06,1,1.08,1,2.13,0a5,5,0,0,0,1.41-1.6,11.14,11.14,0,0,1,2.08-3c.2-.23.45-.48.17-.94a1.88,1.88,0,0,1-2-1,2.89,2.89,0,0,0-1.16-1c-2.1-1.18-4.22-2.31-6.33-3.48a1.56,1.56,0,0,0-1.66-.09C159.28,143.72,157.14,145,155,146.36ZM99.89,135c.67-.76,1.36-1.5,2-2.28a30.06,30.06,0,0,1,5.66-5.61,5.42,5.42,0,0,0,2.22-4.07c.11-.73-.19-1-.88-.77a6,6,0,0,0-3,2.33,50,50,0,0,0-4,6A14.39,14.39,0,0,0,99.89,135Zm178.72,5.23c-1.08-3.07-1.25-5.93-2-8.73-1.16,2.82-2.41,5.54-3.88,8.64A10.49,10.49,0,0,1,278.61,140.26Zm-115,102.21a28,28,0,0,0-.73-3.6,2.41,2.41,0,0,0-.77-1.54c-1.39-1.23-2.8-2.42-4.38-3.77-.12,1.45.4,2.56.38,3.71a1.92,1.92,0,0,0,1.48,2.11,6.28,6.28,0,0,1,2.59,2C162.5,241.82,162.78,242.38,163.56,242.47Zm-26.88-31.24a6.18,6.18,0,0,0,.59-2.58c.11-.64.13-1.4.75-1.71.85-.43.64-1,.46-1.64a9.76,9.76,0,0,0-.7-2c-.73-1.31-.88-2.9-2.09-4.38A39.88,39.88,0,0,0,136.68,211.23Zm91.73-75.42A29.92,29.92,0,0,0,239.53,134c-1.74-.81-3.32-1.34-5-.67C232.46,134.16,230.44,135,228.41,135.81ZM288.31,104c-2.2-2.69-4.09-5.59-6.39-8.37C281.84,100.29,285.37,101.92,288.31,104Zm-68.25,31.82a6.3,6.3,0,0,0-4.54,2.68c-1.06,1.45-2.05,3-3.05,4.46a.82.82,0,0,0-.1,1,1.37,1.37,0,0,0,1.29-.92c.3-1.32,1.38-2,2.18-2.9C217.11,138.67,218.7,137.54,220.06,135.81Zm8.47,100.84a3.27,3.27,0,0,0,1-1.54c.55-1.11,1.07-2.24,1.67-3.31.39-.69,1-1.49,1.8-1.25,1.36.38,1.43-.4,1.43-1.29,0-.49.29-1-.18-1.63-1.29,1.29-2.51,2.61-3.83,3.82A5.4,5.4,0,0,0,228.53,236.65Zm22-38.71a1.77,1.77,0,0,0-.7.95c-.86,2.3-1.73,4.61-2.61,6.91-.53,1.4-.55,1.4.93,2.52ZM110.11,149c2.11.24,2.12.24,2.68-1.54q.36-1.11.66-2.22c.21-.76-.2-.88-.83-.84a1.22,1.22,0,0,0-1.19.82A23.57,23.57,0,0,0,110.11,149ZM150,225.2a12.57,12.57,0,0,0,2.25,3.91c.73,1.06,1.53,2.08,2.31,3.1.15.2.38.42.64.28a.82.82,0,0,0,.4-.82c0-.49-.45-.76-.74-1.09-.9-1-1.82-2-2.69-3.05A10.37,10.37,0,0,0,150,225.2Zm-34-88.6-.4-.12c-1.28,1.65-1.82,3.69-2.73,5.54-.24.49.2.67.62.71s.83-.26,1-.75Q115.19,139.28,116,136.6Zm97.67,2.17c-2.63,1.74-3.86,4.43-4.87,7.27C210.75,143.87,211.91,141.14,213.63,138.77Zm18.23-5.83a7.94,7.94,0,0,0-3.13.17,2.52,2.52,0,0,0-2,1.37c-.17.26-.43.59-.17.87a.69.69,0,0,0,.9.11C228.69,134.38,230.39,134.15,231.86,132.94Zm36.71-72.19c1.07-.24,2.07-.4,3-.7s1.84-.75,3-1.23C271.18,58.44,269.4,59,268.57,60.75ZM159.44,141.46a24,24,0,0,0-6.39,4A26.89,26.89,0,0,0,159.44,141.46Zm-39.58,51a11.21,11.21,0,0,0,2.33,4.07,14.92,14.92,0,0,1-.39-2.44C121.81,192.78,121.05,192.51,119.86,192.47ZM206,143.08l-1.78,1.3c-.41.29-.35.64-.13,1s.4.73.82.74.49-.34.64-.64A5.15,5.15,0,0,0,206,143.08Zm3.35-1.81c-1.67.77-1.57,2.43-2.47,3.56a.66.66,0,0,0,1-.14C208.42,143.57,208.89,142.41,209.38,141.27Zm-42.29.19c-.48-.78-.63-1.48-1.42-1.53a.35.35,0,0,0-.34.4C165.49,141.09,166.11,141.26,167.09,141.46Zm12.33,6.23c.7-.07,1.36-.2,1.55-1,0-.06-.17-.22-.25-.22A1.37,1.37,0,0,0,179.42,147.69Zm-3.65-3.85c-.33-.08-.37.13-.38.31a.58.58,0,0,0,.52.68.49.49,0,0,0,.51-.48C176.39,144,176,143.91,175.77,143.84ZM224.7,136c-.46-.19-.64.22-.89.45s-.24.31,0,.46a.41.41,0,0,0,.51,0C224.56,136.69,225,136.5,224.7,136Zm-5,3.34c.73-.11,1.07-.35,1.25-.81.06-.18.07-.36-.2-.43C220.23,138.29,220,138.69,219.68,139.36Z" transform="translate(-51.34 -17.6)"/><path d="M217.61,355.31a16.54,16.54,0,0,0-4.28.44,18.66,18.66,0,0,1-6,.6,16.11,16.11,0,0,0-5,.56c-2.88.74-5.85.22-8.77.4a7.58,7.58,0,0,0-1.36.09c-3.23.85-6.48.43-9.72.16a7.86,7.86,0,0,0-2.14-.15c-3,.61-5.94-.13-8.9-.56-2.44-.36-4.94-.23-7.35-.86a2.18,2.18,0,0,0-1.15.12c-3,.91-6,.36-8.91-.12-3.85-.62-7.77-1-11.49-2.29a3.65,3.65,0,0,0-1.73-.25,16,16,0,0,1-6.73-.89,19.89,19.89,0,0,0-3.81-.81,20.4,20.4,0,0,1-5.08-1.3c-3.33-1.15-6.54-2.54-9.75-4-3-1.36-6.14-2.54-9.2-3.83-2.7-1.13-5.37-2.36-8-3.55a4.2,4.2,0,0,1-.69-.37c-.56-.37-1.6-.65-1.13-1.49s1.33-.22,1.93.08c4.61,2.31,9.42,4.17,14.16,6.16s9.09,4.26,13.9,5.74a18.15,18.15,0,0,0,4,1,24.67,24.67,0,0,1,5.51,1.22,10,10,0,0,0,3.86.5,12.23,12.23,0,0,1,4.79.7c4.65,1.35,9.46,1.77,14.24,2.4a4.52,4.52,0,0,0,1.94,0c2.61-.82,5.16-.1,7.74.06a50.27,50.27,0,0,1,6.37.86,12.14,12.14,0,0,0,4.08.07,26.16,26.16,0,0,1,7,.31,12.67,12.67,0,0,0,4.26-.12,35,35,0,0,1,8.17-.43,16.43,16.43,0,0,0,4.65-.51,13.54,13.54,0,0,1,4.24-.46,19.4,19.4,0,0,0,6.38-.68c2-.61,4.15-.21,6.23-.31a17.31,17.31,0,0,0,4.56-.79,14.4,14.4,0,0,1,4.62-.62,22.73,22.73,0,0,0,6.37-.81q4.33-1.17,8.74-2.1a31.74,31.74,0,0,0,5-1.54,31.88,31.88,0,0,1,6-1.68c3.14-.55,6.18-1.59,9.39-1.87a5.7,5.7,0,0,0,2.21-.72,30.53,30.53,0,0,1,6.81-2.36,20.24,20.24,0,0,0,2.94-1.07,15.21,15.21,0,0,1,5.25-1.37,7.6,7.6,0,0,0,4.48-2.22c.19-.17.34-.39.53-.57.4-.36.73-1.12,1.39-.5.51.48.07,1-.27,1.37a9.54,9.54,0,0,1-6.49,3.57,10.61,10.61,0,0,0-3.56.9c-1.19.52-2.43.94-3.67,1.34-2.28.74-4.67,1.17-6.8,2.4a6.81,6.81,0,0,1-2.43.68c-3.61.52-7.13,1.52-10.71,2.2-2.82.53-5.43,1.78-8.22,2.49-3.78.95-7.61,1.72-11.34,2.87a16,16,0,0,1-4.27.48,33.6,33.6,0,0,0-7.72,1.1A17.38,17.38,0,0,1,217.61,355.31Z" transform="translate(-51.34 -17.6)"/><path d="M82.12,372.94a18.36,18.36,0,0,1-2.05-3.41c-2.45-5.51-4.74-11.11-7.67-16.4-1.35-2.43-2.52-5-5.12-6.46a.64.64,0,0,1-.19-1c.31-.42.7-.24,1-.05A8.55,8.55,0,0,1,71,348.27a32.66,32.66,0,0,1,4.81,9.07c.21.73.8,1.13,1.12,1.78,1.93,4.05,3.59,8.21,5.39,12.32A1.18,1.18,0,0,1,82.12,372.94Z" transform="translate(-51.34 -17.6)"/><path d="M320.9,346.07l-.31.69c-1.5,3.47-2.74,7-4.09,10.54s-2.47,7-3.71,10.47c-.66,1.84-1.06,3.76-1.87,5.55-.07.18-.05.4-.13.57-.17.35-.36.77-.84.57s-.35-.54-.26-.85c.33-1.19.67-2.38,1.06-3.56,1.59-4.81,3.17-9.63,5-14.35q1.8-4.63,3.62-9.28a3,3,0,0,1,.49-.83.49.49,0,0,1,.7,0C320.72,345.65,320.78,345.86,320.9,346.07Z" transform="translate(-51.34 -17.6)"/><path d="M87.37,374.37a7.87,7.87,0,0,1-2-3,67.93,67.93,0,0,0-3.61-7.55,149,149,0,0,0-8.9-15.27c-.49-.72-.5-1.79-1.53-2.14a.36.36,0,0,1-.1-.51.49.49,0,0,1,.69-.14,4,4,0,0,1,.6.73,77.13,77.13,0,0,1,7.79,12.27c2,3.71,3.91,7.44,5.8,11.19A16.59,16.59,0,0,1,87.37,374.37Z" transform="translate(-51.34 -17.6)"/><path d="M172.49,347.53c0,.52,0,1,0,1.55a.36.36,0,0,1-.38.35c-.2,0-.4,0-.49-.22a4.69,4.69,0,0,1-.42-2.27,21.19,21.19,0,0,1,2.29-8.57c.24-.47.53-1.08,1.12-.75s.25.86,0,1.35A16.6,16.6,0,0,0,172.49,347.53Z" transform="translate(-51.34 -17.6)"/><path d="M113.52,339a17.58,17.58,0,0,1,.64-3.39,42.07,42.07,0,0,1,2.43-5.9,1,1,0,0,1,.1-.17c.37-.43.73-1.14,1.38-.71s.06.93-.21,1.33a21.83,21.83,0,0,0-3.09,8.51,4.76,4.76,0,0,1-.13.77c-.13.32-.09.88-.66.76S113.5,339.68,113.52,339Z" transform="translate(-51.34 -17.6)"/><path d="M212.65,376.35l-7.15-.93c-1.15-.14-2.31-.24-3.47-.38-.43-.05-.74-.27-.65-.77s.55-.44.92-.4c3.46.42,6.91,1,10.4,1.21a2.19,2.19,0,0,1,.56.14c.32.11.6.31.53.69s-.36.34-.61.39A3.61,3.61,0,0,1,212.65,376.35Z" transform="translate(-51.34 -17.6)"/><path d="M110,361.8a1.05,1.05,0,0,1,.1-1.31c1.57-2.75,3.18-5.47,4.79-8.19.21-.36.57-.6,1-.35s.24.65,0,1c-1.48,2.48-2.92,5-4.43,7.46C111.07,361,110.78,361.72,110,361.8Z" transform="translate(-51.34 -17.6)"/><path d="M251.58,368.07c-.86.12-1.2,0-1.25-.51s.35-.51.64-.58c1.83-.47,3.67-.9,5.49-1.37.69-.18,1.36-.44,2-.63a.38.38,0,0,1,.45.27.43.43,0,0,1-.17.51.54.54,0,0,1-.16.1A45.8,45.8,0,0,1,251.58,368.07Z" transform="translate(-51.34 -17.6)"/><path d="M284,350.21c-.34.86-.9.75-1.38.62-2.07-.55-4.14-1.15-6.21-1.73a.93.93,0,0,1-.35-.16c-.21-.14-.46-.3-.42-.59a.45.45,0,0,1,.59-.37A31.53,31.53,0,0,1,284,350.21Z" transform="translate(-51.34 -17.6)"/><path d="M199.2,346.68c0-2.09.78-4.06,1-6.11,0-.44.27-1,.86-.79s.29.7.22,1.15a34.61,34.61,0,0,0-1,6.49c0,.31,0,.72-.37.78s-.57-.38-.64-.75S199.23,346.94,199.2,346.68Z" transform="translate(-51.34 -17.6)"/><path d="M240.19,333.55a2.44,2.44,0,0,1,.48.25,12.35,12.35,0,0,1,3.46,5.5c.1.31.12.73-.2.87s-.72-.14-.86-.53a12.46,12.46,0,0,0-3.23-5.19.49.49,0,0,1,0-.7C239.91,333.66,240.05,333.63,240.19,333.55Z" transform="translate(-51.34 -17.6)"/><path d="M138.3,367.12c.32.37.14.73,0,1.07-.85,1.58-1.72,3.16-2.56,4.74a1.21,1.21,0,0,1-.7.62.8.8,0,0,1-.53,0c-.2-.1-.17-.33-.12-.52a2.17,2.17,0,0,1,.21-.53c.89-1.57,1.76-3.15,2.67-4.7C137.45,367.43,137.74,367,138.3,367.12Z" transform="translate(-51.34 -17.6)"/><path d="M104.68,331.27a9.75,9.75,0,0,1,4.1-4.7.65.65,0,0,1,.88.13.5.5,0,0,1-.18.81,13.22,13.22,0,0,0-3,2.93A2.11,2.11,0,0,1,104.68,331.27Z" transform="translate(-51.34 -17.6)"/><path d="M277.87,331.8a5.53,5.53,0,0,1-2.16-2c-.66-1-1.4-2-2.09-3-.19-.28-.29-.61.08-.84s.57-.19.7.06C275.38,328,277.48,329.2,277.87,331.8Z" transform="translate(-51.34 -17.6)"/><path d="M320.1,357.37c.31.38.07.78-.07,1.09-.73,1.66-1.51,3.29-2.29,4.93a.48.48,0,0,1-.63.29.66.66,0,0,1-.4-.6.67.67,0,0,1,0-.38c1-1.56,1.61-3.36,2.54-5A.68.68,0,0,1,320.1,357.37Z" transform="translate(-51.34 -17.6)"/><path d="M93.71,349.45c-.39-.07-.51-.32-.43-.57a3.62,3.62,0,0,1,.44-.85c.9-1.39,2.48-2,3.56-3.23a.49.49,0,0,1,.7,0,.47.47,0,0,1,0,.69c-1.28,1.27-2.56,2.53-3.86,3.78A1.1,1.1,0,0,1,93.71,349.45Z" transform="translate(-51.34 -17.6)"/><path d="M68.3,365.67c.94-1.95,2.71-2.84,4.47-3.76a.55.55,0,0,1,.81.25.6.6,0,0,1-.22.85C71.63,363.79,70.24,365.22,68.3,365.67Z" transform="translate(-51.34 -17.6)"/><path d="M263.61,333.87c0,.32,0,.67-.45.68s-.45-.29-.47-.55a12,12,0,0,0-1.53-4.18,2,2,0,0,1-.24-.74.65.65,0,0,1,.26-.47.42.42,0,0,1,.66.16C262.47,330.46,263.9,331.86,263.61,333.87Z" transform="translate(-51.34 -17.6)"/><path d="M248.61,361.91c-1.33-1.56-1.57-3.61-2.94-5a.53.53,0,0,1,0-.71c.28-.33.62-.13.85.08a8.86,8.86,0,0,1,2,3.48A2.37,2.37,0,0,1,248.61,361.91Z" transform="translate(-51.34 -17.6)"/><path d="M285.86,330.08c-.68-.17-.74-.82-.86-1.34a13.22,13.22,0,0,0-1.06-3.48c-.2-.38-.19-.78.24-1s.64.22.82.56a19.46,19.46,0,0,1,1.27,4.23A.8.8,0,0,1,285.86,330.08Z" transform="translate(-51.34 -17.6)"/><path d="M138.12,342.48c-.37-.37-.71-.73-.43-1.33.62-1.34,1.2-2.7,1.83-4,.13-.28.39-.55.77-.37a.47.47,0,0,1,.23.65,45,45,0,0,0-2,4.76c-.05.14-.32.19-.48.29Z" transform="translate(-51.34 -17.6)"/><path d="M159,373.87c-.8-.21-1.68.07-2.46-.36-.29-.15-.58-.35-.53-.73s.46-.44.76-.36a21.47,21.47,0,0,0,3.66.33c.44,0,.77.26.69.74s-.41.46-.75.45Z" transform="translate(-51.34 -17.6)"/><path d="M166.19,367.22c-.37-.69,0-1.31.15-2a13.44,13.44,0,0,0,.74-3.38.49.49,0,0,1,.48-.51.45.45,0,0,1,.47.49,13.81,13.81,0,0,1-1.18,5A.64.64,0,0,1,166.19,367.22Z" transform="translate(-51.34 -17.6)"/><path d="M204.26,369.63c-.57-.46-.35-.93-.3-1.34.15-1.15.33-2.29.48-3.43,0-.32.27-.41.53-.45s.34.12.41.31c.4,1.15-.29,2.24-.22,3.38A2,2,0,0,1,204.26,369.63Z" transform="translate(-51.34 -17.6)"/><path d="M213.2,345.18a7.52,7.52,0,0,1,1.14-3.64c.11-.17.24-.32.46-.25s.49.37.38.59a29.89,29.89,0,0,0-1.06,3.84c-.08.27-.19.5-.52.44a.51.51,0,0,1-.4-.57Z" transform="translate(-51.34 -17.6)"/><path d="M114.79,365.17,111,363.68a.51.51,0,0,1-.36-.6.64.64,0,0,1,.36-.38C112.17,362.37,114.12,363.55,114.79,365.17Z" transform="translate(-51.34 -17.6)"/><path d="M234,341a1.87,1.87,0,0,1-.32.42c-.18.12-.37,0-.51-.14a4.94,4.94,0,0,1-1.12-3c0-.24.22-.49.51-.49a.64.64,0,0,1,.47.26C233.39,339,233.69,340,234,341Z" transform="translate(-51.34 -17.6)"/><path d="M156.83,341.3c1,1.4.27,2.71.15,4a.35.35,0,0,1-.42.3c-.27-.05-.59-.27-.53-.48C156.41,343.93,155.74,342.55,156.83,341.3Z" transform="translate(-51.34 -17.6)"/><path d="M186.37,344.58c.14-.85.23-1.55.38-2.24a.59.59,0,0,1,.39-.33.46.46,0,0,1,.53.42,4.64,4.64,0,0,1-.29,2.27c-.12.32-.23.66-.61.61C186.23,345.24,186.3,344.82,186.37,344.58Z" transform="translate(-51.34 -17.6)"/><path d="M225.55,344.34c0,.34,0,.69-.39.75s-.52-.26-.56-.61a4.72,4.72,0,0,0-.55-2.2.45.45,0,0,1,.2-.66.58.58,0,0,1,.65.31A5.77,5.77,0,0,1,225.55,344.34Z" transform="translate(-51.34 -17.6)"/><path d="M223,338.84c.23,0,.39,0,.46,0,.46.45,1,.87.72,1.63a.36.36,0,0,1-.52.12A1.52,1.52,0,0,1,223,338.84Z" transform="translate(-51.34 -17.6)"/><path d="M138.07,342.44c.1.23.35.52.28.68-.26.59-.06,1.48-.95,1.68a.43.43,0,0,1-.47-.5c.11-.78-.12-1.82,1.19-1.82Z" transform="translate(-51.34 -17.6)"/><path d="M278.48,362c0-.91.56-1.35.79-1.91a.42.42,0,0,1,.64-.17.48.48,0,0,1,.2.66A2.32,2.32,0,0,1,278.48,362Z" transform="translate(-51.34 -17.6)"/><path d="M251.52,335.09c-1.1-.53-.52-1.53-1.39-2.31C251.34,333.35,251.34,333.35,251.52,335.09Z" transform="translate(-51.34 -17.6)"/><path d="M186.65,346.64c-.09-.09-.24-.18-.24-.27,0-.24.22-.29.41-.21a.35.35,0,0,1,.12.31C186.92,346.55,186.75,346.58,186.65,346.64Z" transform="translate(-51.34 -17.6)"/><path d="M193.64,227.82H191.1a11,11,0,0,1-6.28-1.79,132.5,132.5,0,0,1-11.71-8.1c-1.09-.87-1.17-1.58-.29-2.37.55-.49,1.19-.75,1.55.15s1.06.61,1.58.35c1.87-.92,3.73-1.86,5.53-2.9,2-1.17,4-2.43,6-3.7a1.78,1.78,0,0,1,2.46.22c.65.63,1.3,1.28,2,1.87,1.21,1,1.36,1.07,2.74.23a23.86,23.86,0,0,0,2.86-2,2.86,2.86,0,0,1,3.72-.34,45.05,45.05,0,0,0,8.26,3.94c1.21.43,2.35.83,3.31-.49.44-.59,1.09-.4,1.58-.06a1,1,0,0,1,.19,1.41,3.58,3.58,0,0,1-.83,1.06c-1.47,1.3-2.61,2.91-4,4.28a46.83,46.83,0,0,1-9.62,7.6C198.06,228.33,195.84,227.93,193.64,227.82Zm15.75-10.9a.71.71,0,0,0-.66-.45,59.8,59.8,0,0,1-7-1.78,4.8,4.8,0,0,0-4.42.57,5.71,5.71,0,0,1-7.38-.14c-.11-.08-.23-.14-.33-.22a1.66,1.66,0,0,0-2-.12A40.58,40.58,0,0,1,177,218.63a78.65,78.65,0,0,0,10.19,7,5.78,5.78,0,0,0,2.07.51c2.66.3,5.33.17,8,.22a4.65,4.65,0,0,0,2.23-.62,31.5,31.5,0,0,0,8.08-6.39C208.26,218.58,209.16,218,209.39,216.92Zm-4.1-3.15.21-.5a13.07,13.07,0,0,1-3.24-1.61c-1.66-1.49-2.68-1.52-4.41-.24a17.15,17.15,0,0,1-3.81,2.35,2,2,0,0,1-2.33-.35c-.66-.63-1.34-1.24-2-1.9a1.57,1.57,0,0,0-2.34-.35c-2.14,1.35-4.42,2.49-6.62,3.75-.6.35-1.14.82-1.89,1.37a2.11,2.11,0,0,0,1.5-.13,36.43,36.43,0,0,0,6.06-2.69,3.74,3.74,0,0,1,4.4.13,4.61,4.61,0,0,0,5.92,0c.21-.15.48-.21.69-.37a3.81,3.81,0,0,1,3.7-.49C202.52,213.17,203.91,213.44,205.29,213.77Z" transform="translate(-51.34 -17.6)"/><path d="M196.14,198.72l0,0c-.51.28-1.07.42-1.28-.27s.37-1.05.9-1.33a1.36,1.36,0,0,1,1.31.06c.53.26,1.06.51,1.56.8s1.27.57.86,1.26-1.07.18-1.59,0S196.94,198.43,196.14,198.72Z" transform="translate(-51.34 -17.6)"/><path d="M189.68,198.48c0,.38-.06.85-.36.85a6.77,6.77,0,0,0-2.51.58c-.29.1-.56-.27-.53-.64a2.81,2.81,0,0,1,2.58-1.91C189.47,197.51,189.61,198,189.68,198.48Z" transform="translate(-51.34 -17.6)"/><path d="M170.36,186.19c-.39,0-.59-.08-.64-.39a1,1,0,0,1,1.05-1.08c.34,0,.71.16.71.52C171.48,186,170.82,186.06,170.36,186.19Z" transform="translate(-51.34 -17.6)"/><path d="M210.27,182.78c-.34,0-.58-.12-.63-.4-.1-.66.39-.88.89-1,.28-.08.54,0,.54.35A1,1,0,0,1,210.27,182.78Z" transform="translate(-51.34 -17.6)"/><path d="M234.78,202.31c-.07.44-.29.74-.76.7a.64.64,0,0,1-.59-.81c0-.48.44-.6.84-.56A.58.58,0,0,1,234.78,202.31Z" transform="translate(-51.34 -17.6)"/><path d="M237.34,181.92c-.39-.07-.49-.35-.42-.69a.58.58,0,0,1,.68-.51c.4.05.48.38.42.71A.54.54,0,0,1,237.34,181.92Z" transform="translate(-51.34 -17.6)"/><path d="M225.22,189.6c.27.08.45.26.36.56a.48.48,0,0,1-.58.37.43.43,0,0,1-.37-.56A.48.48,0,0,1,225.22,189.6Z" transform="translate(-51.34 -17.6)"/><path d="M220.09,178.56a.41.41,0,0,1-.4.35.34.34,0,0,1-.38-.34.37.37,0,0,1,.4-.34C219.92,178.23,220.08,178.32,220.09,178.56Z" transform="translate(-51.34 -17.6)"/><path d="M214.41,192.07a.32.32,0,0,1-.34-.37.42.42,0,0,1,.39-.36c.25,0,.34.14.32.36A.4.4,0,0,1,214.41,192.07Z" transform="translate(-51.34 -17.6)"/><path d="M123.58,67.31c4.1-1.92,7.53-5,11.65-7.43a3.6,3.6,0,0,1-1.12,2.44,155,155,0,0,0-13.52,18.89c-4,6.56-8.07,13.09-10.93,20.27-.23.58-.38,1.48-1.22,1.15s-.43-1.11-.22-1.71a64,64,0,0,1,4.19-8.61,160.45,160.45,0,0,1,8.66-14.62c2.24-3.34,4.22-6.87,7-9.88a7.19,7.19,0,0,0,.7-1.3,3.88,3.88,0,0,0-1.89.82l-6.57,3.86a6.56,6.56,0,0,1-.69.37c-.7.28-1.48.42-2-.25s.1-1.23.57-1.67c2.64-2.51,5.3-5,7.95-7.51a102.7,102.7,0,0,0,9.61-10c.25-.3.49-.61.76-.89s.76-.59,1.19-.2a.84.84,0,0,1,0,1.24c-1.22,1.44-2.47,2.86-3.72,4.27a128.64,128.64,0,0,1-9.24,9c-.47.44-1,.81-1.53,1.21Z" transform="translate(-51.34 -17.6)"/><path d="M170.15,141.4c.31-.08.69-.2.92,0A12.32,12.32,0,0,1,173.3,145a.34.34,0,0,1-.2.47.44.44,0,0,1-.52-.15,15.43,15.43,0,0,1-2.39-4Z" transform="translate(-51.34 -17.6)"/></g></g></svg>